<?xml version="1.0" encoding="UTF-8" standalone="no"?>
<!-- Created with Inkscape (http://www.inkscape.org/) -->

<svg
   width="210mm"
   height="297mm"
   viewBox="0 0 210 297"
   version="1.1"
   id="svg5"
   inkscape:version="1.1.1 (3bf5ae0d25, 2021-09-20)"
   sodipodi:docname="manual.svg"
   xmlns:inkscape="http://www.inkscape.org/namespaces/inkscape"
   xmlns:sodipodi="http://sodipodi.sourceforge.net/DTD/sodipodi-0.dtd"
   xmlns="http://www.w3.org/2000/svg"
   xmlns:svg="http://www.w3.org/2000/svg">
  <sodipodi:namedview
     id="namedview7"
     pagecolor="#ffffff"
     bordercolor="#666666"
     borderopacity="1.0"
     inkscape:pageshadow="2"
     inkscape:pageopacity="0.0"
     inkscape:pagecheckerboard="0"
     inkscape:document-units="mm"
     showgrid="false"
     inkscape:zoom="4"
     inkscape:cx="158.75"
     inkscape:cy="954.125"
     inkscape:window-width="1920"
     inkscape:window-height="1017"
     inkscape:window-x="1912"
     inkscape:window-y="-8"
     inkscape:window-maximized="1"
     inkscape:current-layer="layer1" />
  <defs
     id="defs2" />
  <g
     inkscape:groupmode="layer"
     id="layer1"
     inkscape:label="stencils"
     style="display:inline;opacity:1">
    <g
       id="manualHeader">
      <rect
         style="display:inline;fill:#ff0000;fill-opacity:0.3;stroke-width:1"
         width="59.333"
         height="12.296644"
         x="21.440203"
         y="240.68848"
         id="rect14133" />
      <path
         id="path2348"
         style="font-size:33.8662px;font-family:JustLetters;-inkscape-font-specification:JustLetters;fill:#000000;fill-opacity:1;stroke-width:0.264583"
         d="m 39.699279,240.77594 -3.50083,2.92011 -0.05286,5.84012 c -0.757968,-0.97609 -1.136865,-2.0394 -1.136865,-3.18998 0,-0.94882 0.256234,-1.82678 0.768818,-2.63383 0.39807,-0.62709 1.003369,-1.21597 1.815868,-1.76672 l -0.196361,-0.22909 c -1.243287,0.74706 -2.14297,1.51598 -2.699178,2.30666 -0.708891,1.00881 -1.063359,2.10485 -1.063359,3.28816 0,0.95973 0.25083,1.89216 0.752506,2.79736 0.501678,0.9052 1.194191,1.60052 2.077579,2.08583 0.888841,0.48532 1.834991,0.72794 2.838345,0.72794 0.676173,0 1.357772,-0.11455 2.044851,-0.34358 0.687079,-0.23448 1.273251,-0.54528 1.758569,-0.93245 0.490772,-0.38716 0.989731,-0.92968 1.496861,-1.62766 l -0.245399,-0.23725 c -0.692533,0.59983 -1.363217,1.03331 -2.012125,1.30051 -0.643455,0.26719 -1.357797,0.40087 -2.143031,0.40087 l -0.310853,-0.008 -0.376202,-0.0409 c -0.670719,-0.0872 -1.256891,-0.25897 -1.75857,-0.51527 -0.496223,-0.26174 -0.962542,-0.63523 -1.398782,-1.12055 0.525226,-0.76919 1.174904,-1.3999 1.410656,-2.23305 0.04908,-0.15269 0.07361,-0.46079 0.07361,-0.92431 v -3.72981 l 0.957026,-0.82622 0.368046,0.0491 c 1.145133,0.56711 2.172987,0.89975 3.083641,0.99791 l 1.349639,-1.29235 -0.130905,-0.29453 h -0.188103 c -0.632549,0 -1.183274,-0.0464 -1.652232,-0.13907 -0.46896,-0.0982 -1.112408,-0.30803 -1.93036,-0.62976 z m 27.736967,2.39287 c -0.0027,5e-5 -0.0054,4e-4 -0.0084,0.001 -0.05413,0.0135 -0.24359,0.29096 -0.541283,0.61571 -0.135316,0.14208 -0.169175,0.10821 -0.135345,0.46003 0.0068,0.0609 0.02028,0.12184 0.02705,0.18273 0.04059,0.39242 -0.0067,1.3193 -0.0067,1.48168 0,0.12179 0.02023,0.2503 0.02023,0.37208 0,0.10825 -0.027,0.22335 -0.02023,0.3316 0,0.0338 0.01347,0.0677 0.02023,0.10148 0.0068,0.0473 -0.01353,0.0879 -0.01353,0.13525 0,0.0609 0.01353,0.11502 0.01353,0.17592 0,0.46684 4.2e-5,0.94722 0.0068,1.41406 0,0.11502 -0.08801,0.12185 -0.08125,0.16921 0.0068,0.0541 0.09481,0.0811 0.128634,0.10819 0.08796,0.0812 0.169112,0.17588 0.257066,0.25707 0.10825,0.10824 0.108281,0.14884 0.236829,0 0.108253,-0.13532 0.257056,-0.23001 0.372075,-0.35855 0.02706,-0.0271 0.135352,-0.0812 0.121819,-0.12854 -0.0068,-0.0406 -0.07442,0.0135 -0.101481,0 -0.06766,-0.0473 -0.108319,-0.10826 -0.16921,-0.16239 -0.03383,-0.027 -0.09472,-0.0745 -0.101483,-0.12182 0,-0.0135 0.0068,-2.51008 0.0068,-2.54391 0.0068,-0.027 0.06765,-0.11496 0.101483,-0.10819 0.0068,0 0.270574,0.1894 0.297639,0.25707 0.01353,0.027 -2e-6,0.78483 0.01353,1.51553 0.02706,1.23138 0,0.88629 0,1.31929 0,0.18945 0.0068,0.3789 -0.0067,0.56833 -0.0068,0.0812 -0.08123,0.39242 -0.0068,0.3789 0.02029,-0.007 0.02709,-0.0473 0.03386,-0.0609 0.216505,-0.42624 0.399147,-0.58182 0.446508,-0.63595 0.175909,-0.2165 0.162395,-0.0947 0.162395,-0.24354 0,-0.33153 -0.01353,-0.0542 0,-0.5481 0,-0.0338 -0.01353,-0.0676 -0.01353,-0.10819 0,-0.0541 0.01353,-0.10827 0.01353,-0.16239 -0.0068,-0.20974 -0.0203,-0.41274 -0.01353,-0.62924 0.0203,-0.96074 0.0068,-0.38559 0.0068,-0.96745 v -0.56833 c 0.01353,-0.11502 0.10145,-0.13537 0.06762,-0.19626 -0.01353,-0.0338 -0.06761,-0.0405 -0.09467,-0.0676 -0.09472,-0.088 -0.196213,-0.18273 -0.277401,-0.28422 -0.03383,-0.0406 -0.05417,-0.12854 -0.108298,-0.11501 -0.07442,0.0135 -0.121796,0.10834 -0.365361,0.3316 l -0.223307,0.18264 c -0.07442,0.0744 -0.04733,-0.10145 -0.04057,-0.16911 0.01353,-0.10149 -1.6e-5,-3e-5 0.02705,-1.09609 0,-0.0541 -0.03383,-0.22323 0,-0.54799 0.01353,-0.14885 -0.01347,-0.27743 -0.0067,-0.42627 0,-0.0254 -0.006,-0.11019 -0.04574,-0.10954 z m -11.721839,0.3444 c -0.0035,4.1e-4 -0.0075,0.001 -0.01167,0.002 -0.01377,4e-4 -0.108267,0.10152 -0.175815,0.17581 -0.216505,0.25034 -0.534516,0.5075 -0.541282,0.56163 -0.0068,0.0338 0.01353,0.0541 0.01353,0.0811 0.03383,0.54126 0.01353,1.25844 0.01353,1.33963 0.0068,0.44653 0.0203,0.88637 0,1.33292 0,0.0812 0.01353,0.15552 0.01353,0.23672 0,0.10149 -0.01356,0.19625 -0.02034,0.29774 0,0.18944 -0.0067,0.87954 -0.0067,0.97427 -0.01353,0.30445 -0.0542,0.12182 0.324686,0.41274 0.09472,0.0744 0.182763,0.18946 0.318079,0.17592 0.06766,-0.0135 0.101449,-0.0948 0.169105,-0.1151 0.155614,-0.0609 0.317943,-0.14879 0.473557,-0.22321 0.257098,-0.12855 0.561556,-0.24358 0.581853,-0.2774 0.03383,-0.0609 -0.0067,-1.04871 -0.0067,-1.04871 0,0 0.03375,-1.41409 0.03375,-1.73884 0.0068,-0.10825 0.101548,-0.13527 0.08125,-0.19616 0,-0.007 -0.277374,-0.20975 -0.331499,-0.26388 -0.284163,-0.25709 -0.202985,-0.28421 -0.365364,-0.10829 -0.12855,0.13532 -0.399218,0.37216 -0.412747,0.3857 -0.08119,0.0541 -0.02701,0.0609 -0.0067,0.0811 0.05413,0.0473 0.270581,0.23681 0.284112,0.27741 0.03383,0.0812 0,2.23945 0,2.23945 0,0.36535 0.02707,0.52105 -0.02705,0.50752 -0.101486,-0.0406 -0.189504,-0.11507 -0.270692,-0.18273 -0.162377,-0.14208 -0.08114,-0.0879 -0.09467,-0.27059 -0.02706,-0.56156 0.0068,-0.29097 0,-0.60219 0,-0.22327 -0.01353,-0.46002 -0.01353,-0.67652 0.0068,-0.12179 0.01353,-0.22335 0.01353,-0.34513 -0.0068,-0.12179 -0.01353,-0.25034 -0.01353,-0.3789 0,-0.10824 0.01353,-0.20966 0.01353,-0.32467 0.0068,-0.17591 -0.01356,-0.34514 -0.0068,-0.52105 0.0068,-0.0744 0.0068,-0.14207 0.0068,-0.21649 0.0068,-0.0473 -0.0068,-0.0879 -0.0068,-0.13524 0,-0.0677 0.01356,-0.14213 0.0068,-0.20979 l -0.0068,-0.32479 c 0,-0.0203 0.02034,-0.0473 0.02034,-0.0676 -0.01268,-0.78652 0.0043,-0.8595 -0.04924,-0.8544 z m -13.33794,0.48089 a 0.29137044,0.29137044 0 0 0 -0.29134,0.29133 0.29137044,0.29137044 0 0 0 0.29134,0.29145 0.29137044,0.29137044 0 0 0 0.29134,-0.29145 0.29137044,0.29137044 0 0 0 -0.29134,-0.29133 z m 24.208676,0.91624 c -0.02282,-1.7e-4 -0.05289,0.004 -0.09095,0.0121 -0.03383,0.007 -0.06765,0.027 -0.101483,0.027 -0.135315,0.0203 -0.500708,0.0135 -0.500708,0.0135 -0.223269,-0.0271 -0.14202,-0.0271 -0.209678,0.0676 -0.182676,0.2571 -0.433087,0.45332 -0.433087,0.45332 -0.257099,0.20297 -0.162299,0.1556 -0.148766,0.30445 0.03383,0.35182 -0.03392,1.14345 -0.02715,2.55072 0.0068,0.23005 -0.108265,0.20299 -0.07444,0.26388 0.01353,0.0338 0.08124,0.0473 0.108299,0.0609 0.06766,0.0406 0.635163,0.22328 0.756946,0.36537 0.108252,0.12178 0.135304,0.0338 0.216491,-0.0609 0.405948,-0.46007 0.426275,-0.39244 0.426275,-0.43979 0,-0.0541 -0.655459,-0.20298 -0.668989,-0.27741 -0.01353,-0.11501 -0.0068,-1.28553 -0.0068,-1.28553 0,0 -0.01353,-0.81183 -0.01353,-0.87949 v -0.37888 c 0.03383,-0.0541 0.196275,-0.0541 0.257168,-0.0406 0.148846,0.0271 0.121724,-0.0406 0.209678,-0.20296 0.216505,-0.37212 0.324777,-0.44658 0.351838,-0.50071 0.01397,-0.0325 -7.92e-4,-0.0522 -0.0511,-0.0526 z m -22.72916,0.0121 c -0.02706,0 -0.04056,0.0406 -0.05409,0.0609 -0.0203,0.0271 -0.04062,0.0542 -0.06091,0.0744 -0.284162,0.34505 -0.419459,0.41267 -0.419459,0.46003 0,0.0744 0.317975,0.14213 0.317975,0.39923 0,0.0812 -0.02034,0.18264 -0.02034,0.35855 0,0.088 0.01353,0.318 0.01353,0.45331 0,0.12855 -0.01353,0.0744 -0.01353,0.23003 v 0.0473 c 0,0.0947 0.01353,0.17587 0.01353,0.27059 0,0.0677 -0.01353,0.11503 -0.01353,0.1624 -0.01353,0.0473 0.02707,0.0203 -0.01353,0.0947 0,0.0202 0.01353,0.0474 0.01353,0.0677 -0.0068,0.2165 -0.03381,0.548 -0.02705,0.63595 0,0.36535 -3e-6,0.11504 -0.08796,0.35184 0.0068,0.0338 0.514154,0.48709 0.561516,0.48709 0.03383,0 0.06098,-0.0541 0.128633,-0.13525 0.07442,-0.088 0.182587,-0.14883 0.263777,-0.23002 0.08119,-0.0812 0.115041,-0.12182 0.14887,-0.12182 0.03383,0 0.06763,0.0337 0.142057,0.0947 0.378883,0.33829 0.358615,0.41275 0.426273,0.41275 h 0.0068 c 0.04736,0 0.08794,-0.0812 0.115007,-0.1083 l 0.345025,-0.31116 c 0.08119,-0.0744 0.108283,-0.1083 0.135347,-0.1083 0.02706,0 0.05412,0.0338 0.115006,0.088 0.35182,0.29093 0.385617,0.43299 0.44651,0.43299 0.04736,0 0.08118,-0.0609 0.115006,-0.10149 0.43301,-0.42624 0.439798,-0.38558 0.439798,-0.42617 0,-0.0338 -0.06765,-0.0745 -0.202967,-0.19625 -0.08119,-0.0677 -0.101484,-0.0203 -0.101484,-0.58186 v -0.43299 c 0,-0.0947 -0.01353,-0.18949 -0.01353,-0.28421 v -0.25025 -0.66981 -0.15569 c 0,-0.25033 -0.02034,-0.29085 -0.02034,-0.32469 0,-0.12178 0.175955,-0.1353 0.108297,-0.21649 -0.01353,-0.0203 -0.04738,-0.0203 -0.06091,-0.0407 -0.216505,-0.17591 -0.392423,-0.44651 -0.466846,-0.44651 -0.04736,0 -0.12176,0.12857 -0.142057,0.14887 -0.08119,0.0812 -0.16911,0.14883 -0.257064,0.23002 -0.03383,0.0338 -0.08127,0.12853 -0.142161,0.11501 -0.142082,-0.0203 -0.507382,-0.53447 -0.575039,-0.53447 -0.07442,0 -0.18272,0.20296 -0.399225,0.40593 -0.04059,0.0338 -0.0744,0.10149 -0.142057,0.10149 -0.04736,0 -0.115061,-0.0339 -0.209781,-0.13535 -0.0203,-0.027 -0.05408,-0.0406 -0.08115,-0.0609 -0.209738,-0.1759 -0.263842,-0.31116 -0.3315,-0.31116 z m 7.135557,0.0229 c -0.03596,0.003 -0.05984,0.041 -0.180358,0.0854 -0.189441,0.0677 -0.845736,0.34511 -0.933693,0.3857 -0.202972,0.0812 -0.05413,0.0473 -0.08796,0.56152 -0.03383,0.55479 0.02707,1.10962 -0.01353,1.66441 -0.0068,0.0406 0.01358,0.0744 0.0068,0.11501 0,0.0541 -0.0068,0.12184 -0.0068,0.18273 0.0068,0.0947 0.01358,0.19616 0.0068,0.29764 -0.01353,0.35183 -0.0271,0.29091 0.169105,0.43298 0.06766,0.0541 0.128551,0.10828 0.189442,0.1624 0.2571,0.22327 0.250373,0.25707 0.311266,0.24354 0.03383,-0.007 0.71712,-0.39237 0.865968,-0.46003 0.08119,-0.0338 0.169165,-0.0744 0.250353,-0.11501 0.02706,-0.0135 0.08119,-0.0135 0.101485,-0.0406 0.02706,-0.0541 0,-0.14214 0,-0.19626 -0.0068,-0.14885 0,-0.60209 0,-0.60209 0,-1.33962 -0.01353,-1.16372 0,-1.33963 0.0068,-0.10825 -4.9e-5,-0.20301 -0.0068,-0.31126 -0.0068,-0.14885 0.0068,-0.29096 0.0068,-0.4398 0,-0.35859 0.148829,-0.16916 -0.351838,-0.45332 -0.230036,-0.13299 -0.286302,-0.17622 -0.327061,-0.17334 z m -10.9715,0.007 c -0.04623,0.002 -0.06005,0.0643 -0.08816,0.11253 -0.121786,0.22327 -0.351887,0.45332 -0.358653,0.48037 -0.01353,0.0744 0.209753,0.14888 0.263879,0.23684 0.02706,0.0541 0.01353,0.14202 0.01353,0.19615 -0.01353,0.10149 0,0.19621 0,0.29092 0,0.0541 -0.0067,0.11509 -0.0067,0.16922 0,0.86601 0.0067,0.68334 0.0067,0.85926 0,0.28416 -0.0067,0.57509 0.0068,0.85925 0.0068,0.0812 0.01348,0.18946 -0.0068,0.26388 -0.01353,0.0473 -0.08115,0.0879 -0.06762,0.14206 0.01353,0.0473 0.277428,0.26379 0.426273,0.41263 0.03383,0.0271 0.08112,0.12855 0.135243,0.11502 0.05413,-0.0135 0.11509,-0.10146 0.155685,-0.14206 0.317991,-0.31122 0.432983,-0.31122 0.432983,-0.39241 0,-0.027 -0.05409,-0.0406 -0.06762,-0.0609 -0.108254,-0.12855 -0.263929,-0.24357 -0.270693,-0.29093 -0.0068,-0.0135 -0.04057,-0.89301 -0.04057,-0.89301 0,-0.21651 0.01348,-0.4195 0.0067,-0.62924 l -0.02023,-1.08257 c 0.0068,-0.0271 0.04738,-0.0812 0.07444,-0.088 0.08119,-0.0135 0.500645,0.46008 0.520943,0.46685 0.05413,0.0135 0.08795,-0.0744 0.115009,-0.10819 0.378883,-0.46007 0.405911,-0.39916 0.257063,-0.52095 -0.392413,-0.33828 -0.155568,-0.13533 -0.372072,-0.35184 -0.08796,-0.0947 -0.08791,-0.0203 -0.169106,0.10149 -0.03383,0.0473 -0.08804,0.0744 -0.128636,0.11501 -0.155611,0.15561 -0.196123,0.27063 -0.250249,0.18944 -0.01353,-0.0271 -0.378919,-0.31119 -0.41275,-0.34502 -0.07696,-0.0797 -0.123741,-0.10704 -0.155375,-0.10583 z m 17.780306,0 c -0.04623,0.002 -0.06005,0.0643 -0.08816,0.11253 -0.121784,0.22327 -0.351782,0.45332 -0.358551,0.48037 -0.01353,0.0744 0.209753,0.14888 0.263879,0.23684 0.02706,0.0541 0.01353,0.14202 0.01353,0.19615 -0.01353,0.10149 0,0.19621 0,0.29092 0,0.0541 -0.0068,0.11509 -0.0068,0.16922 0,0.86601 0.0068,0.68334 0.0068,0.85926 0,0.28416 -0.0067,0.57509 0.0068,0.85925 0.0068,0.0812 0.01348,0.18946 -0.0068,0.26388 -0.01353,0.0473 -0.08115,0.0879 -0.06762,0.14206 0.01353,0.0473 0.277326,0.26379 0.426171,0.41263 0.03383,0.0271 0.08122,0.12855 0.135347,0.11502 0.05413,-0.0135 0.114985,-0.10146 0.15558,-0.14206 0.317991,-0.31122 0.433088,-0.31122 0.433088,-0.39241 0,-0.027 -0.05419,-0.0406 -0.06772,-0.0609 -0.108253,-0.12855 -0.263825,-0.24357 -0.270589,-0.29093 -0.0068,-0.0135 -0.04057,-0.89301 -0.04057,-0.89301 0,-0.21651 0.01346,-0.4195 0.0067,-0.62924 l -0.02023,-1.08257 c 0.0068,-0.0271 0.04727,-0.0812 0.07433,-0.088 0.08119,-0.0135 0.500747,0.46008 0.521044,0.46685 0.05413,0.0135 0.08794,-0.0744 0.115009,-0.10819 0.378883,-0.46007 0.405911,-0.39916 0.257064,-0.52095 -0.392414,-0.33828 -0.155568,-0.13533 -0.372073,-0.35184 -0.08795,-0.0947 -0.08802,-0.0203 -0.169207,0.10149 -0.03383,0.0473 -0.08794,0.0744 -0.128532,0.11501 -0.155612,0.15561 -0.196229,0.27063 -0.250356,0.18944 -0.01353,-0.0271 -0.378815,-0.31119 -0.412643,-0.34502 -0.07696,-0.0797 -0.123846,-0.10704 -0.155479,-0.10583 z m -9.788588,5.2e-4 c -0.05141,0.004 -0.07263,0.0723 -0.109846,0.11883 -0.02706,0.0406 -0.07447,0.0677 -0.108297,0.10148 -0.01353,0.0135 -0.216453,0.26381 -0.385598,0.39912 -0.182677,0.12855 -0.169215,0.10149 -0.155684,0.2774 0.02706,0.27064 0,0.48041 0,0.6022 -0.01353,0.46007 0.08795,0.39243 -0.08796,0.52775 -0.07442,0.0541 -0.08796,0.0541 0,0.11501 l 0.121821,0.0811 c 0,0 0.473659,0.39241 0.473659,0.40594 -0.0068,0.0947 -0.142103,0.21656 -0.439796,0.6631 l -0.162395,0.27059 c -0.05413,0.0812 -0.169105,0.20976 -0.169105,0.25036 0,0.0203 0.05409,0.0338 0.06762,0.0202 0.02706,-0.007 0.04738,-0.0473 0.06091,-0.0676 0.230036,-0.33152 0.09471,-0.25031 0.405936,-0.12853 0.257098,0.10149 0.48715,0.25029 0.744248,0.37207 0.263864,0.12179 0.182668,0.22335 0.304451,0.0407 0.0068,-0.0135 0.189443,-0.20307 0.189443,-0.20307 0.115019,-0.088 0.230006,-0.16911 0.345025,-0.25707 0.148847,-0.12178 0.14212,-0.0744 0.121821,-0.25706 -0.01353,-0.10825 0,-0.30451 0,-0.31126 0,-0.0541 -0.01353,-0.11498 -0.01353,-0.16911 0,-0.0744 0.01348,-0.14207 0.0067,-0.21649 0,0 -0.03377,-0.41275 -0.0067,-0.50071 0.0203,-0.088 0.270567,-0.0947 0.121719,-0.17592 -0.121783,-0.0677 -0.622426,-0.50742 -0.622426,-0.50742 -0.0068,-0.0609 0.03379,-0.088 0.06762,-0.13534 0.01353,-0.0203 0.304496,-0.48711 0.412748,-0.62243 0.162379,-0.21651 0.162394,-0.1962 0.162394,-0.21648 0.01353,-0.0677 -0.08118,-0.0135 -0.101483,0.007 -0.05413,0.0406 -0.06087,0.10148 -0.128532,0.11501 -0.05413,0.0135 -0.710425,-0.30447 -1.021652,-0.55481 -0.04017,-0.0338 -0.06976,-0.046 -0.09312,-0.0444 z m 4.653283,0.004 c -0.06089,0 -0.135339,0.12175 -0.14887,0.14206 -0.02706,0.0338 -0.06095,0.0541 -0.08125,0.0811 -0.223269,0.27063 -0.3315,0.25038 -0.3315,0.31127 0,0.0406 0.3315,0.23676 0.3315,0.34502 0,0.0406 -0.01353,0.16236 -0.01353,0.40594 0,0.18943 0.01353,0.20975 0.01353,0.45332 0,0.2368 -0.0067,0.27739 -0.0067,0.39241 0,0.25033 0.0067,0.22329 0.0067,0.25035 -0.01353,0.14885 -0.01353,0.29773 -0.01353,0.42628 0,0.20973 0.0068,0.3924 0.0068,0.50741 0,0.0812 7e-6,0.13534 -0.01353,0.14888 -0.0203,0.0338 -0.108298,0.0879 -0.108298,0.13524 0,0.0473 0.108283,0.10152 0.135346,0.12182 0.148847,0.10825 0.351809,0.37207 0.405936,0.37207 0.05413,0 0.108228,-0.0879 0.142057,-0.12853 0.0203,-0.027 0.06089,-0.0405 0.08796,-0.0676 0.236802,-0.20974 0.304428,-0.2774 0.345024,-0.2774 0.06766,0 0.439844,0.38564 0.446611,0.39241 l 0.101484,0.10148 c 0.0203,0.0203 0.04061,0.0339 0.06091,0.0339 0.08796,0 0.169085,-0.23684 0.399121,-0.41275 0.03383,-0.0271 0.135347,-0.0676 0.135347,-0.11501 0,-0.0406 -0.06766,-0.061 -0.08796,-0.0813 -0.08119,-0.0541 -0.19625,-0.16232 -0.209781,-0.19615 0,-0.25033 -0.0541,-1.99596 -0.0541,-2.49663 0,-0.12178 4.2e-5,-0.20296 0.0068,-0.21649 0.01353,-0.0338 0.09467,-0.0812 0.09467,-0.12853 0,-0.0473 -0.0677,-0.0811 -0.121822,-0.12172 -0.108252,-0.0812 -0.189439,-0.18274 -0.290926,-0.25717 -0.04059,-0.0203 -0.05407,-0.0879 -0.108195,-0.0947 -0.07443,0 -0.493962,0.47356 -0.561619,0.47356 -0.02706,0 -0.05406,-0.0271 -0.12172,-0.0744 -0.230036,-0.16239 -0.372085,-0.42617 -0.446507,-0.42617 z m 10.047099,0 c -0.06089,0 -0.135338,0.12175 -0.14887,0.14206 -0.02706,0.0338 -0.06085,0.0541 -0.08115,0.0811 -0.223271,0.27063 -0.331499,0.25038 -0.331499,0.31127 0,0.0406 0.331499,0.23676 0.331499,0.34502 0,0.0406 -0.01353,0.16236 -0.01353,0.40594 0,0.18943 0.01353,0.20975 0.01353,0.45332 0,0.2368 -0.0068,0.27739 -0.0068,0.39241 0,0.25033 0.0068,0.22329 0.0068,0.25035 -0.01353,0.14885 -0.01353,0.29773 -0.01353,0.42628 0,0.20973 0.0067,0.3924 0.0067,0.50741 0,0.0812 2e-6,0.13534 -0.01353,0.14888 -0.0203,0.0338 -0.108194,0.0879 -0.108194,0.13524 0,0.0473 0.10818,0.10152 0.135242,0.12182 0.148848,0.10825 0.35181,0.37207 0.405937,0.37207 0.05413,0 0.108329,-0.0879 0.142158,-0.12853 0.0203,-0.027 0.0609,-0.0405 0.08796,-0.0676 0.2368,-0.20974 0.304429,-0.2774 0.345022,-0.2774 0.06766,0 0.439745,0.38564 0.446509,0.39241 l 0.101485,0.10148 c 0.0203,0.0203 0.04061,0.0339 0.06091,0.0339 0.08796,0 0.169189,-0.23684 0.399225,-0.41275 0.03383,-0.0271 0.135243,-0.0676 0.135243,-0.11501 0,-0.0406 -0.06766,-0.061 -0.08796,-0.0813 -0.08119,-0.0541 -0.196147,-0.16232 -0.209679,-0.19615 0,-0.25033 -0.0542,-1.99596 -0.0542,-2.49663 0,-0.12178 4e-5,-0.20296 0.0068,-0.21649 0.01353,-0.0338 0.09477,-0.0812 0.09477,-0.12853 0,-0.0473 -0.0677,-0.0811 -0.121821,-0.12172 -0.108253,-0.0812 -0.18944,-0.18274 -0.290928,-0.25717 -0.04059,-0.0203 -0.05417,-0.0879 -0.108295,-0.0947 -0.07442,0 -0.493861,0.47356 -0.561516,0.47356 -0.02706,0 -0.05417,-0.0271 -0.121824,-0.0744 -0.230036,-0.16239 -0.372083,-0.42617 -0.446507,-0.42617 z m -2.132604,0.01 c -0.006,-4e-5 -0.01216,0.001 -0.0189,0.004 -0.06766,0.0203 -0.04742,0.0744 -0.270693,0.27058 -0.02706,0.0271 -0.04738,0.0677 -0.07443,0.0948 -0.07071,0.0803 -0.143955,0.17504 -0.211125,0.27689 0.0016,10e-4 0.0031,0.003 0.0049,0.004 0.0045,0.001 0.0082,0.003 0.01125,0.004 0.04848,-0.0162 0.102104,-0.0283 0.161259,-0.0355 0.03383,-0.007 0.493872,0.12849 0.534468,0.20968 0.01353,0.0203 0,0.0474 0,0.0609 -0.0068,0.0135 -0.01353,0.4939 -0.01353,0.4939 0,0.0473 0.0068,0.0947 -0.01353,0.14205 -0.02706,0.0677 -0.243595,0.18273 -0.338315,0.19626 -0.01628,1.6e-4 -0.03186,-0.001 -0.04759,-0.002 -3.99e-4,5.1e-4 -5.81e-4,0.002 -10e-4,0.002 5e-6,1.1e-4 0,2e-4 0,4e-4 h -1.07e-4 c 7e-6,-3e-5 -1.1e-5,-2e-4 0,-4e-4 -4.7e-5,1.1e-4 -5.2e-5,2e-4 -1.04e-4,4e-4 v 1e-4 c -1.05e-4,5.2e-4 -1.05e-4,5.2e-4 -1.05e-4,4e-4 -0.02465,0.0362 -0.151696,0.18926 -0.174371,0.21526 -0.189441,0.2165 -0.507514,0.45335 -0.521047,0.48718 -0.0068,0.0135 0.01353,0.58863 0.01353,0.66981 0,0.28417 0.01353,0.26386 0.01353,0.29093 0,0.12178 -0.02021,0.0541 -0.07433,0.13524 -0.08119,0.0812 0.03382,0.1286 0.115009,0.20979 l 0.31116,0.30445 c 0.02706,0.0203 0.05413,0.0744 0.08796,0.088 0.05412,0.027 0.114995,-0.0947 0.142055,-0.12853 0.08119,-0.0947 0.196263,-0.1624 0.284218,-0.25035 0.03383,-0.0338 0.08793,-0.10824 0.142055,-0.11501 0.03383,0 0.277384,0.2029 0.50742,0.41265 0.03383,0.027 0.08803,0.0948 0.142159,0.0948 0.06089,0.007 0.09471,-0.0609 0.128534,-0.1083 0.07442,-0.0812 0.162348,-0.14882 0.243538,-0.23002 0.05413,-0.0609 0.128546,-0.10151 0.202968,-0.14887 0.115019,-0.0677 2.5e-5,-0.12848 -0.142057,-0.20968 -0.115016,-0.0676 -0.230046,-0.16237 -0.263878,-0.29092 -0.01353,-0.0609 0.0067,-0.14212 0.0067,-0.20978 0,-0.14884 -0.01353,-1.17723 -0.01353,-1.19076 -0.05413,-1.00134 -0.02023,3e-5 -0.02023,-1.01484 0,-0.0541 -10e-7,-0.10826 0.01353,-0.16239 0.01353,-0.0677 0.135273,-0.12855 0.08115,-0.17592 -0.02706,-0.0135 -0.169157,0.0135 -0.744248,-0.27059 -0.130132,-0.0651 -0.161973,-0.12496 -0.204102,-0.12543 z m -0.277404,1.72254 c 0,0 1.06e-4,0 1.06e-4,0 1.06e-4,-5.1e-4 4e-4,-0.002 4e-4,-0.002 -4e-4,-2e-5 -5.81e-4,2e-5 -0.001,0 -3.4e-5,1.1e-4 -5e-5,4e-4 -1.06e-4,4e-4 5.81e-4,2e-4 5.81e-4,10e-4 7.92e-4,0.002 z m -17.961695,-1.71892 c -0.04059,0 -0.07444,0.0541 -0.162395,0.15557 0,0 -0.250291,0.23001 -0.270589,0.24354 -0.09472,0.0609 -0.128532,0.0948 -0.128532,0.12183 0,0.0473 0.290927,0.12852 0.290927,0.34502 0,0.0406 -0.01353,0.0677 -0.01353,0.0948 0,0.0473 0.01353,0.0879 0.01353,0.14206 -0.0068,0.0203 -0.02034,0.0473 -0.02034,0.0676 v 0.24355 c 0,0.56832 -0.01353,0.46015 -0.01353,0.609 0,0.0947 0.0068,0.18939 0.0068,0.28411 v 0.0675 c 0,0.12178 -0.02715,0.12861 -0.02715,0.37217 0,0.28416 0.02034,0.43299 0.02034,0.53447 0,0.20974 -0.162395,0.25709 -0.162395,0.31797 0,0.0338 0.08798,0.0271 0.23683,0.1624 0.243568,0.22327 0.277374,0.33831 0.331501,0.33831 0.03383,0 0.06762,-0.0406 0.155579,-0.12853 0.372117,-0.36535 0.453322,-0.3518 0.453322,-0.41945 0,-0.0541 -0.297678,-0.12182 -0.317975,-0.33832 -0.0068,-0.0609 0.0068,-1.98243 0.0068,-2.00273 0,-0.34506 -0.0068,-0.62918 -0.0068,-0.63595 0.0068,-0.0609 0.115008,-0.0812 0.115008,-0.13535 0,-0.0338 -0.09466,-0.0608 -0.39912,-0.36525 -0.04737,-0.0541 -0.08124,-0.0744 -0.108299,-0.0744 z m 8.170113,0.39178 c 0.04706,0.001 0.308692,0.21836 0.34802,0.25769 0.128549,0.12178 0.04736,-0.007 0.101483,1.82 0,0.0473 -0.01353,0.0406 0,0.43979 0.0068,0.0406 -0.0068,-4e-5 0,0.66301 0.0068,0.13531 -0.385702,-0.26389 -0.385702,-0.26389 -0.115017,-0.12178 -0.09468,-0.0744 -0.08114,-0.46684 0.0068,-0.16238 0.0068,3e-5 -0.02705,-1.21781 0,-0.11501 0.02023,-0.0542 0.02023,-0.55481 0,-0.38565 4.2e-5,-0.66299 0.02034,-0.67652 10e-4,-3.9e-4 0.0023,-5.1e-4 0.0038,-5.1e-4 z m -6.032141,0.14939 c 0.05413,0 0.284217,0.18947 0.284217,0.32479 0,0.0271 -0.0068,0.0744 -0.0068,0.16911 0,0.10825 0.0068,0.27744 0.02705,0.57514 0,0.007 -0.0067,0.007 -0.0067,0.10148 0,0.16914 0.0067,0.29773 0.0067,0.42628 0,0.56155 -0.04057,0.54801 -0.04057,1.17723 0,0.19621 -0.14887,0.20967 -0.14887,0.20967 -0.05413,0 -0.230049,-0.14877 -0.263878,-0.2232 -0.01353,-0.0338 -0.02023,-0.25709 -0.02023,-0.48036 0,-0.58863 0.01353,-0.54132 0.01353,-0.58867 -0.0068,-0.22328 -0.0068,-0.44655 -0.0068,-0.66982 v -0.18944 -0.007 c 0,-0.0541 -0.01353,-0.25041 -0.01353,-0.43309 0,-0.10825 0.0068,-0.21641 0.02034,-0.2773 0.01353,-0.0406 0.10822,-0.11512 0.15558,-0.11512 z m 1.102798,0.0135 c 0.06766,0 0.257145,0.17593 0.297741,0.25036 0.02706,0.0677 0.03386,0.32475 0.03386,0.48037 v 0.12182 c 0.0068,0.21651 0.02023,0.42626 0.02023,0.64277 0,0.2165 -0.03387,0.39242 -0.03387,0.5548 0,0.12178 0.0068,0.42617 0.0068,0.42617 l -0.0068,0.33161 c -0.0068,0.0338 -0.08116,0.13524 -0.142057,0.13524 -0.08119,0 -0.277346,-0.20292 -0.284112,-0.20968 -0.01353,-0.027 -0.02034,-0.0542 -0.02034,-0.12182 0,-0.14885 0.01353,-0.3857 0.01353,-0.69016 0,-0.39918 -0.0067,-0.89982 -0.0067,-1.00131 0,-0.0744 0.0067,-0.14207 0.0067,-0.21649 0,-0.0609 -0.0067,-0.0338 -0.0067,-0.30445 0,-0.13532 0.0067,-0.27735 0.0067,-0.28411 0.0068,-0.0338 0.06765,-0.11512 0.11501,-0.11512 z m 7.625012,0.0203 c 0.07442,0 0.175963,0.115 0.284216,0.21648 0.10149,0.1015 0.05414,4e-5 0.07444,1.08257 0.01353,0.39918 0.02705,0.19619 0.02705,0.69686 0,0.18944 -0.0068,0.31117 -0.0068,0.3856 v 0.15568 c 0,0.32475 -0.101446,0.41264 -0.169105,0.41264 -0.06765,0 -0.277444,-0.17588 -0.297739,-0.23001 -0.01353,-0.0203 -0.01353,-0.0947 -0.01353,-0.18944 0,-0.16238 0.0068,-0.39916 0.0068,-0.62243 v -0.088 c 0,-0.27063 -0.0068,-0.27742 0,-0.52776 0,-0.11502 -0.0068,-0.22319 -0.0068,-0.33821 v -0.0813 c 0,-0.0609 0.0068,-0.12855 0.0068,-0.18944 v -0.35184 c -0.0068,-0.0406 -0.01353,-0.0811 -0.01353,-0.12171 0,-0.0541 0.027,-0.20978 0.108192,-0.20978 z m 10.047203,0 c 0.07442,0 0.175862,0.115 0.284113,0.21648 0.101487,0.1015 0.05414,4e-5 0.07444,1.08257 0.01353,0.39918 0.02705,0.19619 0.02705,0.69686 0,0.18944 -0.0068,0.31117 -0.0068,0.3856 v 0.15568 c 0,0.32475 -0.101449,0.41264 -0.169106,0.41264 -0.06766,0 -0.277339,-0.17588 -0.297637,-0.23001 -0.01353,-0.0203 -0.01353,-0.0947 -0.01353,-0.18944 0,-0.16238 0.0067,-0.39916 0.0067,-0.62243 v -0.088 c 0,-0.27063 -0.0068,-0.27742 0,-0.52776 0,-0.11502 -0.0067,-0.22319 -0.0067,-0.33821 v -0.0813 c 0,-0.0609 0.0067,-0.12855 0.0067,-0.18944 v -0.35184 c -0.0068,-0.0406 -0.01353,-0.0811 -0.01353,-0.12171 0,-0.0541 0.02711,-0.20978 0.108297,-0.20978 z m -15.26861,0.19563 c 0.05622,5.1e-4 0.191934,0.11305 0.350083,0.19678 0.07442,0.0338 0.365404,0.16913 0.3857,0.21648 0.02706,0.0609 -0.06766,0.12185 -0.08796,0.16921 -0.01353,0.0406 -0.05414,0.0608 -0.07444,0.0947 -0.169143,0.2774 -0.338312,0.50742 -0.338312,0.50742 -0.02706,0.0135 -0.189477,-0.0879 -0.223305,-0.1691 -0.02706,-0.0812 5.2e-5,-0.78485 -0.03376,-0.93369 -0.01268,-0.0592 -0.0035,-0.082 0.02199,-0.0818 z m 11.702534,0.49296 c 5.2e-5,4e-4 1.59e-4,0.001 2e-4,0.001 7.92e-4,0.001 0.0033,0.004 0.0024,0.003 -10e-4,-0.002 -0.0018,-0.003 -0.0027,-0.004 z m 0.06205,0.13876 c -5.81e-4,5.1e-4 -0.0012,10e-4 -0.0016,0.002 1.57e-4,2e-4 3.99e-4,5.3e-4 5.81e-4,0.001 3.99e-4,-0.001 7.92e-4,-0.002 0.0012,-0.003 z m 0.945668,0.21442 c 0.0271,0.004 0.02081,0.0827 0.01447,0.10169 0,0.11502 -5.2e-5,0.2233 0.0067,0.33832 v 0.1082 c 0,0.0541 0.01356,0.0947 0.02034,0.14886 0.0068,0.0541 -0.0068,0.11498 0,0.16911 0.0203,0.28416 0.0473,3e-5 0.02023,0.7172 v 0.18945 c 0,0.0203 0.01356,0.0473 0.0068,0.0676 -0.01353,0.0473 -0.05407,0.0948 -0.108194,0.10829 -0.05413,0.007 -0.182705,-0.14207 -0.236831,-0.20296 -0.04737,-0.0473 -0.07444,0.0135 -0.07444,-0.15559 0,-0.0744 0.0068,-0.15569 0.0068,-0.23012 -0.0068,-0.14208 -0.02034,-0.28409 -0.02034,-0.42616 0,-0.11503 0.02034,-0.22335 0.0068,-0.34513 -0.0068,-0.10149 -0.0068,-0.20297 -0.0068,-0.30445 0,-0.0271 -0.0067,-0.0947 0.0068,-0.11501 0.01353,-0.0203 0.169063,-0.0541 0.250252,-0.1082 0.02706,-0.0135 0.07442,-0.0542 0.101483,-0.0609 0.0021,-4e-4 0.004,-4e-4 0.0059,-2e-4 z m -12.443479,0.46416 c 0.01376,-0.002 0.02836,0.01 0.05627,0.03 0.216505,0.16237 0.155574,0.0879 0.169106,0.39241 0.0203,0.57509 0.02029,0.64267 0.02705,0.71709 0.01353,0.0947 -0.02024,0.0744 -0.196154,0 -0.520964,-0.22327 -0.514251,-0.25029 -0.575142,-0.27059 -0.04737,-0.0135 -0.06764,-5e-5 -0.02705,-0.0812 0.03383,-0.0677 0.243598,-0.38563 0.426273,-0.63595 0.07612,-0.10573 0.09673,-0.14803 0.119653,-0.15167 z" />
      <path
         d="m 44.340919,241.83932 c 0.07407,0.002 0.113958,0.019 0.119656,0.0646 0.01139,0.10636 0.0152,0.25641 0.0152,0.50332 0,0.28488 -0.0038,0.43493 -0.0152,0.54129 -0.0057,0.0455 -0.04368,0.0627 -0.115858,0.0646 v 0.0455 c 0.06078,-0.006 0.104462,-0.006 0.161441,-0.006 0.03798,0 0.09497,0.008 0.134849,0.0133 0.04938,0.008 0.115858,0.0133 0.155743,0.0133 0.436838,0 0.776812,-0.23361 0.776812,-0.70654 0,-0.38935 -0.260204,-0.60018 -0.70274,-0.60018 -0.05508,0 -0.117756,0.006 -0.169037,0.0114 -0.09686,0.0114 -0.151943,0.0152 -0.205124,0.0152 -0.05698,0 -0.09117,0 -0.155742,-0.006 z m 0.51281,1.15288 c -0.07407,0 -0.138649,-0.019 -0.169037,-0.0493 -0.03229,-0.0323 -0.05318,-0.0855 -0.05318,-0.53561 0,-0.22032 0.0019,-0.36466 0.0095,-0.5223 0.05698,-0.0114 0.125354,-0.019 0.174736,-0.019 0.40455,0 0.556494,0.21082 0.556494,0.54319 0,0.30769 -0.150045,0.58309 -0.518508,0.58309 z"
         style="font-size:9.11291px;-inkscape-font-specification:Seshat;fill:#000000;fill-opacity:1;stroke-width:0.264583"
         id="path34557" />
      <path
         d="m 46.470027,242.65412 c 0,-0.19943 0.0038,-0.27919 0.01329,-0.37796 l -0.0057,-0.01 c -0.08737,0.0228 -0.18803,0.0304 -0.29629,0.0323 v 0.0474 c 0.09496,0.004 0.13295,0.0133 0.140548,0.0703 0.0095,0.0779 0.01139,0.12916 0.01139,0.23742 0,0.23171 -0.100662,0.30959 -0.189929,0.30959 -0.108259,0 -0.169037,-0.0436 -0.169037,-0.2906 0,-0.19942 0.0038,-0.29818 0.01329,-0.39695 l -0.0057,-0.01 c -0.08737,0.0228 -0.188029,0.0304 -0.29629,0.0323 v 0.0474 c 0.09497,0.004 0.132951,0.0133 0.140548,0.0703 0.0095,0.0779 0.01139,0.14813 0.01139,0.2564 0,0.0247 0,0.0513 -0.0038,0.15384 -0.0057,0.15574 0.09307,0.2526 0.258304,0.2526 0.115856,0 0.208923,-0.0684 0.24311,-0.18233 0.0038,0.0836 0.0095,0.12155 0.02089,0.17474 l 0.0076,0.008 c 0.07217,-0.0228 0.131051,-0.0304 0.243109,-0.0304 v -0.0455 c -0.06647,-0.002 -0.102562,-0.0266 -0.115856,-0.0722 -0.01519,-0.0532 -0.02089,-0.10066 -0.02089,-0.22981 z"
         style="font-size:9.11291px;-inkscape-font-specification:Seshat;fill:#000000;fill-opacity:1;stroke-width:0.264583"
         id="path34559" />
      <path
         d="m 47.562119,243.01309 c -0.07217,-0.002 -0.119656,-0.019 -0.121555,-0.0646 -0.0057,-0.10636 -0.0057,-0.26401 -0.0019,-0.42924 0.0038,-0.15574 -0.09307,-0.25261 -0.258303,-0.25261 -0.119656,0 -0.214621,0.0798 -0.246908,0.19373 -0.0038,-0.0703 -0.0095,-0.13675 -0.01519,-0.18423 l -0.0057,-0.01 c -0.08737,0.0228 -0.153843,0.0304 -0.262103,0.0323 v 0.0474 c 0.09497,0.004 0.132951,0.0133 0.140548,0.0703 0.0095,0.0779 0.01139,0.17094 0.01139,0.25641 0,0.11396 -0.0038,0.16905 -0.01519,0.2754 -0.0057,0.0455 -0.05129,0.0627 -0.123454,0.0646 v 0.0455 c 0.06268,-0.006 0.138648,-0.006 0.207023,-0.006 0.06837,0 0.144346,0 0.208922,0.006 v -0.0455 c -0.07407,-0.002 -0.119655,-0.019 -0.125353,-0.0646 -0.0095,-0.0836 -0.0152,-0.18234 -0.0152,-0.25641 0,-0.21271 0.100663,-0.30958 0.18993,-0.30958 0.10826,0 0.172836,0.0608 0.170937,0.22031 -0.0019,0.21273 -0.0057,0.35707 -0.019,0.44635 l 0.0038,0.008 c 0.02849,-0.004 0.05888,-0.004 0.09117,-0.004 0.06838,0 0.123455,0 0.186131,0.006 z"
         style="font-size:9.11291px;-inkscape-font-specification:Seshat;fill:#000000;fill-opacity:1;stroke-width:0.264583"
         id="path34561" />
      <path
         d="m 48.179387,242.30085 c -0.0228,0 -0.04748,-0.002 -0.07977,-0.0133 -0.03608,-0.0133 -0.07407,-0.0209 -0.129151,-0.0209 -0.16524,0 -0.315284,0.0893 -0.315284,0.28489 0,0.12345 0.07217,0.20512 0.186132,0.23551 -0.03229,0.0266 -0.05508,0.0418 -0.08167,0.0608 -0.019,0.0152 -0.03039,0.0304 -0.03039,0.0474 0,0.0323 0.01519,0.0551 0.04368,0.0741 -0.05888,0.0703 -0.129152,0.14435 -0.184232,0.18993 l -0.0038,0.008 c 0,0.14625 0.142448,0.24881 0.300088,0.24881 0.195628,0 0.433041,-0.10826 0.433041,-0.31149 0,-0.16903 -0.123455,-0.21462 -0.311485,-0.22412 -0.08167,-0.004 -0.115857,-0.019 -0.115857,-0.0474 0,-0.0114 0.0057,-0.0228 0.019,-0.0342 0.01329,0.002 0.02659,0.002 0.03989,0.002 0.178533,0 0.315283,-0.10256 0.315283,-0.2678 0,-0.0608 -0.01519,-0.11585 -0.04368,-0.15574 h 0.138648 c 0,-0.0285 0.0019,-0.0494 0.0057,-0.076 z m -0.214621,0.42734 c -0.10636,0 -0.161439,-0.0798 -0.161439,-0.18993 0,-0.13675 0.06458,-0.19753 0.148144,-0.19753 0.13485,0 0.170938,0.11966 0.170938,0.21083 0,0.11016 -0.06268,0.17663 -0.157643,0.17663 z m 0.205124,0.42924 c 0,0.13106 -0.113957,0.18613 -0.231714,0.18613 -0.121554,0 -0.205123,-0.0874 -0.205123,-0.18613 0,-0.0627 0.04369,-0.11586 0.112058,-0.16144 0.03798,0.0114 0.08927,0.0171 0.148145,0.0209 0.125353,0.008 0.176634,0.0589 0.176634,0.14054 z"
         style="font-size:9.11291px;-inkscape-font-specification:Seshat;fill:#000000;fill-opacity:1;stroke-width:0.264583"
         id="path34563" />
      <path
         d="m 49.072055,243.00169 0.02089,-0.0817 -0.0076,-0.008 c -0.05698,0.0399 -0.129152,0.0665 -0.193728,0.0665 -0.189929,0 -0.279196,-0.11586 -0.288693,-0.30199 0.05318,-0.002 0.102562,-0.004 0.170937,-0.004 0.09306,0 0.155742,0 0.231714,0.002 0.06837,0.002 0.115857,-0.0247 0.115857,-0.0513 0,-0.22031 -0.121555,-0.35706 -0.288693,-0.35706 -0.237412,0 -0.385557,0.18043 -0.385557,0.44823 0,0.22222 0.131052,0.36467 0.366564,0.36467 0.08927,0 0.13675,-0.0133 0.193728,-0.0437 z m -0.467226,-0.39125 c 0.0095,-0.14815 0.07597,-0.2621 0.180432,-0.2621 0.11016,0 0.180434,0.11205 0.180434,0.2412 -0.05129,0.0171 -0.117756,0.0247 -0.197527,0.0247 -0.05508,0 -0.110159,-0.002 -0.163339,-0.004 z"
         style="font-size:9.11291px;-inkscape-font-specification:Seshat;fill:#000000;fill-opacity:1;stroke-width:0.264583"
         id="path34565" />
      <path
         d="m 49.643739,242.26666 c -0.214621,0 -0.381758,0.16145 -0.381758,0.41025 0,0.25831 0.136749,0.40266 0.358967,0.40266 0.21462,0 0.381758,-0.16144 0.381758,-0.41026 0,-0.2583 -0.136749,-0.40265 -0.358967,-0.40265 z m -0.01329,0.73313 c -0.127253,0 -0.205123,-0.14435 -0.205123,-0.33997 0,-0.21462 0.08927,-0.31338 0.208922,-0.31338 0.127253,0 0.205123,0.14434 0.205123,0.33996 0,0.21462 -0.08927,0.31339 -0.208922,0.31339 z"
         style="font-size:9.11291px;-inkscape-font-specification:Seshat;fill:#000000;fill-opacity:1;stroke-width:0.264583"
         id="path34567" />
      <path
         d="m 50.999834,243.01309 c -0.07217,-0.002 -0.119656,-0.019 -0.121554,-0.0646 -0.0057,-0.10636 -0.0057,-0.26401 -0.0019,-0.42924 0.0038,-0.15574 -0.09307,-0.25261 -0.258304,-0.25261 -0.119656,0 -0.214621,0.0798 -0.246909,0.19373 -0.0038,-0.0703 -0.0095,-0.13675 -0.01519,-0.18423 l -0.0057,-0.01 c -0.08737,0.0228 -0.153842,0.0304 -0.262102,0.0323 v 0.0474 c 0.09496,0.004 0.13295,0.0133 0.140547,0.0703 0.0095,0.0779 0.01139,0.17094 0.01139,0.25641 0,0.11396 -0.0038,0.16905 -0.01519,0.2754 -0.0057,0.0455 -0.05129,0.0627 -0.123455,0.0646 v 0.0455 c 0.06268,-0.006 0.13865,-0.006 0.207024,-0.006 0.06837,0 0.144346,0 0.208922,0.006 v -0.0455 c -0.07408,-0.002 -0.11966,-0.019 -0.125357,-0.0646 -0.0095,-0.0836 -0.0152,-0.18234 -0.0152,-0.25641 0,-0.21272 0.100663,-0.30958 0.18993,-0.30958 0.10826,0 0.172836,0.0608 0.170937,0.22031 -0.0019,0.21273 -0.0057,0.35707 -0.019,0.44635 l 0.0038,0.008 c 0.02849,-0.004 0.05888,-0.004 0.09117,-0.004 0.06837,0 0.123453,0 0.18613,0.006 z"
         style="font-size:9.11291px;-inkscape-font-specification:Seshat;fill:#000000;fill-opacity:1;stroke-width:0.264583"
         id="path34569" />
      <path
         d="m 51.562022,242.46989 c 0.0038,-0.0437 0.01329,-0.0893 0.02659,-0.13105 -0.03798,-0.0418 -0.112058,-0.0722 -0.191828,-0.0722 -0.176635,0 -0.286794,0.11207 -0.286794,0.23742 0,0.11586 0.06838,0.18993 0.205124,0.23171 0.09497,0.0285 0.129152,0.0722 0.129152,0.13865 0,0.0874 -0.06648,0.13674 -0.144346,0.13674 -0.04368,0 -0.08167,-0.01 -0.119656,-0.0341 -0.02089,-0.0133 -0.03988,-0.0475 -0.03988,-0.0988 l -0.05508,0.004 c -0.0038,0.0436 -0.01329,0.0931 -0.02659,0.13675 0.06268,0.0399 0.13675,0.0608 0.207024,0.0608 0.167137,0 0.317182,-0.10447 0.317182,-0.2735 0,-0.0931 -0.04748,-0.15385 -0.203225,-0.20512 -0.09686,-0.0323 -0.138649,-0.0703 -0.138649,-0.15005 0,-0.0608 0.04558,-0.11396 0.117756,-0.11396 0.05508,0 0.09117,0.0152 0.123455,0.0474 0.01899,0.019 0.02469,0.0513 0.02469,0.0855 z"
         style="font-size:9.11291px;-inkscape-font-specification:Seshat;fill:#000000;fill-opacity:1;stroke-width:0.264583"
         id="path34571" />
      <path
         d="m 52.51926,242.26666 c -0.21462,0 -0.381758,0.16145 -0.381758,0.41025 0,0.25831 0.13675,0.40266 0.358967,0.40266 0.214621,0 0.381759,-0.16144 0.381759,-0.41026 0,-0.2583 -0.136749,-0.40265 -0.358968,-0.40265 z m -0.01329,0.73313 c -0.127253,0 -0.205124,-0.14435 -0.205124,-0.33997 0,-0.21462 0.08927,-0.31338 0.208923,-0.31338 0.127254,0 0.205123,0.14434 0.205123,0.33996 0,0.21462 -0.08927,0.31339 -0.208922,0.31339 z"
         style="font-size:9.11291px;-inkscape-font-specification:Seshat;fill:#000000;fill-opacity:1;stroke-width:0.264583"
         id="path34573" />
      <path
         d="m 53.125134,242.30085 c -0.02469,0.0114 -0.06837,0.0266 -0.100662,0.0323 v 0.0418 h 0.10446 v 0.0133 c 0,0.36087 -0.0038,0.45393 -0.01518,0.56029 -0.0057,0.0455 -0.05129,0.0627 -0.123454,0.0646 v 0.0455 c 0.06268,-0.006 0.138649,-0.006 0.207024,-0.006 0.06838,0 0.144346,0 0.208921,0.006 v -0.0455 c -0.07407,-0.002 -0.119656,-0.019 -0.125353,-0.0646 -0.01138,-0.10636 -0.01518,-0.19942 -0.01518,-0.56029 v -0.0133 h 0.186131 c 0,-0.0209 0.0038,-0.0532 0.0076,-0.0741 h -0.197526 v -0.28489 c 0,-0.15764 0.03799,-0.23552 0.138647,-0.23552 0.04558,0 0.07407,0.01 0.102563,0.0342 0.02279,0.019 0.04368,0.0494 0.03989,0.0931 l 0.05698,-0.004 c 0.01329,-0.0551 0.03229,-0.11586 0.05698,-0.17093 -0.04558,-0.0361 -0.110158,-0.0532 -0.182333,-0.0532 -0.163339,0 -0.349469,0.14244 -0.349469,0.40455 z"
         style="font-size:9.11291px;-inkscape-font-specification:Seshat;fill:#000000;fill-opacity:1;stroke-width:0.264583"
         id="path34575" />
    </g>
    <text
       xml:space="preserve"
       style="font-style:normal;font-variant:normal;font-weight:normal;font-stretch:normal;font-size:3.175px;line-height:1.25;font-family:Seshat;-inkscape-font-specification:Seshat;letter-spacing:0.00264583px;display:inline;fill:#000000;fill-opacity:1;stroke:none;stroke-width:0.264583"
       x="-57.298595"
       y="193.67844"
       id="mediumText"><tspan
         sodipodi:role="line"
         style="font-style:normal;font-variant:normal;font-weight:normal;font-stretch:normal;font-size:3.175px;font-family:Seshat;-inkscape-font-specification:Seshat;stroke-width:0.264583"
         x="-57.298595"
         y="193.67844"
         id="tspan11882">mediumText</tspan></text>
    <g
       id="attackSymbol"
       transform="matrix(1.1666667,0,0,1.1666667,-50.650098,196.69021)"
       style="display:inline;stroke-width:0.857143">
      <rect
         style="fill:#00d400;fill-opacity:0.712251;stroke:none;stroke-width:0.349716"
         id="rect50822-7"
         height="3.4285715"
         x="-4.4506698"
         y="-1.6441964"
         width="2.2285714" />
      <path
         id="rect51166-0"
         style="display:inline;fill:#000000;fill-opacity:1;stroke:none;stroke-width:0.42857;stroke-miterlimit:4;stroke-dasharray:none;stroke-dashoffset:0;stroke-opacity:1"
         d="m -3.0024475,-0.44167136 v 0.1956752 l -1.0039488,1.00433625 -0.2390725,-0.23907232 -0.2041993,0.20381214 0.4316474,0.43164759 -0.3615145,0.3615146 0.1979999,0.198 0.3615146,-0.3615146 0.4316477,0.4316476 0.2038122,-0.2041996 -0.2390724,-0.2390723 1.0043364,-1.00394888 h 0.1956751 v -0.77882568 z" />
    </g>
    <g
       id="defenseSymbol"
       transform="matrix(1.1666667,0,0,1.1666667,-42.995435,36.618426)"
       style="display:inline;stroke-width:0.857143">
      <rect
         style="fill:#00d400;fill-opacity:0.712251;stroke:none;stroke-width:0.349716"
         id="rect37620-1"
         width="2.2285714"
         height="3.4285712"
         x="-6.0937452"
         y="135.34506" />
      <path
         id="path37796-7"
         style="display:inline;fill:#000000;stroke:none;stroke-width:0.227142;stroke-linecap:butt;stroke-linejoin:miter;stroke-miterlimit:4;stroke-dasharray:none;stroke-opacity:1"
         d="m -6.0354624,136.56149 c 1.933e-4,0.002 2.487e-4,0.004 4.521e-4,0.005 0.00483,0.32594 -0.00285,0.63536 0.00133,0.91528 3.617e-4,0.0243 3.165e-4,0.0499 8.813e-4,0.0738 -1.173e-4,0.002 -3.618e-4,0.004 -4.522e-4,0.005 0.1052652,0.56757 0.5620238,0.97555 1.054471,1.21306 0.4716716,-0.29623 1.0373901,-0.77278 1.0531465,-1.21306 -7.85e-5,-0.002 -3.391e-4,-0.003 -4.523e-4,-0.005 0.00714,-0.29837 -0.00305,-0.63504 0.00222,-0.9895 1.895e-4,-0.002 2.488e-4,-0.004 4.522e-4,-0.005 -1.302e-4,2e-5 -3.165e-4,-3e-5 -4.522e-4,0 -1.099e-4,6e-5 -3.392e-4,-7e-5 -4.522e-4,0 -0.2803526,0.0553 -0.7341135,0.30308 -1.0551355,0.30308 -0.3210219,0 -0.7747925,-0.24776 -1.0551472,-0.30308 -1.357e-4,-3e-5 -3.166e-4,2e-5 -4.522e-4,0 -1.357e-4,-3e-5 -3.165e-4,2e-5 -4.522e-4,0 z"
         sodipodi:nodetypes="ccsccccccccccsscc" />
    </g>
    <g
       id="pearlSymbol"
       transform="matrix(1.1666667,0,0,1.1666667,-42.431612,59.28455)"
       style="display:inline;stroke-width:0.857143">
      <rect
         style="fill:#00d400;fill-opacity:0.712251;stroke:none;stroke-width:0.349716"
         id="rect37620-1-9"
         width="2.2285714"
         height="3.4285712"
         x="-6.0937452"
         y="135.34529" />
      <circle
         style="display:inline;fill:#cccccc;fill-opacity:1;stroke:none;stroke-width:0.214286;stroke-linecap:round;stroke-miterlimit:4;stroke-dasharray:none;paint-order:stroke fill markers"
         id="path63686"
         cx="-4.9823675"
         cy="137.66249"
         r="1.1113775" />
    </g>
    <g
       id="rangeSymbol"
       transform="matrix(1.1666667,0,0,1.1666667,-43.182524,43.489321)"
       style="display:inline;stroke-width:0.857143">
      <rect
         style="fill:#00d400;fill-opacity:0.712251;stroke:none;stroke-width:0.349716"
         id="rect37620-1-0"
         width="2.2285714"
         height="3.4285712"
         x="-6.0937452"
         y="135.34529" />
      <path
         id="path65015"
         style="color:#000000;display:inline;fill:#000000;stroke-width:0.857143;stroke-linecap:square;-inkscape-stroke:none;paint-order:stroke fill markers"
         d="m -6.0943584,136.9527 0.2108136,0.2108 -0.1152119,1.17338 -0.084753,0.0228 0.1142276,0.11422 0.032106,0.15088 0.1490092,0.0302 0.097374,0.0974 0.019805,-0.0737 1.1903693,-0.11213 0.2073245,0.20731 0.1294789,-0.12947 c 0.1941281,-0.19413 0.2392102,-0.48022 0.1811087,-0.75522 -0.052765,-0.24973 -0.1867791,-0.50305 -0.3895103,-0.72605 l 0.1203841,-0.12037 0.1795084,0.1795 0.08935,-0.33441 0.089624,-0.33411 -0.3341322,0.0896 -0.3344017,0.0894 0.1803089,0.18032 -0.1203839,0.12037 c -0.2231243,-0.20299 -0.4763779,-0.33696 -0.7263188,-0.38976 -0.2749888,-0.058 -0.5624132,-0.0144 -0.7565429,0.17976 z m 0.382019,0.13589 0.00642,-0.006 c 0.086713,-0.0867 0.2288457,-0.12129 0.4205444,-0.0808 0.1699962,0.036 0.3671732,0.13462 0.5441312,0.29106 l -0.9819712,0.97061 -0.091989,0.0247 -0.00648,0.002 z m 0.117541,1.30554 0.9830423,-0.97168 c 0.155962,0.17663 0.2541056,0.37272 0.2899802,0.54252 0.040502,0.19171 0.00591,0.33384 -0.080788,0.42055 l -0.00883,0.009 -1.2120397,0.10706 0.00455,-0.0173 z"
         sodipodi:nodetypes="cccccccccccssccccccccccccccccccccccsscccc" />
    </g>
    <g
       id="g66037"
       transform="matrix(0.94200814,0,0,0.94213573,-1.4656669,11.427449)"
       style="stroke-width:1.06149" />
    <g
       id="healSymbol"
       transform="matrix(1.1666667,0,0,1.1666667,-43.114976,50.414895)"
       style="display:inline;stroke-width:0.857143">
      <rect
         style="fill:#00d400;fill-opacity:0.712251;stroke:none;stroke-width:0.349716"
         id="rect37620-1-0-2"
         width="2.2285714"
         height="3.4285712"
         x="-6.0937452"
         y="135.34529" />
      <path
         id="path70253"
         style="display:inline;fill:#000000;fill-opacity:1;stroke:none;stroke-width:0.214286;stroke-linecap:square;stroke-miterlimit:4;stroke-dasharray:none;paint-order:stroke fill markers"
         d="m -4.2746313,136.54942 -0.1202466,0.19449 -0.027169,-0.0271 c -0.019232,-0.0193 -0.050171,-0.0193 -0.069404,0 l -0.1089472,0.10895 c -0.019232,0.0193 -0.019233,0.0501 -9e-7,0.0693 l 0.035777,0.0359 -0.1511812,0.15118 a 0.91001248,0.91001248 0 0 0 -1.1083093,0.13827 0.91001248,0.91001248 0 0 0 -7e-7,1.28693 0.91001248,0.91001248 0 0 0 1.2869309,0 0.91001248,0.91001248 0 0 0 0.1388072,-1.1083 l 0.1509125,-0.15092 0.035509,0.0355 c 0.019232,0.0193 0.050173,0.0193 0.069405,0 l 0.1089471,-0.10895 c 0.019232,-0.0193 0.01923,-0.0501 -4e-7,-0.0693 l -0.02717,-0.0271 0.1944925,-0.12023 z" />
    </g>
    <g
       id="specialSymbol"
       transform="matrix(1.1666667,0,0,1.1666667,-42.647254,66.95685)"
       style="display:inline;stroke-width:0.857143">
      <rect
         style="fill:#00d400;fill-opacity:0.712251;stroke:none;stroke-width:0.349716"
         id="rect37620-1-0-2-9"
         width="2.2285714"
         height="3.4285712"
         x="-6.0937452"
         y="135.34529" />
      <path
         style="fill:#000000;stroke-width:0.214286;stroke-linecap:square;paint-order:stroke fill markers"
         id="path16097"
         d="m -4.2004008,138.45102 -0.5260849,-0.16841 -0.2529764,0.49125 -0.2529712,-0.49125 -0.5260902,0.16841 0.1683279,-0.52597 -0.4910233,-0.25288 0.4910233,-0.25289 -0.1683279,-0.52649 0.5260902,0.16842 0.2529712,-0.49074 0.2529764,0.49074 0.5260849,-0.16842 -0.1683226,0.52649 0.4910233,0.25289 -0.4910233,0.25288 z" />
    </g>
    <g
       id="titleSeparator"
       transform="matrix(1.1666667,0,0,1.1666667,-41.046527,15.986141)"
       style="display:inline;stroke-width:0.857143">
      <rect
         style="fill:#00d400;fill-opacity:0.712251;stroke:none;stroke-width:0.349715"
         id="rect37620-1-0-3"
         width="12.866238"
         height="3.4285712"
         x="-6.1446042"
         y="135.34529" />
      <path
         id="path10237"
         style="display:inline;fill:#000000;stroke:none;stroke-width:0.0302379"
         d="m 3.6473202,136.6069 c -0.00771,0 -0.1219937,0.10642 -0.2517677,0.23879 l -0.2387648,0.23877 -0.2050414,-0.19984 -0.2076643,-0.19986 c 12.82209,0 0.4507868,0 -5.6425653,0 l -0.2362183,0.22062 -0.238764,0.22064 -0.2388034,-0.2388 -0.2413492,-0.24139 -0.2206294,0.22062 -0.2180443,0.21801 -0.1245523,-0.10642 c -0.2258082,-0.18946 -0.3763671,-0.24917 -0.6566794,-0.26215 -0.2076385,-0.008 -0.2699383,2e-5 -0.3971185,0.0467 -0.7059737,0.26474 -0.8928403,1.17835 -0.3425966,1.68447 0.4023017,0.37115 1.0174345,0.36859 1.3911857,-0.008 l 0.1142117,-0.11681 0.2283848,0.2258 0.2258383,0.22581 0.2413492,-0.2388 0.2388034,-0.23877 0.2335946,0.21801 0.2335928,0.21804 c 6.088625,0.002 18.4739582,0.002 5.6503602,0.002 l 0.2362174,-0.22322 0.2335946,-0.22321 0.2102108,0.21025 0.2102503,0.21021 0.2206286,-0.22059 0.2231768,-0.22064 0.1505597,0.14536 c 0.4204689,0.40749 1.0407806,0.41528 1.4430814,0.0105 0.5865797,-0.58399 0.2491715,-1.59884 -0.5658111,-1.70786 -0.3114591,-0.0441 -0.5632123,0.0311 -0.8201648,0.23881 l -0.1505589,0.12458 -0.2387648,-0.23617 c -0.1297749,-0.12979 -0.2439918,-0.23623 -0.2491818,-0.23623 z m -0.01296,0.28552 0.1686952,0.16869 0.168732,0.1687 -0.163524,0.16094 -0.1609372,0.16351 -0.1686942,-0.16872 -0.1686943,-0.16611 0.1609003,-0.16352 z m -6.4913201,0.0259 c 6.1825979,0 18.3566859,0 5.5309773,0 l 0.168732,0.15314 0.1686943,0.15573 -0.2128354,0.21542 -0.2154206,0.21543 0.2413886,0.24138 0.2387648,0.24139 -0.2024563,0.19466 -0.2050405,0.19207 c 12.8259907,0 0.7445914,0 -5.4790808,0 l -0.1972465,-0.19466 -0.1972475,-0.19207 0.2128363,-0.21542 0.2154197,-0.21543 -0.2128354,-0.21283 -0.2154206,-0.21542 0.1816972,-0.1817 z m 7.8195444,0.004 c 0.103824,0.002 0.2108786,0.0159 0.2835523,0.0405 0.173898,0.0597 0.3997354,0.28551 0.459432,0.4594 0.023357,0.07 0.0441,0.19987 0.0441,0.28812 0,0.23878 -0.062297,0.39189 -0.2310086,0.5606 -0.1687071,0.16871 -0.3218186,0.231 -0.5606031,0.231 -0.23619,0 -0.3841552,-0.0596 -0.5684349,-0.23617 l -0.1583143,-0.15056 0.2335938,-0.2336 0.2335945,-0.23617 -0.2050414,-0.20504 -0.2050414,-0.20505 0.098629,-0.0882 c 0.116796,-0.1012 0.2050423,-0.15835 0.3114583,-0.19728 0.059691,-0.0208 0.160266,-0.0298 0.2640857,-0.0276 z m -10.1327475,0.002 c 0.1492637,-0.003 0.3120908,0.0221 0.4029334,0.0691 0.062289,0.0311 0.1583203,0.0986 0.2154197,0.15052 l 0.1037932,0.0935 -0.2205909,0.22321 c -0.1219877,0.12458 -0.2232137,0.2362 -0.2232137,0.24918 0,0.0156 0.098638,0.12457 0.2206294,0.24655 l 0.22059,0.21802 -0.093411,0.0961 c -0.1479438,0.15054 -0.3010775,0.21543 -0.5450529,0.22581 -0.1713026,0.008 -0.2362131,2e-5 -0.3348411,-0.0441 -0.199854,-0.0882 -0.3140597,-0.19728 -0.4074969,-0.38675 -0.1090114,-0.22321 -0.1167823,-0.45938 -0.023349,-0.67481 0.072669,-0.16351 0.2906906,-0.37115 0.4490143,-0.43084 0.061311,-0.0224 0.1460109,-0.0339 0.235572,-0.0355 z m 1.3165508,0.0458 c 0.00771,0 0.08304,0.07 0.1686934,0.15832 l 0.1557301,0.15572 -0.1375552,0.12976 -0.1401797,0.12718 -0.1634854,-0.14793 -0.1661477,-0.15052 0.13497,-0.13759 c 0.072677,-0.0727 0.1401882,-0.13494 0.1479745,-0.13494 z m 3.66169285,0.11577 c -0.067286,3.8e-4 -0.1376314,0.0122 -0.209718,0.0373 -0.1687063,0.0597 -0.347796,0.2362 -0.3893237,0.38673 -0.036343,0.13497 -0.031157,0.32962 0.010354,0.43084 0.173898,0.41789 0.726732,0.52689 1.0329994,0.20505 0.39639937,-0.41702 0.062571,-1.06259 -0.4443377,-1.05995 z m -1.61550175,0.005 c -0.040243,3e-4 -0.081343,0.004 -0.1229563,0.0119 -0.2906957,0.0544 -0.4957414,0.31405 -0.4957414,0.62551 0,0.15313 0.044117,0.26735 0.15573,0.39453 0.2439754,0.27772 0.651492,0.2855 0.9084463,0.0207 0.1894706,-0.19726 0.2335843,-0.45161 0.119382,-0.69298 -0.1048337,-0.22975 -0.31893,-0.36172 -0.5648606,-0.35971 z m 3.2218405,4.4e-4 c -0.0411,-2.9e-4 -0.082551,0.003 -0.1237928,0.0114 -0.39191918,0.0753 -0.60735088,0.50356 -0.43604918,0.86952 0.14794288,0.31925 0.53467288,0.45419 0.84613118,0.29587 0.1193923,-0.0623 0.2465948,-0.19727 0.2959088,-0.31666 0.051909,-0.11939 0.05448,-0.35817 0.00514,-0.47237 -0.098136,-0.23419 -0.3362083,-0.38598 -0.5873683,-0.3878 z m 1.7345794,0.29436 c 0.00523,0 0.09085,0.0727 0.1920772,0.16094 l 0.1816585,0.16352 -0.1479351,0.13756 -0.1505211,0.14013 -0.1713163,-0.17128 -0.1712803,-0.17132 0.129762,-0.12976 c 0.07008,-0.07 0.1323651,-0.12979 0.1375551,-0.12979 z m -7.4334915,0.003 0.1427665,0.13235 c 0.08046,0.0753 0.1479515,0.13756 0.153144,0.13756 0.00257,0.003 -0.067491,0.0831 -0.153144,0.17911 l -0.1609397,0.1739 -0.1531054,-0.15056 -0.1505589,-0.14794 0.1609389,-0.16352 z m 8.4120092,0 0.137556,0.13493 0.13497,0.13239 -0.147972,0.15051 -0.150522,0.15057 -0.142764,-0.14535 -0.1427263,-0.14276 0.1557292,-0.14015 z m -7.5139404,0.0494 c 0.00771,0 0.077863,0.0648 0.1557291,0.14272 l 0.1401412,0.14277 -0.1271769,0.12976 c -0.07008,0.07 -0.140166,0.12981 -0.153144,0.12981 -0.015574,0 -0.088257,-0.0597 -0.163524,-0.13498 l -0.1375551,-0.13497 0.13497,-0.13756 c 0.075274,-0.0753 0.1427734,-0.13755 0.1505597,-0.13755 z m -0.4723971,0.41525 c 0.00523,0 0.080469,0.0597 0.1635231,0.13239 0.085654,0.0727 0.1531449,0.14533 0.1531449,0.1609 0,0.0389 -0.2621572,0.3037 -0.2984949,0.3037 -0.015566,0 -0.090829,-0.0649 -0.1686934,-0.14277 l -0.1401797,-0.14276 0.062323,-0.07 c 0.1297749,-0.14794 0.2180032,-0.24138 0.2283849,-0.24138 z m 7.5476647,0 c 0.015574,0 0.077889,0.0597 0.1401797,0.13239 l 0.111588,0.13234 -0.147936,0.14535 -0.1453492,0.14797 -0.1349708,-0.13758 -0.137556,-0.13494 0.1427648,-0.14276 c 0.077863,-0.0779 0.1531115,-0.14277 0.1712795,-0.14277 z"
         sodipodi:nodetypes="cccccccccccccccccccccccccccccccccccccscccccccccccccccccccccccccccccscsssccccccccssscccsccccccccsssccccccssscccsssscccsscccccssccccccssccccccccccccccccccscccscccssccscccssccccccsssc" />
    </g>
    <g
       id="g13001"
       style="display:inline"
       transform="translate(41.365632,7.2023125)" />
    <g
       id="entranceSymbol"
       transform="translate(46.011739,7.1871465)"
       style="display:inline">
      <rect
         style="display:inline;fill:#00d400;fill-opacity:0.712251;stroke:none;stroke-width:0.408002"
         id="rect37620-1-0-2-1-0-1-6"
         width="3.5"
         height="3.5000002"
         x="-74.410561"
         y="177.78496" />
      <rect
         style="display:inline;fill:#ffffff;fill-opacity:1;stroke:none;stroke-width:0.408002"
         id="rect22053-7"
         width="3.5"
         height="3.5000002"
         x="-74.410561"
         y="177.78496" />
    </g>
    <g
       id="stairsSymbol"
       transform="matrix(1.1666667,0,0,1.1666667,-31.03386,39.593256)"
       style="display:inline;stroke-width:0.857143">
      <rect
         style="fill:#00d400;fill-opacity:0.712251;stroke:none;stroke-width:0.349716"
         id="rect37620-1-8"
         width="2.2285714"
         height="3.4285712"
         x="-6.0937452"
         y="135.34506" />
      <path
         id="rect21441"
         style="display:inline;fill:#000000;stroke:none;stroke-width:0.145715;stroke-linecap:butt;paint-order:stroke fill markers"
         d="m -4.6032747,136.55999 v 0.73788 h -0.7378912 v 0.73788 h -0.7378887 v 0.73789 h 0.7378887 0.7378912 0.7381009 v -0.73789 -0.73788 -0.73788 z" />
    </g>
    <g
       id="doorSymbol"
       transform="matrix(1.1666667,0,0,1.1666667,-26.977919,39.370238)"
       style="display:inline;stroke-width:0.857143">
      <rect
         style="fill:#00d400;fill-opacity:0.712251;stroke:none;stroke-width:0.349716"
         id="rect37620-1-8-0"
         width="2.2285714"
         height="3.4285712"
         x="-6.0937452"
         y="135.34506" />
      <path
         id="path1216"
         style="display:inline;fill:#000000;stroke-width:0.145714;paint-order:stroke fill markers"
         d="m -4.9792821,136.51764 a 1.10128,1.3172123 0 0 0 -1.1014288,1.3172 1.10128,1.3172123 0 0 0 0.3313384,0.93879 h 0.083745 a 0.86991851,1.1788496 0 0 1 -0.042961,-0.0861 h 1.4582571 a 0.86991851,1.1788496 0 0 1 -0.042961,0.0861 h 0.083745 a 1.10128,1.3172123 0 0 0 0.3313392,-0.93879 1.10128,1.3172123 0 0 0 -1.1010664,-1.3172 z m 0,0.35421 a 0.86991851,1.1788496 0 0 1 0.8607534,1.00797 H -5.840398 a 0.86991851,1.1788496 0 0 1 0.8611159,-1.00797 z m -0.8698553,1.18438 h 1.7393489 a 0.86991851,1.1788496 0 0 1 -0.00698,0.13871 h -1.7255149 a 0.86991851,1.1788496 0 0 1 -0.00698,-0.13871 z m 0.033485,0.31512 h 1.6723511 a 0.86991851,1.1788496 0 0 1 -0.035687,0.13838 h -1.6009872 a 0.86991851,1.1788496 0 0 1 -0.035687,-0.13838 z" />
    </g>
    <g
       id="extrasHeader"
       style="display:inline"
       transform="translate(-1.0012341,14.538462)">
      <rect
         style="display:inline;fill:#ff0000;fill-opacity:0.3;stroke-width:1"
         width="59.333"
         height="12.296644"
         x="21.440203"
         y="240.68848"
         id="rect14133-5" />
      <path
         id="path2348-3"
         style="font-size:33.8662px;font-family:JustLetters;-inkscape-font-specification:JustLetters;fill:#cccccc;fill-opacity:1;stroke-width:0.264583"
         d="m 39.699279,240.77594 -3.50083,2.92011 -0.05286,5.84012 c -0.757968,-0.97609 -1.136865,-2.0394 -1.136865,-3.18998 0,-0.94882 0.256234,-1.82678 0.768818,-2.63383 0.39807,-0.62709 1.003369,-1.21597 1.815868,-1.76672 l -0.196361,-0.22909 c -1.243287,0.74706 -2.14297,1.51598 -2.699178,2.30666 -0.708891,1.00881 -1.063359,2.10485 -1.063359,3.28816 0,0.95973 0.25083,1.89216 0.752506,2.79736 0.501678,0.9052 1.194191,1.60052 2.077579,2.08583 0.888841,0.48532 1.834991,0.72794 2.838345,0.72794 0.676173,0 1.357772,-0.11455 2.044851,-0.34358 0.687079,-0.23448 1.273251,-0.54528 1.758569,-0.93245 0.490772,-0.38716 0.989731,-0.92968 1.496861,-1.62766 l -0.245399,-0.23725 c -0.692533,0.59983 -1.363217,1.03331 -2.012125,1.30051 -0.643455,0.26719 -1.357797,0.40087 -2.143031,0.40087 l -0.310853,-0.008 -0.376202,-0.0409 c -0.670719,-0.0872 -1.256891,-0.25897 -1.75857,-0.51527 -0.496223,-0.26174 -0.962542,-0.63523 -1.398782,-1.12055 0.525226,-0.76919 1.174904,-1.3999 1.410656,-2.23305 0.04908,-0.15269 0.07361,-0.46079 0.07361,-0.92431 v -3.72981 l 0.957026,-0.82622 0.368046,0.0491 c 1.145133,0.56711 2.172987,0.89975 3.083641,0.99791 l 1.349639,-1.29235 -0.130905,-0.29453 h -0.188103 c -0.632549,0 -1.183274,-0.0464 -1.652232,-0.13907 -0.46896,-0.0982 -1.112408,-0.30803 -1.93036,-0.62976 z m 27.736967,2.39287 c -0.0027,5e-5 -0.0054,4e-4 -0.0084,0.001 -0.05413,0.0135 -0.24359,0.29096 -0.541283,0.61571 -0.135316,0.14208 -0.169175,0.10821 -0.135345,0.46003 0.0068,0.0609 0.02028,0.12184 0.02705,0.18273 0.04059,0.39242 -0.0067,1.3193 -0.0067,1.48168 0,0.12179 0.02023,0.2503 0.02023,0.37208 0,0.10825 -0.027,0.22335 -0.02023,0.3316 0,0.0338 0.01347,0.0677 0.02023,0.10148 0.0068,0.0473 -0.01353,0.0879 -0.01353,0.13525 0,0.0609 0.01353,0.11502 0.01353,0.17592 0,0.46684 4.2e-5,0.94722 0.0068,1.41406 0,0.11502 -0.08801,0.12185 -0.08125,0.16921 0.0068,0.0541 0.09481,0.0811 0.128634,0.10819 0.08796,0.0812 0.169112,0.17588 0.257066,0.25707 0.10825,0.10824 0.108281,0.14884 0.236829,0 0.108253,-0.13532 0.257056,-0.23001 0.372075,-0.35855 0.02706,-0.0271 0.135352,-0.0812 0.121819,-0.12854 -0.0068,-0.0406 -0.07442,0.0135 -0.101481,0 -0.06766,-0.0473 -0.108319,-0.10826 -0.16921,-0.16239 -0.03383,-0.027 -0.09472,-0.0745 -0.101483,-0.12182 0,-0.0135 0.0068,-2.51008 0.0068,-2.54391 0.0068,-0.027 0.06765,-0.11496 0.101483,-0.10819 0.0068,0 0.270574,0.1894 0.297639,0.25707 0.01353,0.027 -2e-6,0.78483 0.01353,1.51553 0.02706,1.23138 0,0.88629 0,1.31929 0,0.18945 0.0068,0.3789 -0.0067,0.56833 -0.0068,0.0812 -0.08123,0.39242 -0.0068,0.3789 0.02029,-0.007 0.02709,-0.0473 0.03386,-0.0609 0.216505,-0.42624 0.399147,-0.58182 0.446508,-0.63595 0.175909,-0.2165 0.162395,-0.0947 0.162395,-0.24354 0,-0.33153 -0.01353,-0.0542 0,-0.5481 0,-0.0338 -0.01353,-0.0676 -0.01353,-0.10819 0,-0.0541 0.01353,-0.10827 0.01353,-0.16239 -0.0068,-0.20974 -0.0203,-0.41274 -0.01353,-0.62924 0.0203,-0.96074 0.0068,-0.38559 0.0068,-0.96745 v -0.56833 c 0.01353,-0.11502 0.10145,-0.13537 0.06762,-0.19626 -0.01353,-0.0338 -0.06761,-0.0405 -0.09467,-0.0676 -0.09472,-0.088 -0.196213,-0.18273 -0.277401,-0.28422 -0.03383,-0.0406 -0.05417,-0.12854 -0.108298,-0.11501 -0.07442,0.0135 -0.121796,0.10834 -0.365361,0.3316 l -0.223307,0.18264 c -0.07442,0.0744 -0.04733,-0.10145 -0.04057,-0.16911 0.01353,-0.10149 -1.6e-5,-3e-5 0.02705,-1.09609 0,-0.0541 -0.03383,-0.22323 0,-0.54799 0.01353,-0.14885 -0.01347,-0.27743 -0.0067,-0.42627 0,-0.0254 -0.006,-0.11019 -0.04574,-0.10954 z m -11.721839,0.3444 c -0.0035,4.1e-4 -0.0075,0.001 -0.01167,0.002 -0.01377,4e-4 -0.108267,0.10152 -0.175815,0.17581 -0.216505,0.25034 -0.534516,0.5075 -0.541282,0.56163 -0.0068,0.0338 0.01353,0.0541 0.01353,0.0811 0.03383,0.54126 0.01353,1.25844 0.01353,1.33963 0.0068,0.44653 0.0203,0.88637 0,1.33292 0,0.0812 0.01353,0.15552 0.01353,0.23672 0,0.10149 -0.01356,0.19625 -0.02034,0.29774 0,0.18944 -0.0067,0.87954 -0.0067,0.97427 -0.01353,0.30445 -0.0542,0.12182 0.324686,0.41274 0.09472,0.0744 0.182763,0.18946 0.318079,0.17592 0.06766,-0.0135 0.101449,-0.0948 0.169105,-0.1151 0.155614,-0.0609 0.317943,-0.14879 0.473557,-0.22321 0.257098,-0.12855 0.561556,-0.24358 0.581853,-0.2774 0.03383,-0.0609 -0.0067,-1.04871 -0.0067,-1.04871 0,0 0.03375,-1.41409 0.03375,-1.73884 0.0068,-0.10825 0.101548,-0.13527 0.08125,-0.19616 0,-0.007 -0.277374,-0.20975 -0.331499,-0.26388 -0.284163,-0.25709 -0.202985,-0.28421 -0.365364,-0.10829 -0.12855,0.13532 -0.399218,0.37216 -0.412747,0.3857 -0.08119,0.0541 -0.02701,0.0609 -0.0067,0.0811 0.05413,0.0473 0.270581,0.23681 0.284112,0.27741 0.03383,0.0812 0,2.23945 0,2.23945 0,0.36535 0.02707,0.52105 -0.02705,0.50752 -0.101486,-0.0406 -0.189504,-0.11507 -0.270692,-0.18273 -0.162377,-0.14208 -0.08114,-0.0879 -0.09467,-0.27059 -0.02706,-0.56156 0.0068,-0.29097 0,-0.60219 0,-0.22327 -0.01353,-0.46002 -0.01353,-0.67652 0.0068,-0.12179 0.01353,-0.22335 0.01353,-0.34513 -0.0068,-0.12179 -0.01353,-0.25034 -0.01353,-0.3789 0,-0.10824 0.01353,-0.20966 0.01353,-0.32467 0.0068,-0.17591 -0.01356,-0.34514 -0.0068,-0.52105 0.0068,-0.0744 0.0068,-0.14207 0.0068,-0.21649 0.0068,-0.0473 -0.0068,-0.0879 -0.0068,-0.13524 0,-0.0677 0.01356,-0.14213 0.0068,-0.20979 l -0.0068,-0.32479 c 0,-0.0203 0.02034,-0.0473 0.02034,-0.0676 -0.01268,-0.78652 0.0043,-0.8595 -0.04924,-0.8544 z m -13.33794,0.48089 a 0.29137044,0.29137044 0 0 0 -0.29134,0.29133 0.29137044,0.29137044 0 0 0 0.29134,0.29145 0.29137044,0.29137044 0 0 0 0.29134,-0.29145 0.29137044,0.29137044 0 0 0 -0.29134,-0.29133 z m 24.208676,0.91624 c -0.02282,-1.7e-4 -0.05289,0.004 -0.09095,0.0121 -0.03383,0.007 -0.06765,0.027 -0.101483,0.027 -0.135315,0.0203 -0.500708,0.0135 -0.500708,0.0135 -0.223269,-0.0271 -0.14202,-0.0271 -0.209678,0.0676 -0.182676,0.2571 -0.433087,0.45332 -0.433087,0.45332 -0.257099,0.20297 -0.162299,0.1556 -0.148766,0.30445 0.03383,0.35182 -0.03392,1.14345 -0.02715,2.55072 0.0068,0.23005 -0.108265,0.20299 -0.07444,0.26388 0.01353,0.0338 0.08124,0.0473 0.108299,0.0609 0.06766,0.0406 0.635163,0.22328 0.756946,0.36537 0.108252,0.12178 0.135304,0.0338 0.216491,-0.0609 0.405948,-0.46007 0.426275,-0.39244 0.426275,-0.43979 0,-0.0541 -0.655459,-0.20298 -0.668989,-0.27741 -0.01353,-0.11501 -0.0068,-1.28553 -0.0068,-1.28553 0,0 -0.01353,-0.81183 -0.01353,-0.87949 v -0.37888 c 0.03383,-0.0541 0.196275,-0.0541 0.257168,-0.0406 0.148846,0.0271 0.121724,-0.0406 0.209678,-0.20296 0.216505,-0.37212 0.324777,-0.44658 0.351838,-0.50071 0.01397,-0.0325 -7.92e-4,-0.0522 -0.0511,-0.0526 z m -22.72916,0.0121 c -0.02706,0 -0.04056,0.0406 -0.05409,0.0609 -0.0203,0.0271 -0.04062,0.0542 -0.06091,0.0744 -0.284162,0.34505 -0.419459,0.41267 -0.419459,0.46003 0,0.0744 0.317975,0.14213 0.317975,0.39923 0,0.0812 -0.02034,0.18264 -0.02034,0.35855 0,0.088 0.01353,0.318 0.01353,0.45331 0,0.12855 -0.01353,0.0744 -0.01353,0.23003 v 0.0473 c 0,0.0947 0.01353,0.17587 0.01353,0.27059 0,0.0677 -0.01353,0.11503 -0.01353,0.1624 -0.01353,0.0473 0.02707,0.0203 -0.01353,0.0947 0,0.0202 0.01353,0.0474 0.01353,0.0677 -0.0068,0.2165 -0.03381,0.548 -0.02705,0.63595 0,0.36535 -3e-6,0.11504 -0.08796,0.35184 0.0068,0.0338 0.514154,0.48709 0.561516,0.48709 0.03383,0 0.06098,-0.0541 0.128633,-0.13525 0.07442,-0.088 0.182587,-0.14883 0.263777,-0.23002 0.08119,-0.0812 0.115041,-0.12182 0.14887,-0.12182 0.03383,0 0.06763,0.0337 0.142057,0.0947 0.378883,0.33829 0.358615,0.41275 0.426273,0.41275 h 0.0068 c 0.04736,0 0.08794,-0.0812 0.115007,-0.1083 l 0.345025,-0.31116 c 0.08119,-0.0744 0.108283,-0.1083 0.135347,-0.1083 0.02706,0 0.05412,0.0338 0.115006,0.088 0.35182,0.29093 0.385617,0.43299 0.44651,0.43299 0.04736,0 0.08118,-0.0609 0.115006,-0.10149 0.43301,-0.42624 0.439798,-0.38558 0.439798,-0.42617 0,-0.0338 -0.06765,-0.0745 -0.202967,-0.19625 -0.08119,-0.0677 -0.101484,-0.0203 -0.101484,-0.58186 v -0.43299 c 0,-0.0947 -0.01353,-0.18949 -0.01353,-0.28421 v -0.25025 -0.66981 -0.15569 c 0,-0.25033 -0.02034,-0.29085 -0.02034,-0.32469 0,-0.12178 0.175955,-0.1353 0.108297,-0.21649 -0.01353,-0.0203 -0.04738,-0.0203 -0.06091,-0.0407 -0.216505,-0.17591 -0.392423,-0.44651 -0.466846,-0.44651 -0.04736,0 -0.12176,0.12857 -0.142057,0.14887 -0.08119,0.0812 -0.16911,0.14883 -0.257064,0.23002 -0.03383,0.0338 -0.08127,0.12853 -0.142161,0.11501 -0.142082,-0.0203 -0.507382,-0.53447 -0.575039,-0.53447 -0.07442,0 -0.18272,0.20296 -0.399225,0.40593 -0.04059,0.0338 -0.0744,0.10149 -0.142057,0.10149 -0.04736,0 -0.115061,-0.0339 -0.209781,-0.13535 -0.0203,-0.027 -0.05408,-0.0406 -0.08115,-0.0609 -0.209738,-0.1759 -0.263842,-0.31116 -0.3315,-0.31116 z m 7.135557,0.0229 c -0.03596,0.003 -0.05984,0.041 -0.180358,0.0854 -0.189441,0.0677 -0.845736,0.34511 -0.933693,0.3857 -0.202972,0.0812 -0.05413,0.0473 -0.08796,0.56152 -0.03383,0.55479 0.02707,1.10962 -0.01353,1.66441 -0.0068,0.0406 0.01358,0.0744 0.0068,0.11501 0,0.0541 -0.0068,0.12184 -0.0068,0.18273 0.0068,0.0947 0.01358,0.19616 0.0068,0.29764 -0.01353,0.35183 -0.0271,0.29091 0.169105,0.43298 0.06766,0.0541 0.128551,0.10828 0.189442,0.1624 0.2571,0.22327 0.250373,0.25707 0.311266,0.24354 0.03383,-0.007 0.71712,-0.39237 0.865968,-0.46003 0.08119,-0.0338 0.169165,-0.0744 0.250353,-0.11501 0.02706,-0.0135 0.08119,-0.0135 0.101485,-0.0406 0.02706,-0.0541 0,-0.14214 0,-0.19626 -0.0068,-0.14885 0,-0.60209 0,-0.60209 0,-1.33962 -0.01353,-1.16372 0,-1.33963 0.0068,-0.10825 -4.9e-5,-0.20301 -0.0068,-0.31126 -0.0068,-0.14885 0.0068,-0.29096 0.0068,-0.4398 0,-0.35859 0.148829,-0.16916 -0.351838,-0.45332 -0.230036,-0.13299 -0.286302,-0.17622 -0.327061,-0.17334 z m -10.9715,0.007 c -0.04623,0.002 -0.06005,0.0643 -0.08816,0.11253 -0.121786,0.22327 -0.351887,0.45332 -0.358653,0.48037 -0.01353,0.0744 0.209753,0.14888 0.263879,0.23684 0.02706,0.0541 0.01353,0.14202 0.01353,0.19615 -0.01353,0.10149 0,0.19621 0,0.29092 0,0.0541 -0.0067,0.11509 -0.0067,0.16922 0,0.86601 0.0067,0.68334 0.0067,0.85926 0,0.28416 -0.0067,0.57509 0.0068,0.85925 0.0068,0.0812 0.01348,0.18946 -0.0068,0.26388 -0.01353,0.0473 -0.08115,0.0879 -0.06762,0.14206 0.01353,0.0473 0.277428,0.26379 0.426273,0.41263 0.03383,0.0271 0.08112,0.12855 0.135243,0.11502 0.05413,-0.0135 0.11509,-0.10146 0.155685,-0.14206 0.317991,-0.31122 0.432983,-0.31122 0.432983,-0.39241 0,-0.027 -0.05409,-0.0406 -0.06762,-0.0609 -0.108254,-0.12855 -0.263929,-0.24357 -0.270693,-0.29093 -0.0068,-0.0135 -0.04057,-0.89301 -0.04057,-0.89301 0,-0.21651 0.01348,-0.4195 0.0067,-0.62924 l -0.02023,-1.08257 c 0.0068,-0.0271 0.04738,-0.0812 0.07444,-0.088 0.08119,-0.0135 0.500645,0.46008 0.520943,0.46685 0.05413,0.0135 0.08795,-0.0744 0.115009,-0.10819 0.378883,-0.46007 0.405911,-0.39916 0.257063,-0.52095 -0.392413,-0.33828 -0.155568,-0.13533 -0.372072,-0.35184 -0.08796,-0.0947 -0.08791,-0.0203 -0.169106,0.10149 -0.03383,0.0473 -0.08804,0.0744 -0.128636,0.11501 -0.155611,0.15561 -0.196123,0.27063 -0.250249,0.18944 -0.01353,-0.0271 -0.378919,-0.31119 -0.41275,-0.34502 -0.07696,-0.0797 -0.123741,-0.10704 -0.155375,-0.10583 z m 17.780306,0 c -0.04623,0.002 -0.06005,0.0643 -0.08816,0.11253 -0.121784,0.22327 -0.351782,0.45332 -0.358551,0.48037 -0.01353,0.0744 0.209753,0.14888 0.263879,0.23684 0.02706,0.0541 0.01353,0.14202 0.01353,0.19615 -0.01353,0.10149 0,0.19621 0,0.29092 0,0.0541 -0.0068,0.11509 -0.0068,0.16922 0,0.86601 0.0068,0.68334 0.0068,0.85926 0,0.28416 -0.0067,0.57509 0.0068,0.85925 0.0068,0.0812 0.01348,0.18946 -0.0068,0.26388 -0.01353,0.0473 -0.08115,0.0879 -0.06762,0.14206 0.01353,0.0473 0.277326,0.26379 0.426171,0.41263 0.03383,0.0271 0.08122,0.12855 0.135347,0.11502 0.05413,-0.0135 0.114985,-0.10146 0.15558,-0.14206 0.317991,-0.31122 0.433088,-0.31122 0.433088,-0.39241 0,-0.027 -0.05419,-0.0406 -0.06772,-0.0609 -0.108253,-0.12855 -0.263825,-0.24357 -0.270589,-0.29093 -0.0068,-0.0135 -0.04057,-0.89301 -0.04057,-0.89301 0,-0.21651 0.01346,-0.4195 0.0067,-0.62924 l -0.02023,-1.08257 c 0.0068,-0.0271 0.04727,-0.0812 0.07433,-0.088 0.08119,-0.0135 0.500747,0.46008 0.521044,0.46685 0.05413,0.0135 0.08794,-0.0744 0.115009,-0.10819 0.378883,-0.46007 0.405911,-0.39916 0.257064,-0.52095 -0.392414,-0.33828 -0.155568,-0.13533 -0.372073,-0.35184 -0.08795,-0.0947 -0.08802,-0.0203 -0.169207,0.10149 -0.03383,0.0473 -0.08794,0.0744 -0.128532,0.11501 -0.155612,0.15561 -0.196229,0.27063 -0.250356,0.18944 -0.01353,-0.0271 -0.378815,-0.31119 -0.412643,-0.34502 -0.07696,-0.0797 -0.123846,-0.10704 -0.155479,-0.10583 z m -9.788588,5.2e-4 c -0.05141,0.004 -0.07263,0.0723 -0.109846,0.11883 -0.02706,0.0406 -0.07447,0.0677 -0.108297,0.10148 -0.01353,0.0135 -0.216453,0.26381 -0.385598,0.39912 -0.182677,0.12855 -0.169215,0.10149 -0.155684,0.2774 0.02706,0.27064 0,0.48041 0,0.6022 -0.01353,0.46007 0.08795,0.39243 -0.08796,0.52775 -0.07442,0.0541 -0.08796,0.0541 0,0.11501 l 0.121821,0.0811 c 0,0 0.473659,0.39241 0.473659,0.40594 -0.0068,0.0947 -0.142103,0.21656 -0.439796,0.6631 l -0.162395,0.27059 c -0.05413,0.0812 -0.169105,0.20976 -0.169105,0.25036 0,0.0203 0.05409,0.0338 0.06762,0.0202 0.02706,-0.007 0.04738,-0.0473 0.06091,-0.0676 0.230036,-0.33152 0.09471,-0.25031 0.405936,-0.12853 0.257098,0.10149 0.48715,0.25029 0.744248,0.37207 0.263864,0.12179 0.182668,0.22335 0.304451,0.0407 0.0068,-0.0135 0.189443,-0.20307 0.189443,-0.20307 0.115019,-0.088 0.230006,-0.16911 0.345025,-0.25707 0.148847,-0.12178 0.14212,-0.0744 0.121821,-0.25706 -0.01353,-0.10825 0,-0.30451 0,-0.31126 0,-0.0541 -0.01353,-0.11498 -0.01353,-0.16911 0,-0.0744 0.01348,-0.14207 0.0067,-0.21649 0,0 -0.03377,-0.41275 -0.0067,-0.50071 0.0203,-0.088 0.270567,-0.0947 0.121719,-0.17592 -0.121783,-0.0677 -0.622426,-0.50742 -0.622426,-0.50742 -0.0068,-0.0609 0.03379,-0.088 0.06762,-0.13534 0.01353,-0.0203 0.304496,-0.48711 0.412748,-0.62243 0.162379,-0.21651 0.162394,-0.1962 0.162394,-0.21648 0.01353,-0.0677 -0.08118,-0.0135 -0.101483,0.007 -0.05413,0.0406 -0.06087,0.10148 -0.128532,0.11501 -0.05413,0.0135 -0.710425,-0.30447 -1.021652,-0.55481 -0.04017,-0.0338 -0.06976,-0.046 -0.09312,-0.0444 z m 4.653283,0.004 c -0.06089,0 -0.135339,0.12175 -0.14887,0.14206 -0.02706,0.0338 -0.06095,0.0541 -0.08125,0.0811 -0.223269,0.27063 -0.3315,0.25038 -0.3315,0.31127 0,0.0406 0.3315,0.23676 0.3315,0.34502 0,0.0406 -0.01353,0.16236 -0.01353,0.40594 0,0.18943 0.01353,0.20975 0.01353,0.45332 0,0.2368 -0.0067,0.27739 -0.0067,0.39241 0,0.25033 0.0067,0.22329 0.0067,0.25035 -0.01353,0.14885 -0.01353,0.29773 -0.01353,0.42628 0,0.20973 0.0068,0.3924 0.0068,0.50741 0,0.0812 7e-6,0.13534 -0.01353,0.14888 -0.0203,0.0338 -0.108298,0.0879 -0.108298,0.13524 0,0.0473 0.108283,0.10152 0.135346,0.12182 0.148847,0.10825 0.351809,0.37207 0.405936,0.37207 0.05413,0 0.108228,-0.0879 0.142057,-0.12853 0.0203,-0.027 0.06089,-0.0405 0.08796,-0.0676 0.236802,-0.20974 0.304428,-0.2774 0.345024,-0.2774 0.06766,0 0.439844,0.38564 0.446611,0.39241 l 0.101484,0.10148 c 0.0203,0.0203 0.04061,0.0339 0.06091,0.0339 0.08796,0 0.169085,-0.23684 0.399121,-0.41275 0.03383,-0.0271 0.135347,-0.0676 0.135347,-0.11501 0,-0.0406 -0.06766,-0.061 -0.08796,-0.0813 -0.08119,-0.0541 -0.19625,-0.16232 -0.209781,-0.19615 0,-0.25033 -0.0541,-1.99596 -0.0541,-2.49663 0,-0.12178 4.2e-5,-0.20296 0.0068,-0.21649 0.01353,-0.0338 0.09467,-0.0812 0.09467,-0.12853 0,-0.0473 -0.0677,-0.0811 -0.121822,-0.12172 -0.108252,-0.0812 -0.189439,-0.18274 -0.290926,-0.25717 -0.04059,-0.0203 -0.05407,-0.0879 -0.108195,-0.0947 -0.07443,0 -0.493962,0.47356 -0.561619,0.47356 -0.02706,0 -0.05406,-0.0271 -0.12172,-0.0744 -0.230036,-0.16239 -0.372085,-0.42617 -0.446507,-0.42617 z m 10.047099,0 c -0.06089,0 -0.135338,0.12175 -0.14887,0.14206 -0.02706,0.0338 -0.06085,0.0541 -0.08115,0.0811 -0.223271,0.27063 -0.331499,0.25038 -0.331499,0.31127 0,0.0406 0.331499,0.23676 0.331499,0.34502 0,0.0406 -0.01353,0.16236 -0.01353,0.40594 0,0.18943 0.01353,0.20975 0.01353,0.45332 0,0.2368 -0.0068,0.27739 -0.0068,0.39241 0,0.25033 0.0068,0.22329 0.0068,0.25035 -0.01353,0.14885 -0.01353,0.29773 -0.01353,0.42628 0,0.20973 0.0067,0.3924 0.0067,0.50741 0,0.0812 2e-6,0.13534 -0.01353,0.14888 -0.0203,0.0338 -0.108194,0.0879 -0.108194,0.13524 0,0.0473 0.10818,0.10152 0.135242,0.12182 0.148848,0.10825 0.35181,0.37207 0.405937,0.37207 0.05413,0 0.108329,-0.0879 0.142158,-0.12853 0.0203,-0.027 0.0609,-0.0405 0.08796,-0.0676 0.2368,-0.20974 0.304429,-0.2774 0.345022,-0.2774 0.06766,0 0.439745,0.38564 0.446509,0.39241 l 0.101485,0.10148 c 0.0203,0.0203 0.04061,0.0339 0.06091,0.0339 0.08796,0 0.169189,-0.23684 0.399225,-0.41275 0.03383,-0.0271 0.135243,-0.0676 0.135243,-0.11501 0,-0.0406 -0.06766,-0.061 -0.08796,-0.0813 -0.08119,-0.0541 -0.196147,-0.16232 -0.209679,-0.19615 0,-0.25033 -0.0542,-1.99596 -0.0542,-2.49663 0,-0.12178 4e-5,-0.20296 0.0068,-0.21649 0.01353,-0.0338 0.09477,-0.0812 0.09477,-0.12853 0,-0.0473 -0.0677,-0.0811 -0.121821,-0.12172 -0.108253,-0.0812 -0.18944,-0.18274 -0.290928,-0.25717 -0.04059,-0.0203 -0.05417,-0.0879 -0.108295,-0.0947 -0.07442,0 -0.493861,0.47356 -0.561516,0.47356 -0.02706,0 -0.05417,-0.0271 -0.121824,-0.0744 -0.230036,-0.16239 -0.372083,-0.42617 -0.446507,-0.42617 z m -2.132604,0.01 c -0.006,-4e-5 -0.01216,0.001 -0.0189,0.004 -0.06766,0.0203 -0.04742,0.0744 -0.270693,0.27058 -0.02706,0.0271 -0.04738,0.0677 -0.07443,0.0948 -0.07071,0.0803 -0.143955,0.17504 -0.211125,0.27689 0.0016,10e-4 0.0031,0.003 0.0049,0.004 0.0045,0.001 0.0082,0.003 0.01125,0.004 0.04848,-0.0162 0.102104,-0.0283 0.161259,-0.0355 0.03383,-0.007 0.493872,0.12849 0.534468,0.20968 0.01353,0.0203 0,0.0474 0,0.0609 -0.0068,0.0135 -0.01353,0.4939 -0.01353,0.4939 0,0.0473 0.0068,0.0947 -0.01353,0.14205 -0.02706,0.0677 -0.243595,0.18273 -0.338315,0.19626 -0.01628,1.6e-4 -0.03186,-0.001 -0.04759,-0.002 -3.99e-4,5.1e-4 -5.81e-4,0.002 -10e-4,0.002 5e-6,1.1e-4 0,2e-4 0,4e-4 h -1.07e-4 c 7e-6,-3e-5 -1.1e-5,-2e-4 0,-4e-4 -4.7e-5,1.1e-4 -5.2e-5,2e-4 -1.04e-4,4e-4 v 1e-4 c -1.05e-4,5.2e-4 -1.05e-4,5.2e-4 -1.05e-4,4e-4 -0.02465,0.0362 -0.151696,0.18926 -0.174371,0.21526 -0.189441,0.2165 -0.507514,0.45335 -0.521047,0.48718 -0.0068,0.0135 0.01353,0.58863 0.01353,0.66981 0,0.28417 0.01353,0.26386 0.01353,0.29093 0,0.12178 -0.02021,0.0541 -0.07433,0.13524 -0.08119,0.0812 0.03382,0.1286 0.115009,0.20979 l 0.31116,0.30445 c 0.02706,0.0203 0.05413,0.0744 0.08796,0.088 0.05412,0.027 0.114995,-0.0947 0.142055,-0.12853 0.08119,-0.0947 0.196263,-0.1624 0.284218,-0.25035 0.03383,-0.0338 0.08793,-0.10824 0.142055,-0.11501 0.03383,0 0.277384,0.2029 0.50742,0.41265 0.03383,0.027 0.08803,0.0948 0.142159,0.0948 0.06089,0.007 0.09471,-0.0609 0.128534,-0.1083 0.07442,-0.0812 0.162348,-0.14882 0.243538,-0.23002 0.05413,-0.0609 0.128546,-0.10151 0.202968,-0.14887 0.115019,-0.0677 2.5e-5,-0.12848 -0.142057,-0.20968 -0.115016,-0.0676 -0.230046,-0.16237 -0.263878,-0.29092 -0.01353,-0.0609 0.0067,-0.14212 0.0067,-0.20978 0,-0.14884 -0.01353,-1.17723 -0.01353,-1.19076 -0.05413,-1.00134 -0.02023,3e-5 -0.02023,-1.01484 0,-0.0541 -10e-7,-0.10826 0.01353,-0.16239 0.01353,-0.0677 0.135273,-0.12855 0.08115,-0.17592 -0.02706,-0.0135 -0.169157,0.0135 -0.744248,-0.27059 -0.130132,-0.0651 -0.161973,-0.12496 -0.204102,-0.12543 z m -0.277404,1.72254 c 0,0 1.06e-4,0 1.06e-4,0 1.06e-4,-5.1e-4 4e-4,-0.002 4e-4,-0.002 -4e-4,-2e-5 -5.81e-4,2e-5 -0.001,0 -3.4e-5,1.1e-4 -5e-5,4e-4 -1.06e-4,4e-4 5.81e-4,2e-4 5.81e-4,10e-4 7.92e-4,0.002 z m -17.961695,-1.71892 c -0.04059,0 -0.07444,0.0541 -0.162395,0.15557 0,0 -0.250291,0.23001 -0.270589,0.24354 -0.09472,0.0609 -0.128532,0.0948 -0.128532,0.12183 0,0.0473 0.290927,0.12852 0.290927,0.34502 0,0.0406 -0.01353,0.0677 -0.01353,0.0948 0,0.0473 0.01353,0.0879 0.01353,0.14206 -0.0068,0.0203 -0.02034,0.0473 -0.02034,0.0676 v 0.24355 c 0,0.56832 -0.01353,0.46015 -0.01353,0.609 0,0.0947 0.0068,0.18939 0.0068,0.28411 v 0.0675 c 0,0.12178 -0.02715,0.12861 -0.02715,0.37217 0,0.28416 0.02034,0.43299 0.02034,0.53447 0,0.20974 -0.162395,0.25709 -0.162395,0.31797 0,0.0338 0.08798,0.0271 0.23683,0.1624 0.243568,0.22327 0.277374,0.33831 0.331501,0.33831 0.03383,0 0.06762,-0.0406 0.155579,-0.12853 0.372117,-0.36535 0.453322,-0.3518 0.453322,-0.41945 0,-0.0541 -0.297678,-0.12182 -0.317975,-0.33832 -0.0068,-0.0609 0.0068,-1.98243 0.0068,-2.00273 0,-0.34506 -0.0068,-0.62918 -0.0068,-0.63595 0.0068,-0.0609 0.115008,-0.0812 0.115008,-0.13535 0,-0.0338 -0.09466,-0.0608 -0.39912,-0.36525 -0.04737,-0.0541 -0.08124,-0.0744 -0.108299,-0.0744 z m 8.170113,0.39178 c 0.04706,0.001 0.308692,0.21836 0.34802,0.25769 0.128549,0.12178 0.04736,-0.007 0.101483,1.82 0,0.0473 -0.01353,0.0406 0,0.43979 0.0068,0.0406 -0.0068,-4e-5 0,0.66301 0.0068,0.13531 -0.385702,-0.26389 -0.385702,-0.26389 -0.115017,-0.12178 -0.09468,-0.0744 -0.08114,-0.46684 0.0068,-0.16238 0.0068,3e-5 -0.02705,-1.21781 0,-0.11501 0.02023,-0.0542 0.02023,-0.55481 0,-0.38565 4.2e-5,-0.66299 0.02034,-0.67652 10e-4,-3.9e-4 0.0023,-5.1e-4 0.0038,-5.1e-4 z m -6.032141,0.14939 c 0.05413,0 0.284217,0.18947 0.284217,0.32479 0,0.0271 -0.0068,0.0744 -0.0068,0.16911 0,0.10825 0.0068,0.27744 0.02705,0.57514 0,0.007 -0.0067,0.007 -0.0067,0.10148 0,0.16914 0.0067,0.29773 0.0067,0.42628 0,0.56155 -0.04057,0.54801 -0.04057,1.17723 0,0.19621 -0.14887,0.20967 -0.14887,0.20967 -0.05413,0 -0.230049,-0.14877 -0.263878,-0.2232 -0.01353,-0.0338 -0.02023,-0.25709 -0.02023,-0.48036 0,-0.58863 0.01353,-0.54132 0.01353,-0.58867 -0.0068,-0.22328 -0.0068,-0.44655 -0.0068,-0.66982 v -0.18944 -0.007 c 0,-0.0541 -0.01353,-0.25041 -0.01353,-0.43309 0,-0.10825 0.0068,-0.21641 0.02034,-0.2773 0.01353,-0.0406 0.10822,-0.11512 0.15558,-0.11512 z m 1.102798,0.0135 c 0.06766,0 0.257145,0.17593 0.297741,0.25036 0.02706,0.0677 0.03386,0.32475 0.03386,0.48037 v 0.12182 c 0.0068,0.21651 0.02023,0.42626 0.02023,0.64277 0,0.2165 -0.03387,0.39242 -0.03387,0.5548 0,0.12178 0.0068,0.42617 0.0068,0.42617 l -0.0068,0.33161 c -0.0068,0.0338 -0.08116,0.13524 -0.142057,0.13524 -0.08119,0 -0.277346,-0.20292 -0.284112,-0.20968 -0.01353,-0.027 -0.02034,-0.0542 -0.02034,-0.12182 0,-0.14885 0.01353,-0.3857 0.01353,-0.69016 0,-0.39918 -0.0067,-0.89982 -0.0067,-1.00131 0,-0.0744 0.0067,-0.14207 0.0067,-0.21649 0,-0.0609 -0.0067,-0.0338 -0.0067,-0.30445 0,-0.13532 0.0067,-0.27735 0.0067,-0.28411 0.0068,-0.0338 0.06765,-0.11512 0.11501,-0.11512 z m 7.625012,0.0203 c 0.07442,0 0.175963,0.115 0.284216,0.21648 0.10149,0.1015 0.05414,4e-5 0.07444,1.08257 0.01353,0.39918 0.02705,0.19619 0.02705,0.69686 0,0.18944 -0.0068,0.31117 -0.0068,0.3856 v 0.15568 c 0,0.32475 -0.101446,0.41264 -0.169105,0.41264 -0.06765,0 -0.277444,-0.17588 -0.297739,-0.23001 -0.01353,-0.0203 -0.01353,-0.0947 -0.01353,-0.18944 0,-0.16238 0.0068,-0.39916 0.0068,-0.62243 v -0.088 c 0,-0.27063 -0.0068,-0.27742 0,-0.52776 0,-0.11502 -0.0068,-0.22319 -0.0068,-0.33821 v -0.0813 c 0,-0.0609 0.0068,-0.12855 0.0068,-0.18944 v -0.35184 c -0.0068,-0.0406 -0.01353,-0.0811 -0.01353,-0.12171 0,-0.0541 0.027,-0.20978 0.108192,-0.20978 z m 10.047203,0 c 0.07442,0 0.175862,0.115 0.284113,0.21648 0.101487,0.1015 0.05414,4e-5 0.07444,1.08257 0.01353,0.39918 0.02705,0.19619 0.02705,0.69686 0,0.18944 -0.0068,0.31117 -0.0068,0.3856 v 0.15568 c 0,0.32475 -0.101449,0.41264 -0.169106,0.41264 -0.06766,0 -0.277339,-0.17588 -0.297637,-0.23001 -0.01353,-0.0203 -0.01353,-0.0947 -0.01353,-0.18944 0,-0.16238 0.0067,-0.39916 0.0067,-0.62243 v -0.088 c 0,-0.27063 -0.0068,-0.27742 0,-0.52776 0,-0.11502 -0.0067,-0.22319 -0.0067,-0.33821 v -0.0813 c 0,-0.0609 0.0067,-0.12855 0.0067,-0.18944 v -0.35184 c -0.0068,-0.0406 -0.01353,-0.0811 -0.01353,-0.12171 0,-0.0541 0.02711,-0.20978 0.108297,-0.20978 z m -15.26861,0.19563 c 0.05622,5.1e-4 0.191934,0.11305 0.350083,0.19678 0.07442,0.0338 0.365404,0.16913 0.3857,0.21648 0.02706,0.0609 -0.06766,0.12185 -0.08796,0.16921 -0.01353,0.0406 -0.05414,0.0608 -0.07444,0.0947 -0.169143,0.2774 -0.338312,0.50742 -0.338312,0.50742 -0.02706,0.0135 -0.189477,-0.0879 -0.223305,-0.1691 -0.02706,-0.0812 5.2e-5,-0.78485 -0.03376,-0.93369 -0.01268,-0.0592 -0.0035,-0.082 0.02199,-0.0818 z m 11.702534,0.49296 c 5.2e-5,4e-4 1.59e-4,0.001 2e-4,0.001 7.92e-4,0.001 0.0033,0.004 0.0024,0.003 -10e-4,-0.002 -0.0018,-0.003 -0.0027,-0.004 z m 0.06205,0.13876 c -5.81e-4,5.1e-4 -0.0012,10e-4 -0.0016,0.002 1.57e-4,2e-4 3.99e-4,5.3e-4 5.81e-4,0.001 3.99e-4,-0.001 7.92e-4,-0.002 0.0012,-0.003 z m 0.945668,0.21442 c 0.0271,0.004 0.02081,0.0827 0.01447,0.10169 0,0.11502 -5.2e-5,0.2233 0.0067,0.33832 v 0.1082 c 0,0.0541 0.01356,0.0947 0.02034,0.14886 0.0068,0.0541 -0.0068,0.11498 0,0.16911 0.0203,0.28416 0.0473,3e-5 0.02023,0.7172 v 0.18945 c 0,0.0203 0.01356,0.0473 0.0068,0.0676 -0.01353,0.0473 -0.05407,0.0948 -0.108194,0.10829 -0.05413,0.007 -0.182705,-0.14207 -0.236831,-0.20296 -0.04737,-0.0473 -0.07444,0.0135 -0.07444,-0.15559 0,-0.0744 0.0068,-0.15569 0.0068,-0.23012 -0.0068,-0.14208 -0.02034,-0.28409 -0.02034,-0.42616 0,-0.11503 0.02034,-0.22335 0.0068,-0.34513 -0.0068,-0.10149 -0.0068,-0.20297 -0.0068,-0.30445 0,-0.0271 -0.0067,-0.0947 0.0068,-0.11501 0.01353,-0.0203 0.169063,-0.0541 0.250252,-0.1082 0.02706,-0.0135 0.07442,-0.0542 0.101483,-0.0609 0.0021,-4e-4 0.004,-4e-4 0.0059,-2e-4 z m -12.443479,0.46416 c 0.01376,-0.002 0.02836,0.01 0.05627,0.03 0.216505,0.16237 0.155574,0.0879 0.169106,0.39241 0.0203,0.57509 0.02029,0.64267 0.02705,0.71709 0.01353,0.0947 -0.02024,0.0744 -0.196154,0 -0.520964,-0.22327 -0.514251,-0.25029 -0.575142,-0.27059 -0.04737,-0.0135 -0.06764,-5e-5 -0.02705,-0.0812 0.03383,-0.0677 0.243598,-0.38563 0.426273,-0.63595 0.07612,-0.10573 0.09673,-0.14803 0.119653,-0.15167 z" />
      <path
         d="m 44.340919,241.83932 c 0.07407,0.002 0.113958,0.019 0.119656,0.0646 0.01139,0.10636 0.0152,0.25641 0.0152,0.50332 0,0.28488 -0.0038,0.43493 -0.0152,0.54129 -0.0057,0.0455 -0.04368,0.0627 -0.115858,0.0646 v 0.0455 c 0.06078,-0.006 0.104462,-0.006 0.161441,-0.006 0.03798,0 0.09497,0.008 0.134849,0.0133 0.04938,0.008 0.115858,0.0133 0.155743,0.0133 0.436838,0 0.776812,-0.23361 0.776812,-0.70654 0,-0.38935 -0.260204,-0.60018 -0.70274,-0.60018 -0.05508,0 -0.117756,0.006 -0.169037,0.0114 -0.09686,0.0114 -0.151943,0.0152 -0.205124,0.0152 -0.05698,0 -0.09117,0 -0.155742,-0.006 z m 0.51281,1.15288 c -0.07407,0 -0.138649,-0.019 -0.169037,-0.0493 -0.03229,-0.0323 -0.05318,-0.0855 -0.05318,-0.53561 0,-0.22032 0.0019,-0.36466 0.0095,-0.5223 0.05698,-0.0114 0.125354,-0.019 0.174736,-0.019 0.40455,0 0.556494,0.21082 0.556494,0.54319 0,0.30769 -0.150045,0.58309 -0.518508,0.58309 z"
         style="font-size:9.11291px;-inkscape-font-specification:Seshat;fill:#cccccc;fill-opacity:1;stroke-width:0.264583"
         id="path34557-3" />
      <path
         d="m 46.470027,242.65412 c 0,-0.19943 0.0038,-0.27919 0.01329,-0.37796 l -0.0057,-0.01 c -0.08737,0.0228 -0.18803,0.0304 -0.29629,0.0323 v 0.0474 c 0.09496,0.004 0.13295,0.0133 0.140548,0.0703 0.0095,0.0779 0.01139,0.12916 0.01139,0.23742 0,0.23171 -0.100662,0.30959 -0.189929,0.30959 -0.108259,0 -0.169037,-0.0436 -0.169037,-0.2906 0,-0.19942 0.0038,-0.29818 0.01329,-0.39695 l -0.0057,-0.01 c -0.08737,0.0228 -0.188029,0.0304 -0.29629,0.0323 v 0.0474 c 0.09497,0.004 0.132951,0.0133 0.140548,0.0703 0.0095,0.0779 0.01139,0.14813 0.01139,0.2564 0,0.0247 0,0.0513 -0.0038,0.15384 -0.0057,0.15574 0.09307,0.2526 0.258304,0.2526 0.115856,0 0.208923,-0.0684 0.24311,-0.18233 0.0038,0.0836 0.0095,0.12155 0.02089,0.17474 l 0.0076,0.008 c 0.07217,-0.0228 0.131051,-0.0304 0.243109,-0.0304 v -0.0455 c -0.06647,-0.002 -0.102562,-0.0266 -0.115856,-0.0722 -0.01519,-0.0532 -0.02089,-0.10066 -0.02089,-0.22981 z"
         style="font-size:9.11291px;-inkscape-font-specification:Seshat;fill:#cccccc;fill-opacity:1;stroke-width:0.264583"
         id="path34559-9" />
      <path
         d="m 47.562119,243.01309 c -0.07217,-0.002 -0.119656,-0.019 -0.121555,-0.0646 -0.0057,-0.10636 -0.0057,-0.26401 -0.0019,-0.42924 0.0038,-0.15574 -0.09307,-0.25261 -0.258303,-0.25261 -0.119656,0 -0.214621,0.0798 -0.246908,0.19373 -0.0038,-0.0703 -0.0095,-0.13675 -0.01519,-0.18423 l -0.0057,-0.01 c -0.08737,0.0228 -0.153843,0.0304 -0.262103,0.0323 v 0.0474 c 0.09497,0.004 0.132951,0.0133 0.140548,0.0703 0.0095,0.0779 0.01139,0.17094 0.01139,0.25641 0,0.11396 -0.0038,0.16905 -0.01519,0.2754 -0.0057,0.0455 -0.05129,0.0627 -0.123454,0.0646 v 0.0455 c 0.06268,-0.006 0.138648,-0.006 0.207023,-0.006 0.06837,0 0.144346,0 0.208922,0.006 v -0.0455 c -0.07407,-0.002 -0.119655,-0.019 -0.125353,-0.0646 -0.0095,-0.0836 -0.0152,-0.18234 -0.0152,-0.25641 0,-0.21271 0.100663,-0.30958 0.18993,-0.30958 0.10826,0 0.172836,0.0608 0.170937,0.22031 -0.0019,0.21273 -0.0057,0.35707 -0.019,0.44635 l 0.0038,0.008 c 0.02849,-0.004 0.05888,-0.004 0.09117,-0.004 0.06838,0 0.123455,0 0.186131,0.006 z"
         style="font-size:9.11291px;-inkscape-font-specification:Seshat;fill:#cccccc;fill-opacity:1;stroke-width:0.264583"
         id="path34561-5" />
      <path
         d="m 48.179387,242.30085 c -0.0228,0 -0.04748,-0.002 -0.07977,-0.0133 -0.03608,-0.0133 -0.07407,-0.0209 -0.129151,-0.0209 -0.16524,0 -0.315284,0.0893 -0.315284,0.28489 0,0.12345 0.07217,0.20512 0.186132,0.23551 -0.03229,0.0266 -0.05508,0.0418 -0.08167,0.0608 -0.019,0.0152 -0.03039,0.0304 -0.03039,0.0474 0,0.0323 0.01519,0.0551 0.04368,0.0741 -0.05888,0.0703 -0.129152,0.14435 -0.184232,0.18993 l -0.0038,0.008 c 0,0.14625 0.142448,0.24881 0.300088,0.24881 0.195628,0 0.433041,-0.10826 0.433041,-0.31149 0,-0.16903 -0.123455,-0.21462 -0.311485,-0.22412 -0.08167,-0.004 -0.115857,-0.019 -0.115857,-0.0474 0,-0.0114 0.0057,-0.0228 0.019,-0.0342 0.01329,0.002 0.02659,0.002 0.03989,0.002 0.178533,0 0.315283,-0.10256 0.315283,-0.2678 0,-0.0608 -0.01519,-0.11585 -0.04368,-0.15574 h 0.138648 c 0,-0.0285 0.0019,-0.0494 0.0057,-0.076 z m -0.214621,0.42734 c -0.10636,0 -0.161439,-0.0798 -0.161439,-0.18993 0,-0.13675 0.06458,-0.19753 0.148144,-0.19753 0.13485,0 0.170938,0.11966 0.170938,0.21083 0,0.11016 -0.06268,0.17663 -0.157643,0.17663 z m 0.205124,0.42924 c 0,0.13106 -0.113957,0.18613 -0.231714,0.18613 -0.121554,0 -0.205123,-0.0874 -0.205123,-0.18613 0,-0.0627 0.04369,-0.11586 0.112058,-0.16144 0.03798,0.0114 0.08927,0.0171 0.148145,0.0209 0.125353,0.008 0.176634,0.0589 0.176634,0.14054 z"
         style="font-size:9.11291px;-inkscape-font-specification:Seshat;fill:#cccccc;fill-opacity:1;stroke-width:0.264583"
         id="path34563-5" />
      <path
         d="m 49.072055,243.00169 0.02089,-0.0817 -0.0076,-0.008 c -0.05698,0.0399 -0.129152,0.0665 -0.193728,0.0665 -0.189929,0 -0.279196,-0.11586 -0.288693,-0.30199 0.05318,-0.002 0.102562,-0.004 0.170937,-0.004 0.09306,0 0.155742,0 0.231714,0.002 0.06837,0.002 0.115857,-0.0247 0.115857,-0.0513 0,-0.22031 -0.121555,-0.35706 -0.288693,-0.35706 -0.237412,0 -0.385557,0.18043 -0.385557,0.44823 0,0.22222 0.131052,0.36467 0.366564,0.36467 0.08927,0 0.13675,-0.0133 0.193728,-0.0437 z m -0.467226,-0.39125 c 0.0095,-0.14815 0.07597,-0.2621 0.180432,-0.2621 0.11016,0 0.180434,0.11205 0.180434,0.2412 -0.05129,0.0171 -0.117756,0.0247 -0.197527,0.0247 -0.05508,0 -0.110159,-0.002 -0.163339,-0.004 z"
         style="font-size:9.11291px;-inkscape-font-specification:Seshat;fill:#cccccc;fill-opacity:1;stroke-width:0.264583"
         id="path34565-7" />
      <path
         d="m 49.643739,242.26666 c -0.214621,0 -0.381758,0.16145 -0.381758,0.41025 0,0.25831 0.136749,0.40266 0.358967,0.40266 0.21462,0 0.381758,-0.16144 0.381758,-0.41026 0,-0.2583 -0.136749,-0.40265 -0.358967,-0.40265 z m -0.01329,0.73313 c -0.127253,0 -0.205123,-0.14435 -0.205123,-0.33997 0,-0.21462 0.08927,-0.31338 0.208922,-0.31338 0.127253,0 0.205123,0.14434 0.205123,0.33996 0,0.21462 -0.08927,0.31339 -0.208922,0.31339 z"
         style="font-size:9.11291px;-inkscape-font-specification:Seshat;fill:#cccccc;fill-opacity:1;stroke-width:0.264583"
         id="path34567-2" />
      <path
         d="m 50.999834,243.01309 c -0.07217,-0.002 -0.119656,-0.019 -0.121554,-0.0646 -0.0057,-0.10636 -0.0057,-0.26401 -0.0019,-0.42924 0.0038,-0.15574 -0.09307,-0.25261 -0.258304,-0.25261 -0.119656,0 -0.214621,0.0798 -0.246909,0.19373 -0.0038,-0.0703 -0.0095,-0.13675 -0.01519,-0.18423 l -0.0057,-0.01 c -0.08737,0.0228 -0.153842,0.0304 -0.262102,0.0323 v 0.0474 c 0.09496,0.004 0.13295,0.0133 0.140547,0.0703 0.0095,0.0779 0.01139,0.17094 0.01139,0.25641 0,0.11396 -0.0038,0.16905 -0.01519,0.2754 -0.0057,0.0455 -0.05129,0.0627 -0.123455,0.0646 v 0.0455 c 0.06268,-0.006 0.13865,-0.006 0.207024,-0.006 0.06837,0 0.144346,0 0.208922,0.006 v -0.0455 c -0.07408,-0.002 -0.11966,-0.019 -0.125357,-0.0646 -0.0095,-0.0836 -0.0152,-0.18234 -0.0152,-0.25641 0,-0.21272 0.100663,-0.30958 0.18993,-0.30958 0.10826,0 0.172836,0.0608 0.170937,0.22031 -0.0019,0.21273 -0.0057,0.35707 -0.019,0.44635 l 0.0038,0.008 c 0.02849,-0.004 0.05888,-0.004 0.09117,-0.004 0.06837,0 0.123453,0 0.18613,0.006 z"
         style="font-size:9.11291px;-inkscape-font-specification:Seshat;fill:#cccccc;fill-opacity:1;stroke-width:0.264583"
         id="path34569-9" />
      <path
         d="m 51.562022,242.46989 c 0.0038,-0.0437 0.01329,-0.0893 0.02659,-0.13105 -0.03798,-0.0418 -0.112058,-0.0722 -0.191828,-0.0722 -0.176635,0 -0.286794,0.11207 -0.286794,0.23742 0,0.11586 0.06838,0.18993 0.205124,0.23171 0.09497,0.0285 0.129152,0.0722 0.129152,0.13865 0,0.0874 -0.06648,0.13674 -0.144346,0.13674 -0.04368,0 -0.08167,-0.01 -0.119656,-0.0341 -0.02089,-0.0133 -0.03988,-0.0475 -0.03988,-0.0988 l -0.05508,0.004 c -0.0038,0.0436 -0.01329,0.0931 -0.02659,0.13675 0.06268,0.0399 0.13675,0.0608 0.207024,0.0608 0.167137,0 0.317182,-0.10447 0.317182,-0.2735 0,-0.0931 -0.04748,-0.15385 -0.203225,-0.20512 -0.09686,-0.0323 -0.138649,-0.0703 -0.138649,-0.15005 0,-0.0608 0.04558,-0.11396 0.117756,-0.11396 0.05508,0 0.09117,0.0152 0.123455,0.0474 0.01899,0.019 0.02469,0.0513 0.02469,0.0855 z"
         style="font-size:9.11291px;-inkscape-font-specification:Seshat;fill:#cccccc;fill-opacity:1;stroke-width:0.264583"
         id="path34571-7" />
      <path
         d="m 52.51926,242.26666 c -0.21462,0 -0.381758,0.16145 -0.381758,0.41025 0,0.25831 0.13675,0.40266 0.358967,0.40266 0.214621,0 0.381759,-0.16144 0.381759,-0.41026 0,-0.2583 -0.136749,-0.40265 -0.358968,-0.40265 z m -0.01329,0.73313 c -0.127253,0 -0.205124,-0.14435 -0.205124,-0.33997 0,-0.21462 0.08927,-0.31338 0.208923,-0.31338 0.127254,0 0.205123,0.14434 0.205123,0.33996 0,0.21462 -0.08927,0.31339 -0.208922,0.31339 z"
         style="font-size:9.11291px;-inkscape-font-specification:Seshat;fill:#cccccc;fill-opacity:1;stroke-width:0.264583"
         id="path34573-3" />
      <path
         d="m 53.125134,242.30085 c -0.02469,0.0114 -0.06837,0.0266 -0.100662,0.0323 v 0.0418 h 0.10446 v 0.0133 c 0,0.36087 -0.0038,0.45393 -0.01518,0.56029 -0.0057,0.0455 -0.05129,0.0627 -0.123454,0.0646 v 0.0455 c 0.06268,-0.006 0.138649,-0.006 0.207024,-0.006 0.06838,0 0.144346,0 0.208921,0.006 v -0.0455 c -0.07407,-0.002 -0.119656,-0.019 -0.125353,-0.0646 -0.01138,-0.10636 -0.01518,-0.19942 -0.01518,-0.56029 v -0.0133 h 0.186131 c 0,-0.0209 0.0038,-0.0532 0.0076,-0.0741 h -0.197526 v -0.28489 c 0,-0.15764 0.03799,-0.23552 0.138647,-0.23552 0.04558,0 0.07407,0.01 0.102563,0.0342 0.02279,0.019 0.04368,0.0494 0.03989,0.0931 l 0.05698,-0.004 c 0.01329,-0.0551 0.03229,-0.11586 0.05698,-0.17093 -0.04558,-0.0361 -0.110158,-0.0532 -0.182333,-0.0532 -0.163339,0 -0.349469,0.14244 -0.349469,0.40455 z"
         style="font-size:9.11291px;-inkscape-font-specification:Seshat;fill:#cccccc;fill-opacity:1;stroke-width:0.264583"
         id="path34575-6" />
    </g>
  </g>
</svg>
