<?xml version="1.0" encoding="UTF-8" standalone="no"?>
<!-- Created with Inkscape (http://www.inkscape.org/) -->

<svg
   width="80mm"
   height="80mm"
   viewBox="0 0 80 80"
   version="1.1"
   id="svg827"
   inkscape:version="1.1.1 (3bf5ae0d25, 2021-09-20)"
   sodipodi:docname="portrait.svg"
   inkscape:export-filename="C:\Users\FrancescoCottone\Desktop\KesieV\stuff-2022\statscrawler\images\portraits\evil.png"
   inkscape:export-xdpi="47.619999"
   inkscape:export-ydpi="47.619999"
   xmlns:inkscape="http://www.inkscape.org/namespaces/inkscape"
   xmlns:sodipodi="http://sodipodi.sourceforge.net/DTD/sodipodi-0.dtd"
   xmlns="http://www.w3.org/2000/svg"
   xmlns:svg="http://www.w3.org/2000/svg">
  <sodipodi:namedview
     id="namedview829"
     pagecolor="#ffffff"
     bordercolor="#666666"
     borderopacity="1.0"
     inkscape:pageshadow="2"
     inkscape:pageopacity="0.0"
     inkscape:pagecheckerboard="0"
     inkscape:document-units="mm"
     showgrid="false"
     inkscape:zoom="0.5"
     inkscape:cx="658"
     inkscape:cy="471"
     inkscape:window-width="1920"
     inkscape:window-height="1017"
     inkscape:window-x="1912"
     inkscape:window-y="-8"
     inkscape:window-maximized="1"
     inkscape:current-layer="layer15" />
  <defs
     id="defs824" />
  <g
     inkscape:groupmode="layer"
     id="layer1"
     inkscape:label="range"
     style="display:none">
    <path
       d="m 60.511861,-30.15223 c -0.205911,0.264743 -0.588316,0.91189 -0.853058,1.441374 -0.426529,0.823642 -0.500068,1.161923 -0.588316,2.412094 -0.05883,1.014844 -0.161786,1.500204 -0.308865,1.617868 -0.264742,0.191202 -0.191203,0.676563 0.147079,0.926597 0.176494,0.132371 0.191202,0.176494 0.02942,0.191202 -0.132371,0 -0.161786,0.102955 -0.117663,0.308866 0.04412,0.176495 -0.573607,5.29484 -1.367833,11.369199 -0.794226,6.0743584 -2.426802,18.5025255 -3.618141,27.606709 l -2.176768,16.546377 -1.264879,-0.05883 C 49.613314,32.1651 48.907336,32.047437 48.495515,31.870943 47.76012,31.547369 47.039433,31.517953 45.480397,31.753279 l -1.1178,0.161787 -2.08852,-0.985428 c -1.161923,-0.544192 -2.735667,-1.220755 -3.48577,-1.500205 -1.235463,-0.441237 -1.544328,-0.632439 -2.618004,-1.60316 -0.808934,-0.735395 -1.470789,-1.206047 -1.985565,-1.411958 -0.926597,-0.338281 -3.044534,-0.838349 -3.618141,-0.838349 -0.764811,0 -2.014981,-0.132371 -2.941578,-0.294158 -0.853058,-0.161787 -0.985429,-0.147079 -1.500205,0.117663 -0.83835,0.426529 -1.514913,0.529484 -1.750239,0.250034 -0.235326,-0.27945 -2.515049,-0.352989 -2.515049,-0.07354 0,0.102955 -0.191203,0.132371 -0.544192,0.07354 -0.308866,-0.05883 -0.808934,-0.132371 -1.103092,-0.176495 -0.308866,-0.05883 -0.5589,-0.161786 -0.5589,-0.264742 0,-0.08825 0.338282,-1.161923 0.764811,-2.36797 0.41182,-1.220755 0.823641,-2.662128 0.911889,-3.221028 l 0.161787,-1.000136 0.558899,0.529484 c 0.441237,0.411821 0.617732,0.500068 0.823642,0.397113 0.147079,-0.08825 0.338282,-0.08825 0.470653,0 0.102955,0.07354 0.308865,0.117663 0.426528,0.117663 0.117664,0 0.07354,-0.05883 -0.102955,-0.132371 -0.455944,-0.191203 -0.426529,-0.338282 0.04412,-0.250034 0.264742,0.04412 0.352989,0.01471 0.294158,-0.132371 -0.04412,-0.117663 -0.02942,-0.191203 0.02942,-0.191203 0.382405,0.05883 0.441236,-0.04412 0.176494,-0.308865 -0.161787,-0.161787 -0.250034,-0.382406 -0.20591,-0.514777 0.08825,-0.20591 0.132371,-0.191202 0.382405,0.05883 0.147079,0.176495 0.382405,0.308866 0.529484,0.294158 0.191202,0 0.161787,-0.04412 -0.07354,-0.132371 -0.191202,-0.07354 -0.338281,-0.235327 -0.338281,-0.35299 0,-0.117663 -0.07354,-0.235326 -0.147079,-0.264742 -0.220618,-0.07354 -0.367697,-1.147215 -0.161787,-1.147215 0.08825,0 0.161787,0.132371 0.161787,0.294158 0,0.161786 0.132371,0.411821 0.27945,0.544192 0.161787,0.132371 0.264742,0.294157 0.220618,0.367697 -0.04412,0.05883 0,0.117663 0.07354,0.117663 0.220618,0 0.20591,-0.250034 -0.02942,-0.455945 -0.102955,-0.102955 -0.161787,-0.411821 -0.117663,-0.750102 0.04412,-0.588316 -0.117663,-1.058968 -0.603024,-1.720823 -0.147078,-0.191203 -0.264742,-0.411821 -0.264742,-0.500068 0,-0.08825 0.102956,-0.02942 0.220619,0.132371 0.264742,0.338281 -0.220619,-1.161924 -0.676563,-2.117937 -0.176495,-0.338281 -0.27945,-0.76481 -0.235326,-0.911889 0.04412,-0.161786 0.02942,-0.294157 -0.04412,-0.294157 -0.05883,0 -0.338282,-0.382406 -0.632439,-0.867766 C 21.991897,9.5443656 21.182963,8.6471843 20.918221,8.6471843 20.829973,8.6324764 20.521108,8.2941949 20.241658,7.8676661 19.9475,7.4558452 19.520971,7.0146085 19.285645,6.8969454 19.035611,6.7939902 18.682622,6.543956 18.476711,6.3527535 18.270801,6.1762588 17.873688,5.9115168 17.594238,5.7938536 17.314788,5.6761905 16.902967,5.4261564 16.682349,5.2202459 16.46173,5.0143355 16.25582,4.8966724 16.211696,4.940796 c -0.04412,0.044124 -0.08825,0.014708 -0.08825,-0.073539 0,-0.264742 -0.970721,-0.6324393 -1.647284,-0.6324393 -0.352989,0 -0.779518,-0.1029552 -0.956013,-0.2206183 C 13.358365,3.8965358 12.858297,3.7641648 12.41706,3.7053333 11.72579,3.6317938 11.475755,3.6759175 10.725653,3.9994911 10.240293,4.2201094 9.7402244,4.411312 9.6225613,4.4407278 8.9459984,4.5289751 7.3722541,5.5144037 6.6074439,6.3086298 6.1367914,6.7792823 5.6808468,7.1763953 5.5925995,7.1763953 c -0.1029553,0 -0.2059105,0.058832 -0.2353263,0.1176631 C 5.3425653,7.35289 5.0631154,7.5588004 4.7542497,7.750003 4.0923947,8.1618239 4.1218105,8.3383186 4.7983734,7.9853293 5.0631154,7.8529582 5.2984417,7.7647109 5.3278574,7.8088346 5.3572732,7.8382504 5.1366549,8.147116 4.8277892,8.5001054 4.5336314,8.8530948 4.3865525,9.1031289 4.5042156,9.0590052 5.3425653,8.7207238 5.2984417,8.7060159 5.0042839,9.2502078 4.857205,9.5296577 4.7395418,9.8091076 4.7248339,9.897355 c 0,0.073539 -0.1176631,0.132371 -0.264742,0.102955 -0.1470789,-0.029416 -0.2500341,0.04412 -0.2500341,0.191203 0,0.132371 -0.1029552,0.264742 -0.2206184,0.308865 -0.1912025,0.07354 -0.1470789,0.235327 0.2500342,0.956013 l 0.4706525,0.853058 -0.2647421,1.147215 c -0.1470789,0.63244 -0.2941578,1.309003 -0.3529893,1.514913 -0.044124,0.20591 -0.088247,0.529484 -0.1029553,0.720687 0,0.20591 -0.088247,0.382405 -0.1912025,0.426528 -0.264742,0.08825 -0.2206184,0.294158 0.073539,0.35299 0.2353263,0.04412 0.2059105,0.102955 -0.132371,0.455944 -0.5147761,0.514777 -0.5147761,0.603024 -0.029416,0.500069 0.2794499,-0.04412 0.3529894,-0.01471 0.2941578,0.147079 -0.044124,0.117663 -0.088247,0.279449 -0.088247,0.352989 0,0.07354 -0.2500341,0.411821 -0.5441919,0.750102 -0.4559446,0.500069 -0.5000683,0.588316 -0.2500342,0.529484 0.2794499,-0.07354 0.3088657,-0.01471 0.2941578,0.705979 -0.014708,0.867766 0.088247,1.073676 0.4265288,0.794226 0.2647421,-0.220618 0.2941578,0 0.044124,0.27945 -0.1617868,0.161787 -0.1470789,0.20591 0,0.264742 0.1470789,0.05883 0.1470789,0.117663 0.014708,0.27945 -0.2353262,0.27945 -0.058832,0.441237 0.2353262,0.20591 0.1176632,-0.102955 0.2206184,-0.117663 0.2206184,-0.02942 0,0.07354 -0.1029552,0.220618 -0.2206184,0.323573 -0.3676972,0.308866 -0.2500341,0.441237 0.3235736,0.35299 l 0.5294841,-0.08825 -0.2353263,0.382405 c -0.2941578,0.441237 -0.3529893,0.83835 -0.073539,0.5589 0.264742,-0.264742 0.4706525,-0.20591 0.2500341,0.07354 -0.1912026,0.220618 -0.1617868,0.220618 0.1912026,-0.01471 0.3676972,-0.235326 0.397113,-0.235326 0.4706525,0.02942 0.132371,0.382405 -0.058832,0.794226 -0.2941578,0.705978 -0.1176632,-0.04412 -0.2206184,0.02942 -0.2353263,0.176495 -0.029416,0.470652 -0.058832,0.544192 -0.1764947,0.735394 -0.088247,0.147079 -0.014708,0.161787 0.3088657,0.08825 0.7206866,-0.161787 0.8530576,-0.411821 0.808934,-1.456081 -0.044124,-1.220755 0.2059104,-1.382542 0.3088657,-0.176495 0.044124,0.676563 0.014708,1.014844 -0.1617868,1.279586 -0.2059105,0.338282 -0.2059105,0.35299 0.014708,0.161787 0.3235736,-0.264742 0.3676972,-0.20591 0.4265288,0.500068 l 0.044124,0.588316 -1.1030917,0.102955 c -0.6030235,0.05883 -1.6472837,0.161787 -2.2944308,0.220619 -0.8236419,0.08825 -1.2942944,0.20591 -1.4854969,0.382405 -0.3529894,0.308865 -0.6618551,0.323573 -6.0008192,0.264742 -5.2507167,-0.07354 -5.338964,-0.05883 -5.780201,0.27945 -0.191202,0.161786 -0.455944,0.294158 -0.5589,0.294158 -0.102955,0 -0.397113,0.191202 -0.632439,0.426528 -0.529484,0.514776 -1.32371,0.691271 -3.69168,0.823642 -0.926597,0.04412 -3.029826,0.250034 -4.662401,0.455945 -3.706389,0.441236 -4.853604,0.455944 -5.633122,0.05883 -0.705979,-0.367697 -2.500341,-0.647147 -3.294568,-0.529484 -0.941305,0.161787 -1.735531,0.720687 -2.92687,2.059105 -1.220755,1.367834 -1.500204,1.985565 -1.382541,3.059241 0.235326,1.897318 2.265015,3.809343 4.53003,4.235872 0.441236,0.08825 0.956013,0.323574 1.309002,0.603024 0.750102,0.603023 1.956149,0.882473 3.323983,0.76481 0.661855,-0.04412 1.147216,-0.01471 1.353126,0.08825 0.161787,0.08825 0.853058,0.235327 1.529621,0.308866 0.676563,0.07354 1.617867,0.220618 2.103228,0.308866 0.48536,0.102955 1.25017,0.191202 1.706115,0.191202 0.632439,0.01471 0.970721,0.117663 1.39725,0.411821 l 0.573607,0.397113 2.573881,-0.05883 c 2.250307,-0.04412 2.956286,0 5.6625377,0.397113 1.7061153,0.235326 3.2357358,0.500068 3.4122305,0.573607 0.2647421,0.08825 0.3382815,0.250035 0.3382815,0.63244 0,0.264742 0.1029552,0.779518 0.2206183,1.117799 0.1176632,0.338282 0.2206184,0.779519 0.2206184,0.956013 0,0.176495 0.2206183,0.5589 0.5000683,0.83835 0.2794499,0.294158 0.5736077,0.779518 0.661855,1.103092 0.088247,0.323573 0.3529894,0.853057 0.58831561,1.176631 0.64714716,0.897181 0.89718129,1.456081 0.89718129,2.000273 0,0.338281 0.11766312,0.603023 0.38240514,0.853058 0.30886569,0.27945 0.36769725,0.441236 0.2941578,0.823641 -0.0294158,0.264742 -0.0294158,0.485361 0.0294158,0.485361 0.0588316,0 0.11766312,0.20591 0.13237101,0.455944 0.0147079,0.250035 0.22061835,0.691271 0.44123665,0.985429 0.3382815,0.455945 0.3971131,0.647147 0.3676973,1.39725 -0.029416,0.750102 0.014708,0.97072 0.3529893,1.441373 0.3382815,0.48536 0.3676973,0.632439 0.2353263,0.970721 -0.088247,0.235326 -0.2059105,0.69127 -0.2500342,1.029552 -0.088247,0.529484 -0.058832,0.632439 0.1470789,0.632439 0.1912026,0 0.2353263,0.07354 0.1470789,0.323574 -0.1176631,0.411821 -0.1176631,0.529484 -0.014708,1.000136 0.088247,0.308866 0.073539,0.323574 -0.044124,0.07354 -0.132371,-0.27945 -0.1470789,-0.27945 -0.1470789,0.02942 -0.014708,0.176495 0.058832,0.367698 0.132371,0.411821 0.088247,0.05883 0.1176631,0.220619 0.073539,0.382405 -0.058832,0.147079 -0.1029552,0.5589 -0.1029552,0.897182 0,0.338281 -0.1029552,0.779518 -0.2206183,0.956013 -0.132371,0.191202 -0.1617868,0.338281 -0.1029553,0.338281 0.07354,0 0.058832,0.05883 -0.029416,0.117663 -0.1029553,0.07354 -0.1323711,0.573608 -0.058832,1.573744 0.088247,1.470789 0.2206183,1.897318 1.0295523,3.323984 l 0.2941578,0.529484 -0.397113,0.705978 c -0.2059105,0.397113 -0.3971131,0.823642 -0.411821,0.956013 -0.014708,0.235326 -2.20618343,2.500342 -2.41209389,2.500342 -0.19120257,0 -0.45594459,0.720686 -0.45594459,1.206046 0,0.426529 -0.2941578,0.91189 -1.27958642,2.16206 -0.7648103,0.956013 -0.7059788,1.441374 0.3088657,2.868039 l 0.66185503,0.926597 -0.20591053,0.661855 c -0.1029552,0.367697 -0.3235735,0.926597 -0.4853603,1.235463 -0.5294841,1.058968 -1.470789,3.927006 -2.2355993,6.780337 -0.088247,0.352989 -0.4118209,0.926597 -0.7206866,1.279586 -0.6618551,0.764811 -0.8236419,1.19134 -1.0295523,2.779792 -0.132371,0.911889 -0.264742,1.294294 -0.7059787,1.941441 -0.941305,1.426665 -0.8530577,2.838623 0.2500341,4.088794 l 0.5883156,0.661855 v 1.529617 c 0,1.57374 -0.1176631,2.19147 -0.8089339,4.08879 -0.3529894,0.95601 -0.411821,1.35313 -0.4265289,2.94158 -0.029416,1.73553 -0.073539,1.94144 -0.661855,3.7358 -0.5000683,1.50021 -0.6618551,2.25031 -0.7648103,3.51519 -0.073539,0.88247 -0.1912026,2.01498 -0.2794499,2.50034 -0.088247,0.50007 -0.2206184,2.4268 -0.2941578,4.2947 -0.2500341,5.66254 -0.3382815,6.17732 -1.6031609,9.20714 -0.397113,0.94131 -0.735394,1.41196 -2.000273,2.80921 -0.853057,0.9266 -1.823778,1.83849 -2.162059,2.02969 -1.39725,0.76481 -3.912299,2.51505 -4.353536,3.01512 -0.735394,0.82364 -1.058968,1.60316 -1.235463,2.94157 -0.191202,1.44138 -0.161786,1.52963 1.073676,2.20619 0.720687,0.3824 0.794226,0.39711 2.529757,0.33828 1.60316,-0.0588 1.912026,-0.11766 2.956286,-0.54419 1.456081,-0.58832 2.014981,-0.98543 3.7652206,-2.6033 1.2648785,-1.17662 3.0151174,-2.63271 3.4416463,-2.86804 0.088247,-0.0441 0.397113,-0.20591 0.6765629,-0.35299 1.1177996,-0.5736 1.735531,-1.20604 1.9708573,-2.04439 0.2794499,-0.9266 0.3088656,-2.95629 0.073539,-4.29471 l -0.1617868,-0.91189 1.470789,-2.91216 c 0.808934,-1.61787 1.69140739,-3.48577 1.95614941,-4.16233 0.26474202,-0.67656 0.79422606,-1.73553 1.16192331,-2.35326 0.38240508,-0.61774 0.95601288,-1.54433 1.26487848,-2.07382 0.3235736,-0.52948 0.7353945,-1.32371 0.9118892,-1.76494 0.4412367,-1.1178 1.5884521,-5.97141 1.8090705,-7.57457 0.1470789,-1.13249 0.3529893,-1.73552 1.4266653,-4.19173 1.60316,-3.69169 1.8973178,-4.26529 2.1767677,-4.26529 0.5883156,0 2.2355998,-1.27959 2.6327128,-2.059113 0.102955,-0.20591 0.235326,-0.705978 0.294157,-1.103091 0.05883,-0.411821 0.426529,-1.441374 0.823642,-2.309139 0.76481,-1.647284 0.853058,-2.220892 0.500068,-2.912162 -0.20591,-0.397113 -0.176494,-0.514777 0.35299,-2.088521 0.588315,-1.691407 1.411957,-3.588725 1.632576,-3.721096 0.220618,-0.132371 0.882473,0.705979 0.956012,1.235463 0.102956,0.632439 0.500069,1.867902 0.926598,2.882746 0.176494,0.397113 0.808933,2.279723 1.426665,4.177041 1.132507,3.48577 1.161923,3.676973 0.5589,3.69168 -0.323574,0 -0.205911,0.558902 0.529484,2.647422 0.411821,1.1031 0.823642,2.55918 0.941305,3.22103 0.117663,0.66186 0.27945,1.27959 0.367697,1.36784 0.07354,0.0735 0.500068,0.1912 0.926597,0.23532 l 0.779518,0.10296 0.573608,1.39725 c 0.308866,0.76481 1.32371,3.67697 2.250307,6.44205 0.926597,2.77979 1.912026,5.51546 2.206184,6.08907 0.544191,1.08838 1.014844,2.75037 1.60316,5.66254 0.382405,1.91202 0.853057,3.08865 2.103228,5.25071 0.83835,1.44138 1.294294,2.72095 1.853194,5.16247 0.220618,0.88248 0.676563,2.33856 1.029552,3.23574 0.867766,2.20617 0.941305,2.63271 0.867766,5.00067 -0.102955,2.6033 0.117663,3.52989 1.04426,4.38295 0.323574,0.32358 0.808934,0.67656 1.04426,0.79423 0.250034,0.13237 1.632576,1.44137 3.088657,2.92687 2.36797,2.39738 2.765083,2.73567 3.735804,3.20633 1.367834,0.66184 2.426802,0.86776 3.853467,0.79421 0.941305,-0.0588 1.264879,-0.14707 2.073813,-0.60301 0.529484,-0.29416 1.014844,-0.61773 1.103092,-0.72069 0.279449,-0.35299 0.338281,-0.92659 0.176494,-1.80907 -0.308865,-1.75024 -0.5589,-2.38267 -1.264878,-3.16219 -0.647147,-0.72069 -2.603297,-2.16206 -4.029962,-2.9857 -0.367697,-0.20591 -1.264879,-1.01485 -2.000273,-1.77966 -1.559037,-1.61788 -2.250307,-2.86805 -2.618005,-4.70653 -0.132371,-0.63244 -0.308865,-1.29429 -0.397113,-1.45608 -0.08825,-0.1765 -0.117663,-0.5589 -0.04412,-0.97073 0.04412,-0.36769 0.161786,-3.05924 0.235326,-5.9714 0.07354,-2.91216 0.176495,-5.9861 0.220618,-6.83916 0.102955,-1.89732 -0.235326,-3.39752 -1.397249,-6.07436 -0.161787,-0.3824 -0.426529,-1.47079 -0.588316,-2.4268 -0.161787,-0.9413 -0.617731,-2.77979 -1.029552,-4.07408 -0.76481,-2.45622 -0.720687,-2.19148 -1.426666,-8.91299 l -0.08825,-0.80893 0.603024,-0.23533 c 0.338281,-0.13237 0.647147,-0.35298 0.69127,-0.48536 0.05883,-0.11766 -0.08825,-0.63244 -0.308865,-1.1325 -0.250034,-0.5589 -0.485361,-1.45608 -0.617732,-2.38268 -0.352989,-2.529764 -0.338281,-2.515056 -0.867765,-2.470932 l -0.441237,0.04412 -0.411821,-2.544465 c -0.220618,-1.39725 -0.5589,-3.044534 -0.76481,-3.647557 -0.191203,-0.603023 -0.48536,-1.764947 -0.632439,-2.588589 -0.191203,-0.985428 -0.411821,-1.661991 -0.647147,-2.029688 -0.35299,-0.500069 -0.691271,-1.647284 -0.691271,-2.279723 0,-0.147079 -0.132371,-0.441237 -0.308866,-0.661855 -0.323574,-0.411821 -1.058968,-2.838623 -0.941305,-3.044534 0.04412,-0.05883 0.441237,-0.250034 0.882473,-0.411821 0.441237,-0.161786 1.264879,-0.544192 1.838487,-0.823641 1.647283,-0.83835 2.000273,-1.338418 1.176631,-1.764947 -0.367697,-0.191203 -1.000137,-1.04426 -0.853058,-1.176631 0.02942,-0.01471 0.455945,-0.220619 0.970721,-0.441237 0.514776,-0.235326 1.058968,-0.573608 1.220755,-0.779518 0.544192,-0.705979 0.27945,-2.323847 -1.161923,-6.868585 -0.661855,-2.08852 -1.161924,-4.191749 -2.014981,-8.309958 -0.617732,-3.029825 -1.147216,-5.883156 -1.191339,-6.324392 -0.04412,-0.5589 -0.147079,-0.867766 -0.338282,-1.029553 -0.147079,-0.117663 -0.48536,-0.588315 -0.720687,-1.029552 l -0.455944,-0.808934 0.823642,-4.706525 c 0.455944,-2.588588 0.867765,-5.309548 0.926597,-6.030235 0.147079,-1.720823 0.676563,-3.235736 1.088384,-3.073949 0.117663,0.04412 0.588315,0.01471 1.04426,-0.07354 0.661855,-0.117663 0.911889,-0.117663 1.220755,0.04412 0.750102,0.382406 3.48577,1.279587 5.441919,1.779655 2.059105,0.514776 3.41223,1.147216 4.500614,2.073813 0.603024,0.514776 1.309003,0.735394 1.897318,0.588315 0.205911,-0.04412 0.603024,0.05883 1.058968,0.27945 0.382405,0.205911 0.970721,0.367697 1.279587,0.367697 0.48536,0 0.558899,0.04412 0.558899,0.338282 0,0.191202 -0.323573,2.823915 -0.735394,5.85374 -0.397113,3.029825 -1.720823,13.10473 -2.941578,22.414824 -1.220755,9.295387 -2.397386,18.237784 -2.603297,19.855652 -0.220618,1.617868 -0.455944,2.985702 -0.529484,3.029825 -0.08825,0.05883 -0.102955,0.205911 -0.05883,0.338282 0.05883,0.132371 0.02942,0.235326 -0.04412,0.235326 -0.250034,0 -0.470652,0.588316 -0.294158,0.808934 0.117664,0.132371 0.08825,0.514776 -0.117663,1.411957 -0.235326,1.088384 -0.250034,1.338418 -0.07354,2.191476 0.102955,0.529484 0.294158,1.206053 0.441237,1.514913 0.220618,0.50007 0.294157,0.5589 0.69127,0.51478 l 0.455945,-0.0441 -0.04412,-1.544336 c -0.04412,-1.470789 0.147079,-2.809207 0.441237,-3.191612 0.07354,-0.102956 0.102955,-0.250035 0.05883,-0.323574 -0.05883,-0.07354 0.01471,-0.20591 0.147078,-0.27945 0.132371,-0.07354 0.235327,-0.323573 0.250035,-0.5589 0.02942,-0.808934 2.603296,-4.132917 5.383087,-6.942124 3.250444,-3.294567 3.265152,-3.323983 5.397796,-9.633668 0.514776,-1.52962 1.073676,-3.015117 1.235463,-3.309275 0.617731,-1.058968 1.823778,-2.529757 2.014981,-2.470926 0.102955,0.04412 0.191202,-0.01471 0.191202,-0.132371 0,-0.117663 0.102955,-0.220618 0.220619,-0.220618 0.132371,0 0.176494,-0.08825 0.117663,-0.220618 -0.04412,-0.147079 0,-0.220619 0.117663,-0.191203 0.132371,0.02942 0.20591,-0.08825 0.20591,-0.27945 0,-0.352989 1.838486,-2.64742 4.985975,-6.206729 1.632576,-1.867902 3.824051,-4.618278 4.206457,-5.309549 0.102955,-0.191202 0.191202,-0.161786 0.514776,0.147079 0.676563,0.63244 0.808934,1.058968 0.808934,2.573881 0,1.470789 0.08825,1.617868 0.647147,1.206047 0.323573,-0.235326 0.514776,-1.088384 0.529484,-2.265015 V 60.727823 L 70.76326,59.433528 c -0.603023,-0.705978 -1.103092,-1.338418 -1.103092,-1.411957 0,-0.05883 0.455945,0.27945 1.014845,0.750102 1.735531,1.456082 2.323846,1.632576 2.691544,0.83835 0.161786,-0.352989 0.117663,-0.426529 -0.470653,-1.000136 -0.338281,-0.338282 -0.941305,-1.073676 -1.32371,-1.647284 C 71.130957,56.315456 70.675013,55.830095 70.336731,55.653601 69.719,55.315319 68.6012,53.756283 68.159964,52.579652 c -0.250035,-0.661855 -0.27945,-1.058968 -0.235327,-2.794499 0.02942,-1.544329 0.08825,-2.059105 0.250034,-2.147352 0.147079,-0.102956 0.205911,-0.441237 0.205911,-1.250171 l -0.01471,-1.1178 0.544192,0.07354 c 1.206047,0.176495 3.353399,0.514776 3.853467,0.603023 0.661855,0.117663 1.161923,-0.294157 1.161923,-0.956013 0,-0.48536 -0.191202,-0.676562 -0.97072,-0.956012 l -0.573608,-0.220619 h 0.985429 c 0.617731,-0.01471 1.426665,-0.147079 2.147352,-0.382405 1.220754,-0.382405 1.279586,-0.441237 1.573744,-1.500205 0.04412,-0.161786 0.161787,-0.338281 0.27945,-0.382405 0.102955,-0.04412 1.235462,-0.01471 2.529757,0.05883 1.279586,0.05883 4.883019,0.264742 8.001092,0.426529 6.868585,0.367697 15.105,0.808934 20.66459,1.103091 10.88384,0.588316 18.19366,0.970721 22.35599,1.176632 2.51505,0.132371 4.69182,0.308865 4.8389,0.397113 0.16178,0.08825 1.55903,0.220618 3.11807,0.308865 l 2.83862,0.147079 0.67656,1.014845 c 0.5589,0.838349 0.72069,0.985428 1.00014,0.926597 0.1765,-0.04412 2.30914,-0.441237 4.73594,-0.882474 5.57429,-1.029552 5.86845,-1.117799 4.97127,-1.52962 -0.38241,-0.176495 -9.6925,-2.956286 -9.8837,-2.956286 -0.0588,0 -0.39712,0.397113 -0.75011,0.867765 l -0.66185,0.867766 -4.70653,-0.05883 c -2.58858,-0.01471 -6.66267,-0.147079 -9.04535,-0.27945 -4.50061,-0.235326 -6.898,-0.352989 -14.26665,-0.735394 C 88.412726,41.107498 77.646551,40.548598 77.396516,40.504474 77.16119,40.475054 77.014111,40.25444 76.822909,39.622001 76.631706,39.033685 76.440504,38.739527 76.190469,38.621864 75.91102,38.489493 75.83748,38.342414 75.83748,37.915885 c 0,-1.073676 -0.367697,-1.191339 -4.765356,-1.617867 -0.808934,-0.08825 -1.485497,-0.176495 -1.514913,-0.205911 -0.117663,-0.102955 0.27945,-2.956286 0.426529,-3.044533 0.147079,-0.102955 0.220618,-0.397113 0.308866,-1.529621 0.04412,-0.455944 0.279449,-0.897181 1.029552,-1.912025 0.544192,-0.735395 0.985428,-1.411958 0.985428,-1.529621 0,-0.102955 -0.176494,-0.588316 -0.382405,-1.04426 -0.514776,-1.147216 -0.367697,-1.573744 0.985429,-2.92687 0.83835,-0.83835 1.191339,-1.073676 1.941441,-1.32371 0.735395,-0.250035 1.103092,-0.485361 1.794363,-1.206047 0.48536,-0.485361 1.161923,-1.058968 1.514913,-1.264879 0.661855,-0.397113 0.794226,-0.779518 0.411821,-1.294294 -0.191203,-0.264742 -0.220619,-0.264742 -0.91189,0 -0.397113,0.147079 -1.132507,0.529484 -1.647283,0.853057 -0.661855,0.411821 -0.970721,0.544192 -1.088384,0.426529 -0.161787,-0.161787 -0.08825,-0.20591 1.941441,-1.60316 1.000137,-0.691271 1.294295,-1.264878 1.411958,-2.720959 0.08825,-1.044261 0.07354,-1.1178 -0.250034,-1.338418 -0.191203,-0.132371 -0.397113,-0.191203 -0.455945,-0.132371 -0.05883,0.05883 -0.235326,0.661855 -0.397113,1.353125 -0.264742,1.1178 -0.367697,1.309003 -0.911889,1.794363 -0.338282,0.308866 -0.691271,0.5589 -0.808934,0.5589 -0.117663,0 -0.250034,-0.323574 -0.338282,-0.853058 -0.397113,-2.08852 -1.088383,-4.588861 -1.632575,-5.809616 -0.323574,-0.720687 -0.544192,-1.382542 -0.500069,-1.456081 0.04412,-0.07354 -0.02942,-0.3088662 -0.176494,-0.5294845 C 72.234049,8.6766001 72.189925,8.7207238 75.381538,5.8673931 76.646416,4.7348856 76.69054,4.6172224 75.955145,4.2201094 75.719819,4.0877384 75.558032,4.1759857 75.028548,4.6613461 73.837209,5.7644379 73.469512,5.3673248 73.76367,3.2935123 74.028412,1.3520709 73.998996,1.2785314 73.116522,2.0433417 72.616454,2.4845784 72.601746,2.54341 72.601746,3.4994228 c 0,1.3237101 -0.779518,3.8240514 -1.191339,3.8240514 -0.04412,0 -0.294158,-0.3824051 -0.529484,-0.8530576 C 70.2779,5.3379091 70.20436,4.4407278 70.55735,2.8375678 70.910339,1.204992 70.910339,0.9990815 70.60147,1.3814866 c -0.20591,0.2647421 -0.20591,0.2500342 -0.02942,-0.088247 0.132371,-0.2500341 0.191203,-1.05896808 0.191203,-2.6474202 0,-2.0738125 -0.05883,-2.5150492 -0.573608,-4.9271431 -0.308865,-1.4560812 -0.617731,-2.7650834 -0.69127,-2.8974544 -0.07354,-0.1470789 -0.102956,-0.4118209 -0.05883,-0.5883156 0.04412,-0.1912025 -0.102955,-1.0001363 -0.352989,-1.8090703 -0.235327,-0.808934 -0.514777,-1.897318 -0.603024,-2.426802 -0.323573,-1.661992 -1.367834,-4.118209 -1.779655,-4.118209 -0.07354,0 -0.367697,0.20591 -0.632439,0.455944 -0.426529,0.382405 -0.76481,0.985429 -1.367834,2.485634 -0.132371,0.323573 -0.235326,0.176494 -1.25017,-1.764947 -1.367834,-2.632713 -2.765084,-6.427348 -2.456218,-6.647967 0.147079,-0.102955 0.161787,-0.161786 0.02942,-0.20591 -0.102955,-0.04412 -0.132371,-0.176495 -0.08825,-0.308866 0.04412,-0.117663 0,-0.27945 -0.102956,-0.338281 -0.102955,-0.05883 -0.132371,-0.191203 -0.07354,-0.294158 0.05883,-0.102955 0.102955,-0.720687 0.08825,-1.382542 -0.02942,-1.058968 0.02942,-1.353126 0.485361,-2.544465 0.294157,-0.750102 0.529484,-1.397249 0.529484,-1.426665 0,-0.07354 -0.808934,-0.529484 -0.926597,-0.529484 -0.04412,0 -0.235327,0.220618 -0.426529,0.470652 z m -0.573608,9.295387 c 0.426529,1.39725 1.073676,2.912162 2.235599,5.250717 0.897182,1.80907 1.720823,3.662264 1.823779,4.103501 0.250034,1.073676 0.411821,2.2061835 0.308865,2.2061835 -0.04412,0 -0.264742,-0.3529894 -0.470652,-0.7795185 -0.500068,-0.985428 -1.750239,-2.559173 -2.132644,-2.676836 -0.426529,-0.147079 -1.1178,0.676563 -1.411958,1.691408 -0.352989,1.1325072 -0.323573,2.5444647 0.04412,2.9562856 0.441237,0.4853604 1.014844,0.7206866 1.853194,0.7353945 l 0.779518,0.029416 -0.661855,0.1176631 c -0.779518,0.132371 -1.382541,0.044124 -1.632575,-0.2500341 -0.294158,-0.3529894 -0.411821,-0.2206184 -0.250035,0.264742 0.205911,0.6324393 1.39725,1.867902 1.95615,2.0149809 l 0.441236,0.1176631 -0.426528,0.1176632 c -0.308866,0.088247 -0.5589,0.044124 -0.853058,-0.1176632 -0.220618,-0.132371 -0.411821,-0.2059104 -0.411821,-0.1617868 0,0.2206184 0.426529,1.0442602 0.647147,1.2207549 0.176495,0.1470789 0.205911,0.2353263 0.07354,0.3235736 -0.132371,0.073539 -0.08825,0.2353262 0.132371,0.5883156 0.294158,0.5000683 1.80907,3.23573579 2.191475,4.00054607 0.117663,0.22061833 0.27945,0.35298933 0.367698,0.30886573 0.102955,-0.058832 0.117663,-0.029416 0.05883,0.058831 -0.05883,0.1029553 0.161787,0.3676973 0.573608,0.6471472 0.367697,0.2500341 0.661855,0.529484 0.661855,0.5883156 0,0.073539 -0.27945,0.073539 -0.617731,0.029416 l -0.63244,-0.1029553 0.455945,0.5000683 c 0.250034,0.2794499 0.632439,0.7648103 0.853057,1.0883839 0.205911,0.3235735 0.588316,0.6765629 0.853058,0.8089339 0.264742,0.1176631 0.5589,0.3824051 0.661855,0.5883156 0.161787,0.3088657 0.147079,0.3824051 -0.07354,0.4559446 -0.205911,0.073539 -0.176495,0.1029552 0.102955,0.1470789 0.27945,0.044124 0.573608,0.4118209 1.220755,1.4854969 0.83835,1.3531259 0.867765,1.4413732 0.720686,1.9708572 -0.102955,0.3824052 -0.102955,0.617732 0,0.735395 0.102956,0.132371 0.04412,0.397113 -0.20591,0.897181 -0.632439,1.235463 -0.911889,3.500478 -0.867766,7.030371 0.01471,1.691408 0.102956,4.279996 0.191203,5.750785 0.147079,2.073813 0.132371,3.00041 0,4.265288 -0.20591,1.809071 -0.426529,2.882747 -0.647147,3.029826 -0.176495,0.102955 -0.220619,0.323573 -0.308866,1.441373 -0.02942,0.441237 -0.161787,1.411957 -0.308866,2.16206 l -0.250034,1.338418 -0.76481,0.102955 c -0.411821,0.05883 -1.206047,0.27945 -1.779655,0.470653 -1.485497,0.529484 -1.867902,0.573607 -2.191475,0.20591 -0.161787,-0.176495 -0.367698,-0.308866 -0.485361,-0.308866 -0.102955,0 -0.264742,-0.161786 -0.352989,-0.352989 -0.191203,-0.397113 -0.794226,-0.617731 -1.058968,-0.397113 -0.147079,0.102955 -1.132508,0.132371 -2.029689,0.04412 -0.132371,-0.01471 -0.27945,-0.161787 -0.323573,-0.323574 -0.04412,-0.147079 -0.323574,-0.397113 -0.63244,-0.544192 -0.323573,-0.132371 -0.853057,-0.470652 -1.191339,-0.735394 -0.76481,-0.603024 -1.500205,-0.926597 -2.132644,-0.926597 -0.294158,0 -0.750102,-0.176495 -1.147215,-0.441237 -0.367698,-0.235326 -0.750103,-0.441237 -0.83835,-0.441237 -0.117663,0 -0.161787,-0.147079 -0.117663,-0.411821 0.161787,-0.882473 7.133326,-54.257406 7.133326,-54.566272 0,-0.750102 0.27945,-0.20591 0.867766,1.647284 z m 7.000956,9.354218 c 0.191202,0.07354 0.20591,0.132371 0.07354,0.132371 -0.117663,0 -0.352989,-0.05883 -0.514776,-0.132371 -0.191203,-0.07354 -0.205911,-0.132371 -0.07354,-0.132371 0.117664,0 0.35299,0.05883 0.514776,0.132371 z m 2.868038,15.6050713 c 0,0.088247 -0.05883,0.1029552 -0.147079,0.058832 -0.07354,-0.044124 -0.147079,-0.1617868 -0.147079,-0.2353263 0,-0.088247 0.07354,-0.1029552 0.147079,-0.058831 0.08825,0.044124 0.147079,0.1617867 0.147079,0.2353253 z m 1.926734,9.3983417 c 0.235326,0.76481 0.603023,2.206184 0.808934,3.20632 0.308865,1.544328 0.338281,1.941442 0.20591,2.64742 -0.338281,1.912026 -1.956149,4.029962 -2.265015,3.00041 -0.04412,-0.132371 -0.147079,-1.485497 -0.235326,-2.985702 -0.161787,-3.073949 0,-6.089066 0.397113,-7.17745 0.220618,-0.603024 0.250034,-0.632439 0.441237,-0.367697 0.117663,0.147078 0.397113,0.911889 0.647147,1.676699 z m -47.96243,5.162469 c 0,0.5589 -0.352989,0.514777 -0.41182,-0.05883 -0.02942,-0.27945 0.01471,-0.397113 0.176494,-0.397113 0.161787,0 0.235326,0.147079 0.235326,0.455943 z m 51.65411,20.649878 c 0.02942,0.27945 0.04412,0.514776 0.01471,0.514776 -0.01471,0 -0.147079,-0.176495 -0.27945,-0.382405 -0.220618,-0.323574 -0.220618,-0.397113 -0.04412,-0.514776 0.117664,-0.07354 0.220619,-0.132371 0.220619,-0.132371 0.01471,0 0.05883,0.235326 0.08825,0.514776 z m -23.032556,3.088657 c 0.235327,0.117663 0.691271,0.220618 1.014845,0.220618 0.323573,0 0.911889,0.102955 1.309002,0.220619 0.397113,0.117663 1.220755,0.220618 1.823778,0.220618 0.853058,0 1.161924,0.05883 1.456082,0.27945 0.500068,0.397113 1.441373,0.514776 2.338554,0.264742 0.911889,-0.235326 1.897318,-0.07354 3.588725,0.603023 0.603024,0.250034 1.279587,0.500069 1.514913,0.544192 0.323573,0.08825 0.397113,0.191203 0.397113,0.573608 0,0.264742 -0.05883,0.529484 -0.132371,0.617731 -0.235326,0.250034 -0.294158,1.353126 -0.07354,1.441374 0.27945,0.102955 0.264742,0.897181 -0.01471,1.161923 -0.117664,0.132371 -0.426529,0.264742 -0.691271,0.323573 -0.897182,0.176495 -0.985429,0.235327 -1.147216,0.750103 -0.250034,0.750102 -0.08825,1.191339 0.573608,1.52962 0.323574,0.161787 0.617731,0.338282 0.661855,0.411821 0.04412,0.07354 -0.01471,0.573608 -0.132371,1.1178 -0.117663,0.544192 -0.27945,1.529621 -0.367697,2.191476 -0.08825,0.661855 -0.367697,2.29443 -0.617732,3.632848 -0.382405,2.044397 -0.573607,2.691544 -1.235462,4.162333 -0.764811,1.720823 -1.95615,3.55931 -2.691544,4.177041 -0.205911,0.176495 -0.647147,0.382405 -0.985429,0.470653 -0.647147,0.161786 -1.176631,0.632439 -1.014844,0.897181 0.117663,0.20591 -0.63244,1.103092 -0.941305,1.103092 -0.147079,0 -0.220619,0.102955 -0.191203,0.264742 0.02942,0.161786 -0.05883,0.250034 -0.250034,0.250034 -0.20591,0 -0.27945,0.07354 -0.220618,0.220618 0.05883,0.147079 0,0.220618 -0.161787,0.220618 -0.132371,0 -0.191203,0.07354 -0.132371,0.161787 0.04412,0.08825 -0.102955,0.367697 -0.352989,0.617732 -0.235327,0.264742 -0.514777,0.617731 -0.603024,0.794226 -0.147079,0.308865 -0.08825,0.779518 0.117663,0.779518 0.04412,0 0.176495,0.05883 0.294158,0.132371 0.147079,0.102955 0.08825,0.294158 -0.338281,0.911889 -0.382406,0.5589 -0.779519,1.559036 -1.353126,3.368107 -2.485634,7.824597 -2.265015,7.383361 -5.265425,10.66322 -1.441373,1.573744 -2.706252,3.132781 -3.426938,4.221164 -0.63244,0.941305 -1.176632,1.720824 -1.220755,1.720824 -0.08825,0.01471 6.603842,-51.051087 6.677382,-51.139334 0.02942,-0.01471 0.338281,-0.08825 0.691271,-0.161787 0.352989,-0.07354 0.661855,-0.132371 0.661855,-0.147079 0.01471,-0.01471 0.220618,0.08825 0.441236,0.205911 z M 1.4155587,52.962057 c 0,0.07354 -0.058832,0.07354 -0.1470789,0.02942 -0.073539,-0.04412 -0.1470789,-0.205911 -0.1470789,-0.338282 0,-0.220618 0.029416,-0.220618 0.1470789,-0.02942 0.073539,0.117664 0.1470789,0.27945 0.1470789,0.338282 z m 65.8913473,3.471062 c 0.235326,1.544328 0.102955,2.353262 -0.617731,3.69168 -0.603024,1.147216 -2.117937,3.48577 -2.353263,3.618141 -0.05883,0.04412 0.04412,-0.308865 0.250034,-0.779518 0.441237,-0.970721 0.661855,-1.926734 1.250171,-5.383088 0.220618,-1.353126 0.500068,-2.57388 0.603023,-2.691544 0.323574,-0.397113 0.661855,0.220619 0.867766,1.544329 z M 1.9597506,55.741848 c -0.044124,0.117663 -0.088247,0.07354 -0.088247,-0.08825 -0.014708,-0.161787 0.029416,-0.250034 0.073539,-0.191203 0.044124,0.04412 0.058832,0.176495 0.014708,0.27945 z"
       id="path4"
       style="fill:#6a6454;fill-opacity:1;stroke:none;stroke-width:0.0352778" />
    <path
       style="fill:none;stroke:#6a6454;stroke-width:2;stroke-linecap:butt;stroke-linejoin:miter;stroke-miterlimit:4;stroke-dasharray:none;stroke-opacity:1"
       d="M 58.938117,-23.563094 43.37717,94.158855"
       id="path1453" />
  </g>
  <g
     inkscape:groupmode="layer"
     id="layer14"
     inkscape:label="magic"
     style="display:none">
    <path
       d="m 35.55112,-17.835753 c -1.053045,0.456982 -2.90084,2.36438 -3.516771,3.616112 -0.298032,0.635801 -1.072914,1.867663 -1.688845,2.741894 -0.635802,0.874224 -1.569634,2.4835937 -2.066353,3.5763777 -0.516587,1.092778 -1.092782,2.165692 -1.291469,2.38425 -0.198688,0.218553 -0.516589,0.675536 -0.675538,1.0133091 -0.17882,0.3576375 -0.715276,0.8543542 -1.192127,1.1325178 -0.47685,0.2980279 -1.172257,0.8543542 -1.529895,1.2517318 l -0.6358,0.7351465 0.139081,2.14582407 c 0.07948,1.45042013 0.05961,2.16569573 -0.07948,2.26503973 -0.119213,0.059606 -0.655669,0.7748817 -1.192126,1.5696323 -0.556325,0.7947506 -1.331207,1.6689762 -1.788189,1.9670079 -0.437113,0.2980311 -0.854357,0.7351445 -0.913962,0.9934384 -0.397376,1.7683201 -0.49672,2.344514 -0.49672,3.1988707 0,0.735145 -0.119212,1.112651 -0.437113,1.45042 -0.258294,0.278163 -0.417244,0.695408 -0.397375,1.092783 0.01987,0.496719 -0.158951,0.79475 -0.794751,1.390813 -0.874226,0.794751 -0.874226,0.874226 -0.258294,2.523333 0.456982,1.231865 0.337769,1.668977 -0.456981,1.827928 -0.357639,0.07948 -1.112651,0.417244 -1.649108,0.755013 -0.556325,0.337769 -1.112651,0.615931 -1.251733,0.615931 -0.397374,0 -2.463726,-0.9537 -3.6955892,-1.688845 C 8.5892048,18.047237 6.0857403,17.252486 3.7412256,16.835242 3.0458191,16.716029 1.615267,16.298786 0.56222306,15.92128 -0.66964027,15.464298 -1.9611111,15.146397 -3.1333679,15.027184 c -0.9735691,-0.09934 -2.3445137,-0.258293 -3.0399213,-0.337769 -0.8146194,-0.119213 -1.390813,-0.09934 -1.6888451,0.05961 -0.4967191,0.238426 -0.6755381,1.112651 -0.2980311,1.45042 0.2980311,0.238425 1.9868762,0.536458 4.6890285,0.81462 0.9934386,0.09934 2.2054334,0.377506 2.70215223,0.596063 0.85435733,0.377507 0.89409533,0.417244 0.7748824,1.072913 -0.079476,0.556326 -0.019866,0.735145 0.35763753,1.013306 0.2582942,0.17882 0.67553814,0.317901 0.93383224,0.317901 0.5364568,0 1.3709446,0.516588 1.6491072,1.013307 0.1390813,0.298031 0.05961,0.596063 -0.337769,1.29147 -0.4768504,0.794751 -0.5364568,1.152388 -0.5563252,2.622677 -0.019866,1.867665 0.337769,2.483596 0.5364567,0.933832 0.1390813,-0.894094 0.9537006,-2.74189 1.3312066,-2.980314 0.3179005,-0.198688 0.6954075,0.119211 1.5696333,1.291469 0.5960632,0.794751 0.8146194,1.251732 0.7748814,1.688845 -0.039743,0.695407 0.1788193,1.152389 0.4569819,0.993439 0.099342,-0.07948 0.1788193,-0.377507 0.1788193,-0.715276 0,-0.317901 0.099342,-0.576195 0.1986877,-0.576195 0.3973744,0 0.4371124,0.556327 0.079476,1.092782 -0.2582941,0.397377 -0.2781626,0.576195 -0.099342,0.755014 0.1788192,0.17882 0.337769,0.09934 0.675538,-0.33777 l 0.4569819,-0.556324 1.0133071,0.814619 c 0.5563252,0.437113 1.5100266,1.112651 2.1259586,1.510026 0.596062,0.377506 1.132518,0.774882 1.192124,0.874226 0.05961,0.09934 -0.01987,0.556325 -0.178819,1.013307 -0.377505,1.053045 -0.377505,1.390813 -0.03973,1.390813 0.15895,0 0.417244,-0.357637 0.596063,-0.79475 0.15895,-0.437113 0.437113,-0.794751 0.596063,-0.794751 0.47685,0 1.291469,1.112651 1.430551,1.986877 0.178819,1.013307 0.695407,1.092782 0.695407,0.09934 0,-0.774883 0.15895,-0.834488 0.973569,-0.397376 0.377506,0.17882 1.053045,0.278163 1.967008,0.238425 0.774883,-0.01987 1.470289,0.01987 1.529896,0.09934 0.258294,0.258295 -0.07948,0.735145 -0.894096,1.251732 -0.476849,0.298032 -0.79475,0.65567 -0.79475,0.894095 0,0.635801 -0.834487,1.033176 -1.827926,0.894095 -1.072914,-0.15895 -1.470289,0.158949 -1.172258,0.9537 0.317901,0.834488 1.072914,1.192127 2.245171,1.092782 0.556326,-0.05961 1.311339,-0.01987 1.668976,0.07948 0.576195,0.139082 0.65567,0.258294 0.715276,0.913964 0.03974,0.596063 0.139081,0.735143 0.456982,0.675538 0.357638,-0.03973 0.397375,0.03974 0.337769,0.854356 -0.07948,0.774884 -0.139081,0.913964 -0.615932,1.013307 -1.291469,0.317901 -2.563071,1.092783 -2.880971,1.748452 -0.397376,0.834489 -0.397376,1.708714 -0.01987,2.225303 0.397374,0.516587 0.377505,0.774881 -0.17882,1.629238 -0.278162,0.417245 -0.556325,1.211994 -0.6358,1.827927 -0.07948,0.596062 -0.397376,1.827926 -0.695407,2.741889 -0.298031,0.894095 -0.615932,2.066352 -0.695407,2.58294 -0.07948,0.556325 -0.357638,1.211995 -0.695406,1.629238 -0.317901,0.377507 -0.814621,1.271602 -1.15239,1.986878 -0.337768,0.774881 -0.894094,1.569632 -1.370944,2.006744 -1.271601,1.152389 -2.2849079,3.576378 -2.5233325,6.139449 -0.1788193,1.808058 -0.9934387,4.013492 -1.8875329,5.026799 -0.3973755,0.456981 -0.8940953,1.132519 -1.0927831,1.510026 -0.5364567,1.053045 -1.4504194,2.24517 -2.2054324,2.861102 -0.715276,0.596063 -0.9139637,1.331208 -0.337769,1.331208 0.1788203,0 0.5364578,-0.178819 0.7748825,-0.417244 0.3973754,-0.377506 0.5165883,-0.397375 1.1722568,-0.17882 0.8146194,0.258294 0.8146194,0.278163 0.1788193,2.046483 -0.2781626,0.814619 -0.2980311,1.231863 -0.1390813,3.179004 0.1192118,1.211994 0.2582941,2.364383 0.337768,2.523333 0.1788199,0.417243 -0.8543567,1.033175 -1.291469,0.794749 -0.1788193,-0.09934 -1.3908131,-0.397374 -2.6822838,-0.675537 -1.29146964,-0.258294 -2.50346457,-0.536456 -2.68228377,-0.596063 -0.3178996,-0.139081 -0.5165862,0 -1.23186333,0.854357 -0.2185562,0.278163 -0.4967188,0.397376 -0.7947499,0.3179 -0.2384256,-0.03974 -2.5432024,-0.496719 -5.1062734,-0.993437 -2.5630712,-0.49672 -4.8678482,-0.933833 -5.1062732,-0.993439 -0.258294,-0.05961 -0.456982,-0.278163 -0.49672,-0.536457 -0.07948,-0.596063 -0.735143,-0.715276 -1.13252,-0.198688 -0.298031,0.377507 -0.45698,0.377507 -2.106088,0.238425 -1.370944,-0.119212 -24.915432,-3.953884 -27.577845,-4.490341 -0.39738,-0.07948 -0.536457,-0.238425 -0.536457,-0.556325 0,-0.913964 -0.735146,-1.172258 -1.390818,-0.476851 -0.397373,0.437113 -0.417242,0.437113 -1.907404,0.139082 -1.748448,-0.357637 -2.16569,-0.198688 -2.384248,0.913963 -0.15895,0.874226 0.139083,1.251733 1.092782,1.390814 0.397373,0.05961 1.311338,0.258294 2.046482,0.417244 0.993439,0.218556 1.430551,0.238425 1.748449,0.07948 0.258299,-0.139082 0.635801,-0.15895 1.152394,-0.01987 0.397372,0.09934 0.993433,0.238425 1.291466,0.298031 0.556327,0.139082 0.576197,0.15895 0.437112,1.072913 -0.158948,1.192126 0.158949,1.529895 1.688846,1.708715 0.596066,0.07948 1.470291,0.357637 1.927273,0.6358 0.456981,0.258294 1.053043,0.556326 1.351077,0.675538 0.476846,0.178819 0.516586,0.158949 0.397372,-0.198688 -0.11921,-0.357638 -0.05961,-0.397375 0.337767,-0.298031 1.370947,0.317899 11.166246,2.284908 11.404675,2.284908 0.15895,0 0.437113,-0.178819 0.615932,-0.397375 0.218553,-0.258294 0.596061,-0.397376 1.033173,-0.397376 0.933835,0 3.020056,0.596064 3.139268,0.894095 0.03974,0.139081 -0.854356,3.775065 -2.006745,8.086588 -1.152387,4.331391 -2.106092,8.007108 -2.106092,8.166058 0,0.51659 0.854361,0.95371 2.304776,1.1524 1.132523,0.15895 1.390817,0.13908 1.649111,-0.11922 0.178819,-0.17882 0.993439,-2.960446 1.808058,-6.218923 1.152389,-4.530079 1.569633,-5.901024 1.788189,-5.881155 1.192126,0.119213 4.371129,0.774881 4.808241,0.993439 0.278164,0.139081 0.715276,0.516587 0.953701,0.814619 0.377507,0.47685 0.417244,0.695406 0.298032,1.688845 -0.119213,0.973569 -0.07948,1.251732 0.317899,1.887532 0.258295,0.417245 0.576195,0.834489 0.715277,0.913964 0.1390813,0.07948 0.2582943,0.377507 0.2582943,0.615931 0,0.476851 0.337769,0.715276 0.9934383,0.715276 0.238425,0 0.417244,0.198688 0.496719,0.576194 0.05961,0.317901 0.4371125,0.953701 0.8344879,1.410678 l 0.7351445,0.83449 1.1921264,-0.11921 c 2.6822827,-0.27816 3.3578218,-0.79475 2.5034645,-1.947139 l -0.4371134,-0.576194 0.4569818,-0.119212 c 0.2384247,-0.05961 0.9139638,-0.377507 1.4901575,-0.695408 0.59606313,-0.298031 1.33120763,-0.556325 1.66897676,-0.556325 0.5165883,0 6.85472384,2.960448 7.64947474,3.576378 0.1192129,0.0795 0.5563253,0.25829 0.9934387,0.39737 0.4371123,0.13909 1.410683,0.55633 2.185564,0.93384 0.755013,0.35764 1.629238,0.65567 1.947139,0.65567 0.635801,0 1.529895,0.41724 1.947139,0.91396 0.158951,0.19869 0.735144,0.69541 1.271601,1.11265 0.556325,0.43711 1.271601,0.99344 1.589501,1.2716 0.337769,0.27816 1.172258,0.87423 1.887533,1.3312 0.834489,0.55634 1.311339,1.01332 1.351076,1.29148 0.139081,0.9537 -0.576194,2.40412 -1.76832,3.67572 -1.688845,1.74845 -2.40412,3.02005 -3.457165,6.19905 -0.516589,1.5299 -1.331208,3.53664 -1.847795,4.47048 -2.563072,4.74864 -2.60281,4.86784 -2.821365,11.02716 -0.238425,6.47722 -0.456982,7.58987 -1.947139,10.45098 l -0.9139638,1.76832 -0.1589497,6.00036 c -0.079476,3.31809 -0.2582942,6.8746 -0.377507,7.90777 -0.2384247,1.92727 -0.2582942,2.90085 -0.1788182,6.45736 0.039743,1.82791 0,2.16568 -0.6755381,4.15256 -0.3973754,1.19213 -0.715276,2.54321 -0.715276,3.00019 0,0.93383 -0.2384257,1.45042 -2.9604464,6.35801 -3.33795237,6.00035 -4.4903408,7.56999 -6.477217,8.94094 -0.6159316,0.41725 -1.2914707,1.05304 -1.4901585,1.39081 -0.6159316,0.99344 -2.145827,2.32465 -3.7551977,3.25848 -1.2119933,0.71528 -1.5100256,0.99344 -1.8477946,1.74845 -0.437113,0.99344 -0.357638,1.72859 0.258294,2.52334 l 0.3775073,0.49671 -0.8742263,1.25174 c -0.47685,0.6954 -1.072914,1.6491 -1.311338,2.14582 -0.65567,1.31134 -3.357822,4.94733 -4.112835,5.50365 -0.357639,0.27816 -1.331208,0.79476 -2.185565,1.15239 -1.907401,0.83448 -2.682284,1.43055 -3.536641,2.76175 -0.715276,1.09279 -1.510026,1.9074 -2.265041,2.30478 -0.258294,0.13908 -0.834485,0.51659 -1.311337,0.87423 -0.596061,0.45698 -1.56963,0.85436 -3.397559,1.39081 -1.410681,0.39738 -2.880973,0.87423 -3.278345,1.03318 -0.735145,0.3179 -2.304782,0.3179 -2.980317,0 -0.317898,-0.13908 -0.973569,0.3179 -0.973569,0.67554 0,0.35763 0.79475,0.91396 1.768319,1.27159 0.854361,0.29804 1.510026,0.33778 4.371128,0.27817 l 3.357825,-0.0596 1.629234,-0.83449 c 1.549766,-0.81461 1.649111,-0.83448 2.503465,-0.6358 1.529899,0.39738 6.735515,0.11921 9.616487,-0.49672 1.370944,-0.29802 3.3379523,-0.59605 4.3711286,-0.63579 1.5298951,-0.0993 2.1458267,-0.21857 3.2584782,-0.71528 0.9537007,-0.43711 1.8676634,-0.65567 3.0796582,-0.77488 0.9338322,-0.0993 1.94713933,-0.23843 2.26503996,-0.29804 0.298031,-0.0596 0.5364567,-0.0596 0.5364567,0.0199 0,0.51659 -0.73514443,1.05304 -3.03992126,2.20543 -1.4305521,0.71527 -2.7021533,1.39081 -2.8213651,1.47029 -0.099342,0.0795 -0.4768504,0.21856 -0.8344878,0.27817 -0.7152761,0.15894 -1.2119949,0.63578 -0.9338323,0.91395 0.1192118,0.11921 0.9735692,-0.0397 2.2650389,-0.39737 1.7087146,-0.49673 2.2054334,-0.57619 3.0001833,-0.43712 0.67553913,0.13909 1.15238843,0.0993 1.70871466,-0.0993 1.54976394,-0.5762 1.98687624,-0.65567 3.39755874,-0.65567 1.5895018,0 2.0067457,-0.13908 2.9604464,-1.05305 l 0.6556696,-0.61593 0.5960632,0.5762 c 0.675537,0.65566 1.092782,0.55632 1.5298943,-0.29803 0.2582942,-0.49672 1.9272707,-1.2716 2.3842517,-1.11265 0.139081,0.0596 0.258294,0.27816 0.258294,0.49672 0,0.47685 0.854357,1.11265 1.271602,0.95369 0.15895,-0.0596 0.337769,-0.47684 0.417244,-0.91395 0.119213,-0.71529 0.198687,-0.81463 0.655669,-0.81463 0.298031,0 0.933832,0.27817 1.410682,0.59608 0.476851,0.33776 0.953701,0.59605 1.033175,0.59605 0.09934,0 0.258295,0.17882 0.377507,0.39738 0.17882,0.31789 0.07948,0.51659 -0.496718,1.15238 -0.556326,0.6358 -0.695408,0.95371 -0.695408,1.58951 0,0.93383 0.317901,1.2716 0.576195,0.59606 0.139081,-0.3179 0.198688,0.15895 0.198688,1.68885 0.01987,1.6491 0.119212,2.40411 0.437113,3.27833 0.218555,0.61595 0.596062,1.70872 0.814619,2.42399 0.218556,0.71529 0.576194,1.64912 0.79475,2.06636 0.317901,0.6358 0.377507,0.99344 0.278164,1.88753 -0.158951,1.27161 -0.158951,1.31134 0,2.84124 0.13908,1.41069 0.556324,1.54976 0.894094,0.29804 0.516587,-1.94715 1.11265,-2.88098 2.185564,-3.41744 0.973569,-0.51659 1.529895,-0.35763 2.980315,0.73515 1.211995,0.93384 1.370944,1.13251 1.370944,1.70871 0,0.71528 0.576195,1.98687 1.072914,2.40412 0.258294,0.21856 0.377507,0.21856 0.615932,0.0199 0.357637,-0.29803 0.377507,-0.67554 0.05961,-1.19213 -0.178819,-0.29803 -0.178819,-0.47685 0.01987,-0.85435 0.278162,-0.5166 1.192126,-1.13253 1.708714,-1.13253 0.178818,0 0.615932,-0.21855 0.973569,-0.49671 0.6358,-0.47686 0.65567,-0.53645 0.496719,-1.45042 -0.07948,-0.51659 -0.298031,-1.31134 -0.47685,-1.76832 -0.516587,-1.2716 -0.258294,-1.76832 0.278162,-0.55633 0.49672,1.13252 2.404122,3.07966 3.000185,3.07966 0.536457,0 0.49672,-0.3179 -0.09934,-1.03317 -0.715276,-0.85436 -0.655669,-1.64911 0.15895,-2.14583 0.337769,-0.21855 0.854358,-0.39737 1.112652,-0.39737 1.072912,0 3.417427,0.89409 5.523516,2.10608 1.231863,0.71528 2.563071,1.35107 2.980316,1.41068 0.417244,0.0596 1.390813,0.31791 2.185564,0.5762 1.629239,0.55632 2.483595,0.59607 2.841233,0.17882 0.377506,-0.45698 -0.09934,-0.89409 -0.97357,-0.89409 -0.854356,0 -1.11265,-0.15895 -1.291469,-0.75502 -0.07948,-0.23842 -0.258294,-0.43711 -0.417244,-0.43711 -0.139082,0 -0.536457,-0.3179 -0.894095,-0.71528 -0.496719,-0.57619 -0.596063,-0.85435 -0.556325,-1.43055 0.03973,-0.61593 0.178818,-0.79475 0.79475,-1.13252 0.65567,-0.33777 0.854357,-0.35763 2.046484,-0.15895 0.834488,0.13909 1.649107,0.43711 2.145827,0.77488 0.456981,0.3179 0.874224,0.5762 0.913962,0.61593 0.03974,0.0199 0.09934,0.35764 0.15895,0.75502 0.03973,0.3775 0.198688,1.17226 0.337769,1.74845 0.298031,1.21199 0.755013,1.43056 1.172258,0.59606 0.337769,-0.63579 2.24517,-3.05978 2.58294,-3.27834 0.139081,-0.0795 0.357637,-0.15896 0.47685,-0.15896 0.337769,0 1.172257,1.70872 1.351076,2.76176 0.07948,0.51659 0.337769,1.07292 0.6358,1.37095 0.47685,0.47685 0.635801,0.49672 2.066352,0.13909 0.377507,-0.0993 0.655669,0 1.13252,0.39736 0.536456,0.43712 0.695407,0.49673 0.933832,0.29803 0.456981,-0.3775 0.357638,-0.87422 -0.298032,-1.45041 -0.695406,-0.61593 -0.715276,-0.71527 -0.278162,-1.25173 0.218556,-0.27817 0.337769,-0.3179 0.417244,-0.11922 0.05961,0.13908 0.3179,0.49672 0.576194,0.81463 0.258293,0.29803 0.596062,0.97357 0.774882,1.49015 0.298032,0.89409 0.298032,0.95369 -0.07948,1.5895 -0.337769,0.55632 -0.377507,0.69541 -0.15895,0.89409 0.337768,0.2583 0.6358,0.0397 1.430551,-1.03317 0.357637,-0.47685 0.615932,-0.67554 0.695407,-0.53646 0.09934,0.15895 0.178819,0.11922 0.278162,-0.0993 0.198688,-0.51659 0.139081,-1.17226 -0.178819,-2.42399 -0.15895,-0.61593 -0.298031,-1.25173 -0.298031,-1.39081 0,-0.23843 1.311339,-1.25173 1.629239,-1.25173 0.07947,0 0.158949,0.3775 0.198687,0.83448 0.05961,0.73515 0.139082,0.89409 0.675538,1.11265 0.317901,0.15896 0.854358,0.67554 1.152389,1.15239 0.655669,1.05304 0.854357,1.17226 1.211995,0.87422 0.238425,-0.19868 0.178819,-0.39737 -0.317901,-1.31133 -0.655669,-1.13252 -0.556325,-1.2716 0.47685,-0.75502 1.013307,0.53647 1.609371,1.05305 1.927271,1.72859 0.47685,0.99344 1.589501,0.89409 1.589501,-0.13908 0,-0.23843 0.238426,-0.75502 0.516588,-1.13252 0.596063,-0.79475 0.576195,-1.25174 -0.238425,-5.30496 -0.15895,-0.79476 0.258294,-0.89409 0.437113,-0.0993 0.417244,1.92727 0.755013,2.76175 1.370945,3.37769 0.735144,0.73514 1.112651,0.81462 1.569632,0.33776 0.397375,-0.3775 0.397375,-0.49671 0.01987,-0.99343 -0.794751,-1.05305 -0.01987,-1.66898 2.106089,-1.66898 1.351076,0 1.589502,0.0596 2.284909,0.57619 1.251732,0.91397 1.867664,1.56963 1.867664,1.98688 0,0.45698 0.6358,0.71527 1.11265,0.45698 0.218557,-0.11921 0.735145,-0.0397 1.649108,0.27817 1.728583,0.61593 5.066535,0.6954 5.36457,0.11921 0.337768,-0.6358 -0.09934,-1.03318 -1.112654,-1.03318 -0.774882,0 -0.993439,-0.0993 -1.668976,-0.77488 -0.953701,-0.9537 -1.053045,-1.70872 -0.218557,-2.02661 0.755014,-0.29804 1.708715,-0.11922 3.41743,0.61593 0.81462,0.35763 2.086222,0.83448 2.821362,1.09277 0.735146,0.25831 1.708715,0.69542 2.205437,0.97358 1.351077,0.79475 1.529895,0.29803 0.437112,-1.1524 l -0.715276,-0.91395 h 0.496717 c 0.258294,0 1.112653,0.3179 1.887534,0.71527 1.430551,0.73514 2.066352,0.79475 2.165692,0.25829 0.0596,-0.3179 -2.046477,-1.76831 -2.5432,-1.76831 -0.536457,0 -3.417423,-3.09953 -4.410863,-4.76851 -0.556326,-0.93383 -1.192127,-1.9074 -1.390816,-2.16569 -0.198684,-0.27817 -0.298028,-0.55633 -0.198684,-0.65567 0.139079,-0.13909 2.841233,0.85435 3.337949,1.25173 0.119215,0.0993 1.370947,0.61593 2.801498,1.15239 1.410682,0.53645 2.940576,1.15238 3.357816,1.37095 0.91396,0.45697 3.07966,0.65566 3.21874,0.27816 0.0398,-0.11921 -0.25829,-0.63581 -0.65567,-1.11266 -0.83448,-1.03317 -1.09278,-2.08622 -0.61593,-2.56307 0.45698,-0.45698 3.33795,-1.33121 4.37113,-1.33121 0.59606,0 1.21199,0.19869 1.92726,0.59607 2.32465,1.29147 2.78163,1.45042 3.09953,1.13252 0.33777,-0.33777 0.35764,-0.31791 -1.3312,-1.54977 -1.17226,-0.87422 -1.33121,-1.07291 -1.58951,-1.98687 -0.21855,-0.73514 -0.0795,-0.81462 1.41068,-0.79475 1.37096,0 2.82137,0.6954 3.02006,1.41069 0.0795,0.31789 0.23842,0.41723 0.57619,0.35763 0.41725,-0.0596 0.47686,-0.19869 0.5762,-1.31134 0.17882,-1.76832 0.55632,-2.12596 2.30478,-2.12596 1.51002,0 1.86766,-0.33777 0.81462,-0.79475 -0.35764,-0.15895 -0.87424,-0.45698 -1.13252,-0.67554 l -0.49672,-0.3775 0.35763,-0.8941 c 0.35764,-0.97357 0.37752,-0.99343 2.46373,-1.23186 0.81462,-0.11921 1.13253,-0.0596 1.39082,0.17882 0.19868,0.15895 0.83448,0.51659 1.43055,0.79475 0.59606,0.27816 1.37094,0.67554 1.68885,0.8941 0.33777,0.23841 0.79474,0.41723 1.05304,0.41723 0.73514,0 0.51659,-0.63579 -0.43711,-1.25172 -0.47686,-0.29804 -1.60938,-1.19213 -2.52334,-2.00676 -1.86766,-1.60936 -2.32464,-1.90739 -3.02005,-1.90739 -0.25829,0 -0.63581,-0.19869 -0.85436,-0.41725 -0.19868,-0.23842 -0.81461,-0.73513 -1.37094,-1.07292 -0.53646,-0.35763 -1.25173,-0.93382 -1.56964,-1.27159 l -0.57619,-0.59606 1.07292,0.0993 c 0.59605,0.0596 1.74845,0.29804 2.56306,0.51659 1.35108,0.33777 2.12596,0.49672 5.76195,1.17225 2.58294,0.45699 4.25191,0.63581 10.55032,1.13253 2.00674,0.15895 1.82792,0.0397 5.86127,4.13269 2.56308,2.58295 4.09297,3.6956 4.49035,3.29822 0.57618,-0.57619 -1.27161,-3.57638 -3.07967,-4.98706 -0.71527,-0.55633 -1.3312,-1.13252 -1.3908,-1.29147 -0.17883,-0.45698 0.41724,-1.09278 1.17225,-1.23187 0.49672,-0.0795 0.67554,-0.21855 0.63581,-0.43711 -0.0397,-0.21855 -0.53647,-0.41724 -1.66898,-0.6358 -1.49016,-0.27816 -3.05979,-1.03317 -3.05979,-1.45041 0,-0.0795 -0.33777,-0.3179 -0.73515,-0.49672 -0.99343,-0.45699 -3.4373,-1.96701 -6.05997,-3.77507 -1.49016,-1.0133 -2.18557,-1.60938 -2.26504,-1.94714 -0.0795,-0.27817 -0.0795,-0.55633 -0.0199,-0.61593 0.0795,-0.0596 0.97357,-0.0993 1.98688,-0.0993 1.39081,0 2.00674,0.0795 2.36438,0.31791 0.45698,0.29802 0.51659,0.29802 0.75501,0.0199 0.43712,-0.51659 -0.61593,-1.43054 -1.96701,-1.70872 -2.08622,-0.45697 -1.76831,-0.59606 0.97357,-0.45697 3.51678,0.19869 11.08677,0.19869 11.78218,0.0199 0.53645,-0.13908 0.71527,-0.59607 0.3179,-0.85437 -0.11921,-0.0596 -1.23186,-0.0199 -2.46373,0.11922 -2.14582,0.23843 -2.30477,0.23843 -3.41742,-0.15895 -0.6358,-0.23843 -1.33122,-0.45698 -1.54977,-0.49672 -0.25829,-0.0596 -0.17882,-0.0993 0.21855,-0.11921 0.33778,0 1.03319,-0.0795 1.54978,-0.13909 l 0.91396,-0.13907 -0.59606,-0.43712 c -0.45699,-0.33776 -0.99344,-0.47685 -2.22531,-0.55632 -0.89409,-0.0795 -1.70871,-0.21855 -1.80805,-0.31791 -0.13909,-0.13907 -0.0795,-0.3775 0.13907,-0.73514 0.1987,-0.27816 0.27817,-0.59606 0.17882,-0.67554 -0.0795,-0.0795 -1.31134,-0.19868 -2.74188,-0.25829 -3.02006,-0.0993 -4.27178,-0.47685 -5.64273,-1.72858 -0.9537,-0.87423 -2.1657,-1.19212 -3.17901,-0.83449 -0.55632,0.19869 -0.81461,0.13908 -0.81461,-0.15895 0,-0.0795 0.27816,-0.19868 0.59605,-0.27817 0.67554,-0.11921 0.99345,-0.65566 0.5762,-0.93382 -0.15895,-0.0993 -1.39081,-0.17882 -2.76176,-0.17882 -1.37095,0 -2.84123,-0.0993 -3.25847,-0.21856 -1.41069,-0.39737 -0.27817,-0.6358 3.45716,-0.75501 3.29821,-0.11922 3.47703,-0.13908 3.47703,-0.51659 0,-0.37751 -0.17882,-0.39738 -4.27178,-0.5166 -4.31153,-0.1192 -5.54339,-0.29802 -7.64947,-1.09277 -1.25173,-0.47685 -1.49016,-0.6358 -1.49016,-0.97358 0,-0.17882 0.33777,-0.31789 0.9537,-0.41723 0.51659,-0.0596 1.03318,-0.1987 1.13252,-0.29804 0.11921,-0.0795 0.61593,-0.17882 1.09279,-0.21855 0.73513,-0.0397 0.89409,-0.11922 0.89409,-0.45698 0,-0.37751 -0.15896,-0.39738 -3.67573,-0.49672 l -3.67572,-0.0993 -1.39081,-0.99345 c -0.77488,-0.53645 -2.50347,-1.72858 -3.87441,-2.66241 -1.37095,-0.91396 -2.84123,-1.96701 -3.29821,-2.34451 -1.01331,-0.81462 -2.046483,-1.25174 -3.000187,-1.25174 -0.73514,0 -4.311518,-0.47685 -5.126139,-0.6954 -0.258293,-0.0596 -0.635801,-0.59607 -1.053043,-1.43055 -0.357638,-0.77489 -1.569637,-2.50346 -2.821369,-4.03336 -1.192125,-1.47029 -2.980315,-3.73533 -3.973754,-5.0268 -1.470289,-1.88754 -2.106089,-2.52333 -3.318083,-3.35782 -0.834488,-0.55633 -2.463727,-1.90741 -3.616115,-3.02006 -1.887533,-1.78819 -2.125959,-2.10608 -2.344515,-3.00018 -0.397376,-1.66897 -1.569632,-4.37113 -2.483596,-5.80168 -0.476851,-0.73515 -1.231863,-1.98687 -1.649107,-2.74189 -0.437114,-0.77488 -1.072914,-1.84779 -1.430552,-2.42399 -0.357638,-0.55632 -0.874225,-1.49015 -1.132519,-2.08622 -0.278163,-0.5762 -0.774882,-1.5299 -1.112651,-2.12596 -0.456982,-0.81462 -0.596064,-1.31134 -0.596064,-2.10609 0,-0.81462 -0.178818,-1.41068 -0.913963,-2.90083 -0.496718,-1.03319 -1.192126,-2.68229 -1.529894,-3.65585 -0.596064,-1.74846 -0.596064,-1.88754 -0.755014,-7.25211 -0.337769,-11.18612 -0.536457,-13.51076 -1.331208,-15.5175 -0.337768,-0.83449 -3.298214,-5.185753 -4.728766,-6.954073 -1.470288,-1.78819 -1.470288,-2.006746 0.05961,-2.384252 1.053044,-0.278163 1.629238,-0.953701 1.668976,-1.947139 0.01987,-0.456982 0.05961,-0.556326 0.119213,-0.278163 0.119213,0.615932 0.814619,0.615932 0.933832,0 0.05961,-0.238426 0.238425,-1.192126 0.397376,-2.106089 0.178819,-0.933832 0.397374,-1.768321 0.496718,-1.867664 0.09934,-0.09934 0.238425,0.496718 0.3179,1.549763 0.119213,1.390813 0.07948,1.967008 -0.198687,2.861102 -0.49672,1.629239 -0.47685,2.086221 0.01987,2.165696 0.298032,0.03973 0.615932,-0.15895 1.033176,-0.655669 0.317901,-0.417244 0.933832,-0.9537 1.351076,-1.211995 l 0.774882,-0.456981 0.516588,0.615931 c 0.397375,0.456982 0.596063,0.576194 0.933832,0.476851 0.377506,-0.119213 0.437113,-0.298031 0.456982,-1.172257 0.03974,-1.351076 0.238425,-2.245171 0.47685,-2.125959 0.218557,0.119213 0.238425,0.65567 0,1.430551 -0.119212,0.47685 -0.07948,0.556325 0.278163,0.556325 0.218556,0 0.516587,-0.13908 0.65567,-0.317899 0.13908,-0.15895 0.556324,-0.576195 0.894094,-0.913964 0.755013,-0.715275 1.053044,-1.60937 1.053044,-3.099527 0,-0.556326 0.05961,-1.033176 0.139081,-1.033176 0.07948,0 0.337769,0.198688 0.615932,0.437113 l 0.476851,0.456981 0.576194,-0.695406 c 0.3179,-0.377507 0.953701,-1.231864 1.410682,-1.887533 0.456982,-0.655669 1.211995,-1.649107 1.688846,-2.185564 0.47685,-0.556325 1.192125,-1.370946 1.60937,-1.847795 0.596063,-0.675539 0.953701,-0.894095 1.887533,-1.13252 1.529894,-0.397376 1.887532,-0.377507 2.821364,0.198688 0.437113,0.278162 0.9537,0.496718 1.13252,0.496718 0.437113,0 10.689395,5.126142 10.689395,5.344698 0,0.09934 0.417248,0.556326 0.913965,1.033176 0.496716,0.476851 1.370946,1.728583 1.967007,2.761759 0.576197,1.033175 1.569631,2.602809 2.185568,3.477034 0.993433,1.430551 1.112647,1.688846 1.053042,2.483595 -0.03976,0.774883 0,0.894096 0.337768,0.894096 0.774886,0 0.655676,-0.993439 -0.576196,-5.066536 -0.437113,-1.430551 -1.112648,-3.934015 -1.827924,-6.814987 -0.218559,-0.874226 -0.715276,-2.006746 -1.430551,-3.179002 -0.615931,-1.013307 -1.390817,-2.503465 -1.748454,-3.318084 -0.814615,-1.847796 -1.54976,-2.74189 -3.099526,-3.794934 -2.761733,-1.867975 -6.894437,-3.199182 -12.100053,-3.834983 -1.351077,-0.178818 -3.198873,-0.556325 -4.092967,-0.834488 -2.443858,-0.774882 -8.464094,-4.152572 -9.83504,-5.543386 -0.516587,-0.496718 -1.351076,-2.602808 -1.728582,-4.271784 -0.119213,-0.49672 -0.834488,-2.145827 -1.629238,-3.655853 -0.794751,-1.510027 -1.867665,-3.755197 -2.404122,-4.947324 -0.516587,-1.211995 -1.211993,-2.523333 -1.529894,-2.920708 -0.298032,-0.377506 -0.755013,-1.072914 -0.97357,-1.510026 -0.218556,-0.437113 -0.556325,-0.933832 -0.735145,-1.072914 -0.198686,-0.158949 -0.536456,-0.735144 -0.794749,-1.291469 -0.238426,-0.536457 -0.794751,-1.45042 -1.231865,-1.986877 -1.11265,-1.410683 -1.847795,-2.543202 -1.847795,-2.821365 0,-0.417244 2.682284,-0.3179 3.973754,0.139082 0.596062,0.218556 1.291469,0.377506 1.549764,0.397375 0.615931,0 2.165695,-0.81462 3.21874,-1.688845 1.529895,-1.29147 1.867664,-1.390814 4.053228,-1.351077 1.649108,0.03974 2.145827,0.139082 2.900841,0.536456 1.033175,0.536457 4.967191,1.390815 5.563254,1.211996 1.033173,-0.317903 1.56963,-2.086223 0.854355,-2.722025 C 73.719021,37.081515 73.063351,36.803352 72.467288,36.644402 71.235425,36.306633 70.420805,36.048339 68.990254,35.472145 68.453798,35.253589 67.59944,34.975426 67.10272,34.876082 66.606002,34.776742 65.235057,34.478707 64.023062,34.220413 62.830936,33.962118 60.367209,33.4654 58.559151,33.127631 53.90986,32.273273 53.631697,32.154062 52.002458,30.326135 51.009021,29.213484 50.273876,28.61742 49.2407,28.080964 47.392905,27.107395 46.419335,25.875531 45.644453,23.511148 45.505372,23.093903 44.770227,21.822303 44.015215,20.689783 L 42.6244,18.623431 43.041644,17.769075 c 0.238426,-0.476851 0.417244,-1.072914 0.417244,-1.311339 0,-0.576194 -0.695406,-1.748452 -1.192125,-2.006745 C 41.968732,14.29204 41.928994,14.053615 42.008469,12.623064 42.16742,10.079861 42.16742,10.000386 41.6707,8.8281289 41.213719,7.7154783 41.213719,7.6956094 41.551488,6.6624338 41.889256,5.6888643 41.889256,5.5497826 41.591228,4.834507 41.173984,3.8212003 41.193854,3.0661868 41.670708,2.1323551 42.246902,1.019704 42.187296,0.60246007 41.15412,-1.5433691 c -0.794751,-1.649104 -0.894094,-2.0067425 -0.774882,-2.7220175 0.218557,-1.2914727 1.132519,-1.9272737 1.867664,-1.2716027 0.536457,0.456982 2.821365,1.0729139 4.390998,1.1921278 1.76832,0.1192086 2.265039,0.4371124 3.039922,1.8676634 0.317899,0.5761915 0.894094,1.2914665 1.2716,1.58950067 1.629238,1.2318635 1.708713,1.3510757 1.549764,2.52333313 -0.139082,1.1523884 0.119212,1.5895012 0.576194,0.9735695 0.238425,-0.3179001 0.278163,-0.2781629 0.397375,0.4371127 0.119213,0.6556695 0.03974,0.9934385 -0.357638,1.7683202 -0.278162,0.5165884 -0.516587,1.1325201 -0.516587,1.3312073 0,0.3179006 0.09934,0.3576378 0.695406,0.2384256 0.794751,-0.1390817 0.755013,-0.2384256 0.774882,2.1855641 0.01987,1.0729134 0.09934,1.5895009 0.278162,1.6491079 0.119213,0.05961 0.238426,-0.03974 0.238426,-0.198688 0,-0.1788188 0.119213,-0.3377688 0.258294,-0.3973755 0.298031,-0.099343 0.913963,1.9868775 0.933833,3.2386095 0.01987,1.152388 0.417243,2.284908 0.794749,2.284908 0.218558,0 0.278163,-0.139081 0.198688,-0.496719 -0.178819,-0.874225 -0.09934,-2.841234 0.178818,-4.271785 C 57.188213,9.0268167 57.188213,8.9076039 56.572281,6.5034832 56.075563,4.5563442 55.896743,3.4039558 55.7974,1.1985228 c -0.139081,-3.1392642 -0.119213,-3.0597893 -1.867664,-4.3909959 -0.536457,-0.3973786 -1.410682,-1.3312077 -1.947139,-2.0663532 -0.615931,-0.854354 -1.728583,-1.947137 -3.099527,-3.039921 -1.291471,-1.033174 -2.245171,-1.9670077 -2.404122,-2.3246457 -0.357637,-0.81462 -2.205433,-3.119396 -3.198872,-3.973755 -0.45698,-0.377503 -1.152388,-0.854355 -1.549762,-1.072914 -0.417244,-0.198683 -1.112652,-0.675536 -1.529896,-1.013304 -1.668977,-1.370946 -3.238609,-1.768319 -4.649291,-1.152387 z M -14.677122,88.22372 c 0.238426,0.178819 0.337769,0.456982 0.278164,0.834489 -0.05961,0.6358 -0.556327,0.834487 -1.470289,0.615931 -0.377507,-0.09934 -0.476851,-0.258294 -0.476851,-0.794751 0,-0.357637 0.05961,-0.715276 0.139082,-0.774881 0.218556,-0.238426 1.152388,-0.158951 1.529894,0.119212 z m 1.907402,0.814619 c 0,0.536457 -0.437113,0.97357 -0.874225,0.874226 -0.258295,-0.05961 -0.258295,-0.139082 -0.01987,-0.715275 0.337769,-0.755013 0.894095,-0.854358 0.894095,-0.158951 z m 8.9210761,0.675539 c 0.1589508,0.298031 0.079476,0.496719 -0.4371124,0.993438 -0.3576375,0.357637 -0.7748814,0.6358 -0.9338322,0.6358 -0.1390813,0 -0.4768504,0.198688 -0.7351445,0.417245 -0.3576375,0.337769 -0.4768503,0.377506 -0.5563252,0.15895 -0.4569819,-1.251732 -0.6954065,-2.066353 -0.6954065,-2.284909 0,-0.218556 0.377507,-0.278162 1.5895007,-0.278162 1.3312077,0 1.6093703,0.05961 1.7683201,0.357638 z m 30.9356689,3.755196 c -0.139081,2.741891 -0.536457,4.629422 -0.973569,4.629422 -0.298032,0 -4.887716,-2.046482 -4.907586,-2.185564 0,-0.05961 0.675539,-0.456981 1.510027,-0.894094 1.529894,-0.794751 2.443858,-1.649107 3.596247,-3.337953 0.357637,-0.516587 0.715276,-0.933831 0.774881,-0.933831 0.07948,0 0.07948,1.231863 0,2.72202 z"
       id="path4-3"
       style="fill:#6a6454;fill-opacity:1;stroke:none;stroke-width:0.0352778" />
  </g>
  <g
     inkscape:groupmode="layer"
     id="layer3"
     inkscape:label="attack"
     style="display:none">
    <path
       d="m -13.466846,-2.45189 c -0.203651,0.4073016 -0.162921,0.6313175 0.162921,1.1811749 0.448031,0.75351 6.0077036,8.10531 14.8257912,19.6115911 3.2584156,4.256304 7.2499756,9.46977 8.8588178,11.608105 2.362351,3.11586 9.877072,12.931838 10.610217,13.868632 0.122189,0.142557 -0.203652,1.038621 -0.83497,2.341987 -1.323732,2.810383 -1.710668,4.439591 -1.445922,6.35391 0.101822,0.814605 0.203651,2.158701 0.203651,2.99367 0.02036,0.834969 0.12219,2.566002 0.224016,3.849004 0.203651,2.504907 0.0611,9.856707 -0.203651,11.017517 -0.08146,0.386938 -0.162921,1.344098 -0.183285,2.117971 -0.02037,0.773873 -0.08146,1.486652 -0.162921,1.588478 -0.0611,0.12219 -0.142556,1.629208 -0.203652,3.380606 -0.08146,3.258415 -0.264746,4.459957 -0.794239,5.294925 -0.407303,0.610954 -0.834969,2.99367 -0.997889,5.437481 -0.04074,0.672049 -0.08146,1.262635 -0.101822,1.323732 -0.02036,0.0611 -0.04072,0.16292 -0.04072,0.224016 0,0.0611 -0.0611,0.448032 -0.162922,0.855335 -0.101822,0.448031 -0.08146,0.753509 0.02036,0.753509 0.122191,0 0.101823,0.203649 -0.04074,0.427666 -0.162922,0.305477 -0.162922,0.488763 0,0.570224 0.142555,0.101822 0.101822,0.52949 -0.142557,1.344095 -0.224016,0.733143 -0.427666,1.12008 -0.529492,0.95716 -0.08146,-0.122191 -0.224016,-0.244383 -0.346207,-0.244383 -0.224016,0 -1.283001,2.219798 -1.262636,2.647461 0.04073,0.386937 -0.529492,1.466295 -0.916428,1.751403 -0.162923,0.122187 -0.244383,0.325847 -0.162923,0.448031 0.162923,0.264754 -1.608842,4.093379 -2.077239,4.439589 -0.183286,0.14256 -0.570223,0.28511 -0.8349693,0.28511 -0.2647459,0 -0.7738732,0.30548 -1.1608104,0.69241 -0.5702231,0.57023 -0.6924132,0.83497 -0.6924132,1.60886 0,0.48876 0.1018222,1.20152 0.2240158,1.54774 0.2036515,0.57022 0.1832858,0.6924 -0.1832858,0.9368 -0.224017,0.1629 -0.5498574,0.65168 -0.7127776,1.09971 -0.1832869,0.44803 -0.4276672,0.85533 -0.5294929,0.91643 -0.1221902,0.0814 -0.3054771,0.69241 -0.4480317,1.36446 -0.142557,0.69241 -0.3869384,1.32373 -0.5905898,1.46629 -0.4480317,0.32584 -0.6720476,1.8125 -0.4480317,3.03441 0.1832869,0.93679 0.1629213,0.95715 -0.5498574,1.52738 -3.767543,2.95294 -7.5554515,6.70011 -12.1375978,11.97467 -4.6636082,5.37639 -6.2113562,7.37217 -6.2113562,8.00349 0,0.4684 0.448033,0.0814 3.400971,-3.01404 4.6228777,-4.84689 6.4761025,-6.65939 9.22539068,-8.94027 2.56600242,-2.13835 5.07090912,-3.99157 5.21346612,-3.82865 0.040736,0.0408 -0.3665728,0.9368 -0.9164302,1.99578 -0.5498574,1.05898 -1.0589848,2.11797 -1.1200804,2.36235 -0.2240171,0.73315 -2.1587008,4.17485 -2.66782816,4.74508 -0.59058746,0.67204 -1.62920774,2.26052 -2.15870074,3.29914 -0.875699,1.71067 -5.824418,8.98101 -10.6305813,15.59966 -1.995779,2.74929 -3.726812,5.17274 -3.828638,5.37639 -0.183286,0.3462 1.690303,0.36657 50.912746,0.36657 h 51.116389 l -0.101823,-3.11587 c -0.183289,-5.05053 -0.71278,-7.65727 -2.056879,-9.85669 -0.448031,-0.75352 -0.54985,-1.12008 -0.448031,-1.58848 0.244383,-1.14045 0.183291,-4.90799 -0.122185,-7.14815 -0.386938,-2.6271 -0.529491,-12.80964 -0.203658,-13.3595 0.162931,-0.26476 0.427672,0.3462 1.201546,2.8511 0.549858,1.75141 1.079349,3.5639 1.181168,4.01193 0.325853,1.32373 2.484551,6.67975 2.749291,6.76121 0.407308,0.14255 0.733152,-1.34409 0.610965,-2.79001 -0.122196,-1.38484 -0.65169,-3.58426 -0.977533,-3.99156 -0.224016,-0.26475 -1.181178,-3.46207 -2.728925,-8.94028 -0.63132,-2.24016 -1.547746,-5.39674 -2.05687,-7.02597 -0.488765,-1.6292 -0.997897,-3.74718 -1.120084,-4.68398 -0.26474,-2.21978 -0.590593,-3.48242 -1.832855,-7.22961 -1.038623,-3.115855 -1.466286,-4.785788 -1.221913,-4.785788 0.08144,0 0.407304,0.26474 0.733148,0.610951 0.794231,0.834966 1.262628,0.794241 1.445917,-0.101834 0.06108,-0.386936 0.08144,-0.834964 0.02036,-0.977521 -0.162922,-0.448032 -1.466287,-0.957159 -2.443807,-0.957159 -0.875702,0 -0.936796,-0.04074 -1.058992,-0.672048 -0.08144,-0.346207 -0.203646,-0.733144 -0.26474,-0.855334 -0.162922,-0.244382 -0.224014,-0.692414 -0.325844,-2.341987 -0.101834,-1.486652 -0.101834,-1.466287 1.710669,-2.749288 0.610951,-0.427667 1.405192,-0.977525 1.731027,-1.221906 0.346211,-0.244382 0.896069,-0.529492 1.221912,-0.590588 0.794241,-0.183287 2.790018,-1.507017 4.052657,-2.667828 0.549858,-0.509127 1.079349,-0.916429 1.181177,-0.916429 0.08144,0 0.162912,-0.122191 0.18328,-0.264747 0.02036,-0.12219 0.63132,-0.794239 1.384834,-1.466286 1.588476,-1.445922 3.299145,-3.360242 3.543527,-4.011926 0.224006,-0.549857 0.325834,-4.43959 0.162912,-6.170624 -0.08144,-0.672049 -0.08144,-1.608842 0,-2.097605 0.08144,-0.610953 0,-1.099715 -0.244373,-1.629208 -0.203657,-0.407301 -0.71278,-1.527383 -1.16082,-2.484541 -0.448029,-0.95716 -1.303354,-2.749288 -1.893947,-3.971194 -0.570229,-1.242272 -1.038627,-2.301257 -1.038627,-2.403081 0.02036,-0.08146 -0.06107,-0.142557 -0.162922,-0.142557 -0.122187,0 -0.203647,-0.12219 -0.203647,-0.285112 0,-0.162921 -0.06107,-0.325841 -0.142554,-0.366571 -0.244383,-0.101823 -1.690302,-2.952939 -1.690302,-3.319512 0,-0.16292 -0.08144,-0.305476 -0.183289,-0.305476 -0.101822,0 -0.244383,-0.224017 -0.305476,-0.509127 -0.08142,-0.285111 -0.224015,-0.509128 -0.325843,-0.509128 -0.122186,0 -0.203647,-0.224016 -0.203647,-0.509127 0,-0.285111 -0.305476,-0.936794 -0.692412,-1.466287 -0.366579,-0.549858 -0.733148,-1.221906 -0.794242,-1.507017 -0.08144,-0.285112 -0.366569,-0.855334 -0.651686,-1.283001 -0.285108,-0.407303 -0.509124,-0.875699 -0.509124,-1.058986 0,-0.386936 -1.42556,-3.339876 -1.60884,-3.339876 -0.08144,0 -0.305485,-0.325842 -0.488765,-0.712779 -0.18329,-0.386936 -0.488766,-0.712777 -0.651678,-0.712777 -0.16293,0 -0.631328,-0.468398 -1.038622,-1.018255 -0.407305,-0.570223 -0.855335,-1.018256 -0.997889,-1.018256 -0.162922,0 -0.631319,-0.427666 -1.058991,-0.957159 -1.405193,-1.731034 -3.40097,-3.523162 -4.541413,-4.073019 -0.61095,-0.305477 -1.527378,-0.855335 -2.016143,-1.221906 -1.018256,-0.753509 -3.421337,-1.568113 -7.453636,-2.484542 -1.466286,-0.325842 -2.993665,-0.753509 -3.421327,-0.936795 -0.468397,-0.183286 -1.038624,-0.264747 -1.42556,-0.20365 -0.468397,0.08146 -0.957153,-0.02036 -1.771762,-0.427669 -0.610951,-0.285111 -1.323732,-0.610953 -1.568115,-0.712779 -0.26474,-0.101822 -0.468397,-0.32584 -0.468397,-0.529491 0,-0.753508 -0.773873,-2.769654 -1.16081,-3.095496 -0.224015,-0.183286 -0.610951,-0.631317 -0.855334,-0.99789 l -0.448031,-0.651683 0.407295,-0.529492 c 0.244393,-0.305476 0.427672,-0.672049 0.427672,-0.834969 0,-0.264746 -0.773873,-1.527382 -1.018256,-1.629208 -0.162921,-0.101822 0.02036,-2.382716 0.224016,-2.627098 0.122202,-0.16292 0.06108,-0.488761 -0.203642,-0.936793 -0.285108,-0.448033 -0.427672,-1.120082 -0.44804,-1.893955 -0.04071,-0.672049 -0.101822,-1.323732 -0.183279,-1.425558 -0.346211,-0.509126 -0.834977,-2.179065 -0.733148,-2.443811 0.06108,-0.16292 0.02036,-0.305477 -0.08144,-0.305477 -0.264741,0 -1.425551,-1.8532234 -1.425551,-2.3012551 0,-0.1832873 -0.101822,-0.3462075 -0.203652,-0.3462075 -0.325838,0 -1.52738,-1.4255564 -1.52738,-1.8124936 0,-0.1832858 -0.142559,-0.3054771 -0.325845,-0.3054771 -0.183286,0.020374 -0.733143,-0.2851115 -1.201542,-0.6516831 -0.488758,-0.3869361 -0.936791,-0.692412 -1.018252,-0.692412 -0.08146,0 -0.20365,-0.2036514 -0.264746,-0.4276673 C 42.414996,3.4539822 42.27244,3.3521565 42.028059,3.4539822 41.600391,3.6169024 39.462057,2.9652205 39.23804,2.5986477 39.11585,2.4153619 38.871469,2.3746318 38.464167,2.4560931 38.056864,2.5579153 37.771754,2.4968291 37.527372,2.2320761 37.221897,1.9469646 36.896055,1.9062345 35.165021,2.0080602 c -1.405191,0.08146 -2.138336,0.2240159 -2.382716,0.4480329 -0.183287,0.162919 -0.407303,0.2443803 -0.468397,0.1832858 -0.08146,-0.08146 -0.264747,-0.040736 -0.407303,0.1018222 -0.16292,0.1221913 -0.448032,0.1832858 -0.631318,0.1018222 -0.203651,-0.08146 -0.366571,0 -0.448033,0.2036514 -0.142554,0.3869372 -1.140444,0.9571591 -2.016143,1.140446 -0.366572,0.061098 -0.610954,0.2443803 -0.610954,0.4480317 0,0.3869361 -0.814604,1.0793492 -1.608843,1.3848264 -0.285111,0.1018221 -0.610953,0.4073028 -0.712779,0.6720487 -0.101822,0.2647459 -0.509126,0.8349677 -0.916429,1.2626353 -0.407301,0.4276673 -0.712777,0.875699 -0.692413,0.9978903 0.04072,0.2851115 -0.896063,2.1587009 -1.079349,2.1587009 -0.08146,0 -0.203651,0.570222 -0.285113,1.262635 -0.08146,0.71278 -0.20365,1.364462 -0.28511,1.486653 -0.0611,0.101822 -0.142557,0.712778 -0.183287,1.323732 -0.08146,1.608842 -0.101822,1.832859 -0.285112,1.832859 -0.08146,0 -0.16292,0.183285 -0.16292,0.407301 0,0.224015 0.08146,0.407302 0.16292,0.407302 0.101823,0 0.142557,0.509128 0.08146,1.12008 -0.08146,0.936795 -0.02036,1.181176 0.285112,1.405193 0.346206,0.264745 0.346206,0.32584 0.02036,1.058985 -0.346207,0.834968 -0.794239,2.341986 -0.875699,3.034398 -0.04072,0.224017 -0.162921,0.855336 -0.285111,1.425559 -0.305477,1.384826 -0.305477,1.425556 0.183286,3.095494 0.224016,0.814605 0.366571,1.588478 0.305476,1.751398 -0.0611,0.162923 0.02036,0.346207 0.183285,0.407303 0.162922,0.0611 0.468398,0.610953 0.651684,1.20154 0.468397,1.405192 1.262636,2.99367 1.792128,3.563892 0.529494,0.590588 0.99789,0.590588 1.91432,-0.04072 0.794239,-0.529493 0.957159,-0.509128 1.283001,0.101822 0.183285,0.325841 0.02036,0.509128 -1.160811,1.364462 -1.588478,1.099715 -1.486652,0.997889 -2.749288,2.667828 L 22.823765,41.25162 12.274651,27.973572 C 6.4502208,20.662496 -1.0441373,11.192726 -4.3840118,6.9364195 -12.12275,-2.920287 -11.776543,-2.512986 -12.774433,-2.818462 c -0.366572,-0.122191 -0.509128,-0.04074 -0.692413,0.366572 z m 39.121353,35.598191 c 0,0.203652 -0.08146,0.366573 -0.183285,0.366573 -0.224017,0 -0.448031,-0.814604 -0.285112,-1.07935 0.142556,-0.244382 0.468397,0.244381 0.468397,0.712777 z"
       id="path6"
       style="fill:#6a6454;fill-opacity:1;stroke:none;stroke-width:0.0352777" />
  </g>
  <g
     inkscape:groupmode="layer"
     id="layer13"
     inkscape:label="defense"
     style="display:none">
    <g
       transform="matrix(0.02050051,0,0,-0.02050051,-78.951991,163.84758)"
       fill="#000000"
       stroke="none"
       id="g6"
       style="fill:#6a6454;fill-opacity:1;stroke-width:1.72082"
       inkscape:export-filename="C:\Users\FrancescoCottone\Desktop\KesieV\stuff-2022\statscrawler\images\portraits\g6.png"
       inkscape:export-xdpi="47.619999"
       inkscape:export-ydpi="47.619999">
      <path
         d="m 2656,10704 c -15,-38 22,-225 114,-588 201,-787 533,-2056 690,-2631 55,-203 100,-372 100,-376 0,-13 -46,-26 -76,-22 -21,3 -36,-1 -48,-12 -20,-20 -18,-55 4,-65 8,-4 44,-20 80,-37 36,-17 73,-33 83,-37 33,-11 12,-30 -56,-53 -125,-42 -142,-63 -138,-177 3,-88 17,-124 89,-219 59,-78 89,-92 173,-79 35,5 65,9 67,7 9,-8 44,-125 45,-152 1,-18 7,-33 14,-33 7,0 11,-19 11,-51 1,-59 34,-135 63,-144 11,-4 31,0 44,9 35,23 35,99 0,168 -13,27 -24,52 -23,56 1,4 -4,20 -10,35 -19,45 -14,50 21,23 41,-31 115,-65 143,-66 11,0 29,-9 39,-20 10,-11 23,-20 29,-20 6,0 29,-12 51,-27 21,-14 53,-27 71,-27 17,-1 38,-6 45,-12 18,-14 126,-18 134,-5 8,15 52,-4 91,-39 19,-16 51,-32 71,-35 21,-3 60,-11 86,-17 27,-6 62,-7 79,-4 36,7 58,-7 58,-38 0,-11 14,-79 32,-150 17,-72 27,-131 22,-133 -5,-2 -42,-22 -81,-46 -57,-33 -106,-77 -227,-204 -244,-257 -366,-425 -485,-668 -55,-113 -73,-169 -79,-253 -6,-90 13,-146 67,-195 68,-61 468,-197 681,-231 58,-10 129,-25 159,-34 29,-9 64,-15 77,-14 32,2 32,-20 -6,-205 -103,-497 -349,-1202 -594,-1702 -31,-63 -56,-120 -56,-127 0,-52 257,-216 499,-319 l 75,-32 19,-119 c 10,-65 19,-156 20,-202 2,-65 6,-86 18,-96 32,-23 94,-385 70,-409 -14,-14 -15,-64 -1,-72 15,-9 12,-57 -6,-106 -17,-48 -20,-160 -4,-189 8,-15 4,-28 -15,-56 -14,-21 -28,-49 -32,-63 -3,-14 -15,-45 -25,-69 -23,-52 -37,-130 -43,-239 l -4,-82 494,-1 h 494 l 18,32 c 11,22 18,60 20,113 3,102 10,186 17,192 2,3 1,16 -4,29 -8,19 -6,24 6,24 13,0 14,3 5,14 -9,11 -9,16 0,22 8,4 9,3 5,-4 -4,-7 -3,-12 3,-12 5,0 13,9 16,20 3,11 11,20 16,20 5,0 9,5 9,11 0,6 16,26 36,45 20,19 34,34 31,34 -3,0 17,23 44,51 27,28 49,55 49,61 0,6 3,9 6,5 4,-3 23,11 44,31 20,21 42,36 48,34 7,-2 12,3 12,12 0,9 4,16 9,16 5,0 24,13 43,30 61,54 123,100 151,111 15,6 27,14 27,19 0,4 11,6 25,5 14,-2 25,0 25,4 0,4 6,8 13,8 6,0 42,10 80,22 75,25 92,45 89,105 -1,30 4,43 23,58 27,21 32,47 13,66 -9,9 -5,19 19,44 55,57 67,119 34,174 -22,36 -125,112 -186,139 -182,78 -187,81 -216,137 -40,78 -21,202 72,475 34,98 76,228 94,288 l 32,110 47,7 c 62,9 130,32 193,67 l 53,29 35,-40 c 19,-22 53,-77 76,-122 l 43,-81 13,45 c 16,53 49,219 60,304 l 8,60 49,-175 c 27,-96 59,-215 71,-265 53,-214 153,-318 178,-186 5,24 -3,64 -28,140 -50,155 -145,496 -145,520 0,11 -9,39 -20,64 -10,24 -84,273 -164,553 -161,567 -212,759 -221,825 -4,24 -11,53 -17,64 -17,32 -48,148 -42,158 4,6 -3,23 -15,39 -11,15 -21,30 -21,33 0,2 75,34 168,71 252,100 282,115 288,140 3,13 -13,69 -40,141 -25,65 -53,150 -61,189 -23,98 -21,265 6,411 22,124 20,193 -6,243 -7,15 -54,70 -103,123 -152,164 -214,273 -259,450 -14,57 -32,116 -40,131 -13,26 -18,29 -60,25 l -45,-3 5,62 c 4,55 9,66 40,97 57,55 70,90 64,164 -17,182 -208,386 -395,422 -44,8 -183,-3 -205,-17 -21,-13 -24,22 -5,53 16,27 19,45 14,96 -2,35 -5,86 -5,114 0,142 -164,387 -316,474 -65,37 -151,59 -234,61 -57,2 -76,-3 -145,-36 -103,-50 -173,-120 -226,-229 -68,-140 -93,-350 -52,-432 12,-23 18,-51 15,-69 -5,-37 17,-92 51,-124 39,-37 34,-49 -21,-44 -74,7 -198,-30 -251,-75 -56,-47 -105,-74 -187,-103 -72,-26 -163,-84 -179,-114 -19,-34 -39,-45 -71,-38 -16,3 -55,7 -86,7 -45,2 -66,9 -108,35 -68,44 -126,51 -180,23 -32,-17 -58,-21 -121,-21 l -80,1 v 29 c 0,56 -46,123 -108,155 -24,12 -24,12 -3,23 25,14 28,53 6,71 -12,10 -21,10 -40,2 -14,-6 -30,-10 -37,-8 -7,3 -25,7 -39,10 -17,4 -31,16 -37,33 -7,16 -52,190 -103,388 -105,416 -354,1375 -469,1805 -43,162 -104,394 -135,515 -123,480 -213,772 -263,857 -19,32 -27,35 -36,12 z M 5582,7918 c 7,-18 -2,-39 -13,-32 -12,7 -12,44 0,44 5,0 11,-6 13,-12 z m 61,-25 c -3,-9 -9,-11 -15,-5 -5,5 -6,17 -2,26 5,13 9,14 14,5 5,-7 6,-19 3,-26 z m -149,11 c 7,-19 -2,-37 -15,-29 -12,8 -12,45 0,45 5,0 12,-7 15,-16 z m 207,-27 c -8,-8 -11,-5 -11,9 0,27 14,41 18,19 2,-9 -1,-22 -7,-28 z m -261,-18 c 0,-11 -4,-17 -10,-14 -5,3 -10,15 -10,26 0,11 5,17 10,14 6,-3 10,-15 10,-26 z m 330,17 c 0,-17 -14,-29 -23,-20 -8,8 3,34 14,34 5,0 9,-6 9,-14 z m -384,-54 c -9,-8 -26,10 -26,26 1,15 2,15 15,-2 8,-11 13,-21 11,-24 z m 428,23 c -4,-8 -10,-12 -15,-9 -11,6 -2,24 11,24 5,0 7,-7 4,-15 z m 46,-25 c 0,-5 -4,-10 -10,-10 -5,0 -10,5 -10,10 0,6 5,10 10,10 6,0 10,-4 10,-10 z m -522,-28 c 6,-18 -15,-14 -22,4 -4,10 -1,14 6,12 6,-2 14,-10 16,-16 z m -38,-38 c 0,-8 -4,-12 -10,-9 -5,3 -10,10 -10,16 0,5 5,9 10,9 6,0 10,-7 10,-16 z m -30,-34 c 0,-5 -4,-10 -10,-10 -5,0 -10,5 -10,10 0,6 5,10 10,10 6,0 10,-4 10,-10 z M 4760,6086 c 0,-11 -19,-15 -25,-6 -3,5 1,10 9,10 9,0 16,-2 16,-4 z M 6110,2862 c 0,-4 -25,-36 -55,-71 -65,-73 -80,-106 -103,-217 -10,-45 -22,-88 -28,-95 -15,-19 -28,-52 -25,-64 1,-5 -3,-4 -10,3 -20,19 -29,15 -29,-13 0,-15 14,-39 36,-61 l 36,-36 2,-248 c 0,-137 -3,-252 -7,-256 -4,-4 -19,4 -33,19 -14,15 -29,25 -35,22 -18,-12 -8,-42 26,-75 l 35,-33 -20,-32 c -10,-17 -24,-51 -30,-75 -38,-147 -27,-159 230,-265 112,-45 151,-65 100,-50 -46,14 -6,-15 69,-50 39,-18 74,-35 78,-38 8,-9 -25,-45 -48,-52 -16,-5 -73,-37 -229,-126 -14,-8 -27,-17 -30,-20 -3,-3 -16,-12 -30,-19 -48,-24 -130,-83 -130,-94 0,-6 -5,-4 -10,4 -7,11 -10,12 -10,2 0,-7 -7,-20 -16,-29 -8,-9 -13,-22 -10,-30 4,-9 2,-11 -6,-7 -8,5 -9,0 -5,-15 4,-18 2,-21 -13,-16 -14,4 -17,1 -15,-12 2,-10 4,-18 5,-18 7,0 6,-36 -1,-41 -6,-3 -5,-11 2,-20 9,-11 9,-14 0,-14 -7,0 -9,-4 -6,-10 3,-5 1,-10 -4,-10 -6,0 -11,-9 -11,-21 0,-11 -4,-18 -9,-15 -5,4 -7,-3 -4,-14 4,-14 0,-20 -12,-20 -16,0 -16,-2 -1,-25 9,-14 12,-25 6,-25 -5,0 -10,-9 -10,-19 0,-11 -9,-23 -21,-26 -20,-7 -19,-9 17,-48 22,-22 -16,10 -83,73 -175,163 -184,175 -188,263 -1,40 -6,135 -10,212 -6,125 -3,174 29,450 53,460 54,465 79,465 31,0 111,89 131,145 9,27 16,70 16,95 0,26 5,62 11,81 13,40 90,213 126,282 27,53 26,96 -3,128 -12,13 -14,28 -9,57 6,38 10,41 77,72 107,50 188,72 188,52 z m -274,-2464 29,-33 -32,29 c -18,17 -33,31 -33,33 0,8 8,1 36,-29 z m 71,-130 c -3,-7 -5,-2 -5,12 0,14 2,19 5,13 2,-7 2,-19 0,-25 z"
         id="path4-5"
         style="fill:#6a6454;fill-opacity:1;stroke-width:1.72082" />
    </g>
  </g>
  <g
     inkscape:groupmode="layer"
     id="layer15"
     inkscape:label="evil"
     style="display:inline">
    <path
       id="path4-6"
       style="fill:#6a6454;fill-opacity:1;stroke:none;stroke-width:0.0352778"
       d="m 24.585303,-7.9213311 c -0.773246,-0.00184 -1.400416,0.00861 -1.733464,0.035037 -3.618108,0.2876302 -5.843559,0.6358012 -8.946958,1.4230053 -6.206797,1.5744063 -11.4446096,4.511221 -14.5631454,8.1898836 -1.8317627,2.1496699 -2.8006427,4.0571836 -3.7997857,7.4784878 -0.2724931,0.9083124 -0.9387802,2.8458814 -1.4837677,4.2991794 -1.1353893,3.042844 -1.4834859,4.541647 -1.7257036,7.584491 -0.2573542,3.17909 0.045522,12.065389 0.4845365,14.593526 0.2422164,1.332194 0.7114669,2.482835 1.3170083,3.148929 0.9083106,0.999147 1.7409441,1.271444 2.4373175,0.787013 0.772065,-0.544984 0.8173623,-0.938427 0.9384696,-6.797035 0.1211084,-6.176523 0.24235,-7.039504 1.4988473,-10.309427 1.3019135,-3.330475 1.83168853,-5.056268 2.1193206,-6.812338 l 0.2876168,-1.801542 -0.030157,2.043701 -0.04546,2.043701 -1.0748506,2.34662 c -2.2707802,4.980577 -2.4978431,6.660967 -2.1042413,15.380758 l 0.1361581,3.042713 -0.378538,0.817612 c -0.4541556,0.999141 -1.0443664,1.61972 -2.1494784,2.240402 -1.0899737,0.605541 -1.3626004,1.120172 -1.2717692,2.346395 0.1816625,2.225369 2.7097819,5.934421 4.6020973,6.782179 0.9537269,0.423881 1.71063874,0.317824 3.9208647,-0.545071 1.8923148,-0.741792 3.2850454,-1.150475 3.9208635,-1.150475 0.560126,0 1.4987879,0.499585 1.9680815,1.074851 0.5601273,0.666094 0.772006,1.241371 1.1504692,3.118557 0.666096,3.300196 1.196107,4.556632 2.513159,5.9191 l 0.817391,0.847771 -0.696312,1.044473 c -0.393603,0.575265 -0.847787,1.453486 -1.014312,1.937924 -0.287631,0.847758 -0.287558,0.938408 -0.07562,1.407701 0.302771,0.620684 1.059594,0.999234 2.013321,0.999234 0.893174,0 1.498788,-0.317848 1.741004,-0.923389 0.196802,-0.469299 0.18156,-0.726739 -0.257458,-3.270013 l -0.07562,-0.469233 0.666155,0.07562 c 0.348185,0.04539 0.666035,0.105943 0.696313,0.121081 0.03028,0.03026 -0.121138,0.605613 -0.333078,1.28685 -0.51471,1.619819 -0.529789,2.694626 -0.01507,3.300167 0.560126,0.666094 1.105098,0.832547 2.558397,0.756849 1.438158,-0.07568 1.967949,-0.317702 2.285858,-1.074625 l 0.211999,-0.48454 0.01508,0.408702 c 0,0.484429 0.439002,0.984058 0.96885,1.120305 0.21194,0.04539 1.074925,0.06046 1.907542,0.03019 1.483576,-0.04539 1.559299,-0.06046 1.922625,-0.484313 0.348185,-0.408739 0.378387,-0.545058 0.302695,-1.28685 -0.06056,-0.469294 -0.227151,-1.33222 -0.378537,-1.922622 l -0.272537,-1.089933 0.696534,-0.07561 c 0.378464,-0.04539 0.696255,-0.06053 0.711393,-0.06053 0.01514,0.01512 -0.07559,0.408695 -0.196697,0.862851 -0.12111,0.454156 -0.257445,1.377546 -0.317998,2.058783 -0.09083,1.195941 -0.07567,1.226173 0.333077,1.544082 0.605541,0.484437 1.52902,0.681367 2.603856,0.590538 1.120252,-0.105971 1.816624,-0.423924 2.043702,-0.953773 0.211939,-0.439018 -1.6e-5,-2.270841 -0.393616,-3.391086 -0.12111,-0.363328 -0.212058,-0.681177 -0.19692,-0.696314 0.01514,-0.01512 0.53001,-0.07561 1.150691,-0.136164 l 1.120088,-0.105999 -0.105773,0.57524 c -0.181662,1.135388 -0.28781,2.755102 -0.18184,3.148711 0.227078,0.908305 1.589545,1.226307 3.179091,0.772151 1.831761,-0.529848 2.180036,-1.680452 1.22631,-4.011781 -0.287633,-0.696375 -0.529776,-1.437983 -0.529776,-1.634784 0,-0.257356 0.499438,-0.878124 1.680243,-2.13462 2.331335,-2.422172 2.679534,-2.982348 3.118553,-4.980637 0.423878,-1.937734 0.847728,-2.634048 1.937701,-3.19417 1.05969,-0.560127 2.149686,-0.51468 4.026861,0.106 2.52814,0.878037 4.375018,0.696222 5.737487,-0.529996 2.119398,-1.907453 3.300202,-6.025029 2.270781,-7.917345 -0.333041,-0.60554 -0.54501,-0.771993 -1.922621,-1.438087 -2.376748,-1.180806 -2.724901,-1.619922 -2.846017,-3.663628 l -0.06053,-1.180848 0.181621,0.984151 c 0.439019,2.149672 1.498745,3.042774 2.830934,2.3464 0.938592,-0.484437 1.907441,-2.331257 2.785472,-5.298413 0.893182,-3.012566 1.059776,-4.299491 1.059776,-7.796487 0,-3.436446 -0.136234,-4.314408 -1.19593,-7.796269 C 56.005162,16.683501 55.490452,14.942571 55.172547,13.822319 54.233955,10.567537 53.113607,8.1151692 51.281839,5.3448217 49.919345,3.3010706 49.207867,2.4077656 47.527491,0.66683433 42.592328,-4.4651351 38.141751,-6.7813453 31.480799,-7.6745176 30.538426,-7.7994107 26.905046,-7.9156555 24.585303,-7.9213311 Z M 1.9427083,10.821685 c 0.010408,-0.0027 0.021686,0.0031 0.033042,0.01818 0.045418,0.04542 0.060493,0.181868 0.015075,0.287839 -0.045418,0.12111 -0.090698,0.07559 -0.090698,-0.09092 -0.011354,-0.124894 0.011354,-0.207297 0.042575,-0.215102 z m -0.3029179,1.362467 c 0.010408,-0.0027 0.021913,0.0031 0.033264,0.01819 0.045418,0.04542 0.060493,0.181868 0.015082,0.287839 -0.045418,0.12111 -0.09092,0.07561 -0.09092,-0.09092 -0.011354,-0.124894 0.011354,-0.207297 0.042575,-0.215102 z M 1.5056277,13.28539 c 0.00922,0.0024 0.019689,0.01455 0.031046,0.03725 0.030275,0.105971 0.030275,0.287705 0,0.378537 -0.045418,0.105971 -0.075619,0.03032 -0.075619,-0.181619 0,-0.158954 0.016901,-0.24127 0.044572,-0.234173 z m 7.2095021,12.687093 c 0.748411,-0.02151 1.6094012,0.0174 2.6009732,0.111987 3.754356,0.363322 6.222039,1.286789 7.069797,2.664395 0.71151,1.135388 0.696268,4.147911 -0.03039,6.085646 -0.257354,0.711512 -0.575218,1.120354 -1.771163,2.301153 -0.81748,0.78721 -2.089028,1.877032 -2.861093,2.422018 -2.815767,1.983151 -4.0118137,2.331336 -5.4802506,1.589549 C 7.3195578,40.677938 6.063179,39.466834 5.4879148,38.482836 4.5493257,36.878149 3.943696,33.62356 4.0345273,30.656404 4.0799449,28.854924 4.1102647,28.688237 4.5341426,27.916171 5.2380845,26.644538 6.4698938,26.037055 8.715127,25.972483 Z M 50.34844,26.258544 c 0.333525,-0.01703 0.373307,0.476957 0.464136,2.248165 0.06058,1.211078 0.06058,2.800481 0,3.557405 l -0.09069,1.362469 -0.105999,-1.816625 c -0.07569,-1.453299 -0.181652,-2.043701 -0.514696,-2.952013 -0.605536,-1.634962 -0.635945,-2.028458 -0.19692,-2.240396 0.189234,-0.09083 0.333009,-0.153327 0.44417,-0.159005 z m -13.855074,0.03595 c 0.425772,-0.0055 0.959434,-0.0055 1.496852,0.0018 1.498715,0.04539 2.195088,0.121025 2.952014,0.363235 2.058834,0.666094 3.527371,2.104316 3.724167,3.618168 0.24221,1.922597 -0.439044,7.629809 -1.01431,8.689505 -0.211945,0.363321 -0.605438,0.711596 -1.105012,0.999226 -0.711511,0.393602 -0.893188,0.423779 -2.437317,0.423779 -1.559269,0 -1.725911,-0.03039 -2.694775,-0.484535 -3.103399,-1.46844 -6.797245,-5.010752 -7.539031,-7.236115 -0.287633,-0.893175 -0.242128,-2.755255 0.09092,-3.451629 0.620681,-1.317057 2.67952,-2.376765 5.676949,-2.891476 0.105971,-0.01514 0.423775,-0.02647 0.849545,-0.03216 z M 23.987228,35.92446 c 0.06056,0 0.363221,0.318014 0.650854,0.71161 0.756925,1.029422 3.391163,5.797955 3.996704,7.236115 0.287633,0.666094 0.620664,1.619971 0.741772,2.119545 0.257357,1.105113 0.272376,2.876333 0.03016,3.572707 -0.272494,0.80234 -0.999159,1.771208 -1.529007,2.0437 l -0.469234,0.257239 -0.484537,-0.560159 c -0.272494,-0.31791 -0.878034,-1.226056 -1.362467,-2.028397 -1.014281,-1.725796 -1.498566,-2.301159 -1.967861,-2.301159 -0.560126,0 -1.211246,0.69646 -1.831925,1.907539 -0.650957,1.317051 -0.98393,1.589427 -1.438086,1.165551 -0.272493,-0.242218 -0.30277,-0.393577 -0.227078,-1.483546 0.06056,-0.75693 0.318013,-2.013501 0.711613,-3.330552 0.333049,-1.165668 0.787073,-2.936802 0.999011,-3.935942 0.211939,-0.999141 0.575397,-2.301012 0.817613,-2.906553 0.469295,-1.211078 1.150529,-2.467698 1.362468,-2.467698 z m 23.180794,15.314678 c -0.579045,-0.02083 -1.199648,0.05844 -1.608388,0.2477 -0.696369,0.333047 -1.286818,0.953723 -2.316243,2.497857 -0.968866,1.423022 -1.286789,2.07417 -1.756084,3.527466 -0.529848,1.650099 -0.62062,2.13445 -1.150469,5.813111 -0.242216,1.771208 -0.529862,3.497053 -0.620695,3.845243 -0.423878,1.544127 -1.256616,2.603767 -2.921853,3.648325 l -0.89301,0.560153 0.105773,-0.393614 c 0.04542,-0.211938 0.136418,-0.772036 0.181839,-1.256472 0.07569,-0.741785 0.04542,-0.938714 -0.227077,-1.271762 -0.575265,-0.741792 -2.346577,-0.953626 -3.436551,-0.423777 -0.756925,0.363327 -1.680375,1.317136 -1.816622,1.907545 -0.09083,0.363321 0.151326,1.58947 0.469235,2.346393 0.09083,0.242218 0.01522,0.272535 -0.590314,0.272535 -0.378464,0 -0.696314,-0.03045 -0.696314,-0.07583 0,-0.03032 0.105971,-0.45404 0.227078,-0.938471 0.12111,-0.469294 0.227079,-1.241328 0.227079,-1.710622 0,-0.968867 -0.317998,-1.408033 -1.22631,-1.665388 -1.226221,-0.363321 -3.209382,-0.105859 -3.799784,0.484534 -0.287633,0.287635 -0.302772,0.43905 -0.227078,1.695546 0.04542,0.756929 0.151325,1.559166 0.242156,1.786247 0.151386,0.393601 0.13639,0.393601 -0.605392,0.454151 -0.40874,0.01512 -0.741774,0.04546 -0.741774,0.04546 0,-0.01514 0.151253,-0.423883 0.317776,-0.908312 0.21194,-0.590404 0.333018,-1.301817 0.348157,-2.013323 0.01514,-0.99914 -0.01511,-1.135553 -0.348157,-1.377771 -0.726649,-0.560122 -4.072116,-0.514662 -4.692795,0.04546 -0.423879,0.378466 -0.424042,1.816743 -0.01529,3.148931 0.166523,0.514717 0.302918,0.968793 0.302918,0.98393 0,0.105971 -1.513912,0.03032 -1.574466,-0.07561 -0.04542,-0.07569 0.03035,-0.408831 0.15146,-0.772159 0.121109,-0.348183 0.257221,-1.150543 0.317776,-1.756082 0.07569,-0.92345 0.0454,-1.196022 -0.166539,-1.513925 -0.363325,-0.560129 -1.120147,-0.832474 -2.240399,-0.832474 -1.211083,0 -1.9529,0.211779 -2.376778,0.665935 -0.317909,0.333046 -0.333033,0.484504 -0.287619,1.741006 0.03028,0.756924 1.6e-5,1.377545 -0.06054,1.377545 -0.378463,0 -1.665252,-0.726625 -2.210239,-1.256466 -1.18081,-1.135408 -1.5290994,-2.1194 -1.8470071,-5.28335 C 9.3784038,62.492611 7.6981009,56.9368 6.5778491,54.696294 5.4878749,52.531491 3.9740517,51.683807 2.3693673,52.349901 c -1.65009889,0.696375 -2.0891315,2.073858 -1.301927,4.117558 1.8468991,4.814054 1.9225038,5.359162 1.7257035,11.550816 -0.075694,2.149672 -0.060585,2.21008 0.3481555,3.103249 0.5601264,1.195942 1.1203545,1.756113 3.6636279,3.67871 1.5592679,1.165668 2.8914591,2.376864 4.9957138,4.511398 2.104256,2.149673 3.058056,3.01239 3.557627,3.224328 1.074836,0.469293 2.37675,0.530013 5.222793,0.242377 2.936874,-0.28763 5.646523,-0.333133 7.41773,-0.09092 2.724936,0.37846 4.026862,0.454083 4.935175,0.302694 1.786347,-0.28763 2.619113,-0.938451 5.071555,-3.951024 1.286775,-1.574407 1.922399,-2.195188 3.511945,-3.436541 2.119399,-1.650105 3.270104,-2.785346 3.588011,-3.557411 0.12111,-0.272493 0.287539,-1.453488 0.363237,-2.619156 0.211943,-2.694657 0.42391,-3.845041 1.468465,-7.644811 1.059694,-3.814907 1.710589,-6.918426 1.8317,-8.598804 0.07569,-1.195942 0.06063,-1.301915 -0.242157,-1.589544 -0.24221,-0.211938 -0.779651,-0.332888 -1.358696,-0.353698 z m -26.84442,10.22405 0.363458,0.09092 c 0.181662,0.06053 0.514591,0.105999 0.71139,0.105999 0.272495,0 0.33299,0.06047 0.242159,0.25724 -0.06056,0.151383 -0.166406,0.681274 -0.257237,1.180848 l -0.166538,0.908312 -0.181618,-0.756856 c -0.09083,-0.423876 -0.287691,-0.984133 -0.439076,-1.271769 z" />
  </g>
  <g
     inkscape:groupmode="layer"
     id="layer4"
     inkscape:label="Darkness"
     style="display:none"
     sodipodi:insensitive="true">
    <rect
       style="opacity:1;fill:#191814;fill-opacity:1;stroke:none;stroke-width:0.900002;stroke-miterlimit:4;stroke-dasharray:none;stroke-opacity:1"
       id="rect10054"
       width="54.768749"
       height="103.18749"
       x="-21.166668"
       y="-32.279167" />
  </g>
  <g
     inkscape:groupmode="layer"
     id="layer2"
     inkscape:label="Face - Normal"
     style="display:none;opacity:1"
     sodipodi:insensitive="true">
    <path
       style="opacity:1;fill:#6a6454;fill-opacity:1;stroke:#191814;stroke-width:0.9;stroke-linecap:butt;stroke-linejoin:miter;stroke-miterlimit:4;stroke-dasharray:none;stroke-opacity:1"
       d="m 57.415032,30.723241 c 0.0404,3.929995 -3.690661,6.017199 -6.306161,8.251557 -2.909908,1.999828 -2.258182,5.775858 -3.796917,8.565526 -4.867692,7.562089 -15.641868,12.480078 -23.284883,12.640984 -3.469785,-5.820023 -9.83379,-12.769163 -12.144795,-18.878882 0,0 0.650966,-3.728027 -0.428304,-5.885831 C 9.946124,32.40194 8.3946236,31.752538 7.6583354,28.912676 7.6667449,22.159092 7.6962713,17.40447 11.111983,12.004954 19.230291,-1.6673571 30.411252,-0.81893073 38.386008,-0.82625223 55.394048,2.5889983 62.021516,11.059609 57.415032,30.723241 Z"
       id="path958"
       sodipodi:nodetypes="cccccscccc" />
  </g>
  <g
     inkscape:groupmode="layer"
     id="layer11"
     inkscape:label="Nose - Normal"
     style="display:none"
     sodipodi:insensitive="true">
    <path
       style="font-variation-settings:normal;display:inline;opacity:1;vector-effect:none;fill:#191814;fill-opacity:1;stroke:none;stroke-width:0.264583px;stroke-linecap:butt;stroke-linejoin:miter;stroke-miterlimit:4;stroke-dasharray:none;stroke-dashoffset:0;stroke-opacity:1;-inkscape-stroke:none;stop-color:#000000;stop-opacity:1"
       d="m 42.001405,38.625552 -1.169302,1.449938 c 0,0 1.590252,5.19171 -1.777344,5.799749 -2.396273,0.160931 -2.697105,-0.413668 -2.198287,1.96443 h 3.320823 c 0,0 3.461141,-0.608038 1.964431,-7.577092 z"
       id="path3459"
       sodipodi:nodetypes="ccccccc" />
  </g>
  <g
     inkscape:groupmode="layer"
     id="layer12"
     inkscape:label="Mouth - Normal"
     sodipodi:insensitive="true"
     style="display:none">
    <path
       style="display:inline;opacity:1;fill:none;stroke:#191814;stroke-width:0.9;stroke-linecap:butt;stroke-linejoin:miter;stroke-miterlimit:4;stroke-dasharray:none;stroke-opacity:1"
       d="M 34.792708,52.453648 C 32.77237,51.358964 30.626626,50.164224 28.442704,50.204677"
       id="path4096"
       sodipodi:nodetypes="cc" />
  </g>
  <g
     inkscape:groupmode="layer"
     id="layer10"
     inkscape:label="Eyebrows - Angry"
     style="display:none"
     sodipodi:insensitive="true">
    <path
       style="font-variation-settings:normal;display:inline;opacity:1;vector-effect:none;fill:#191814;fill-opacity:1;stroke:none;stroke-width:0.264582px;stroke-linecap:butt;stroke-linejoin:miter;stroke-miterlimit:4;stroke-dasharray:none;stroke-dashoffset:0;stroke-opacity:1;-inkscape-stroke:none;stop-color:#000000"
       d="m 38.692119,27.8279 c 0,0 -0.359071,1.016143 -2.6048,0.530174 -2.245731,-0.485968 -4.45909,-6.805281 -4.45909,-6.805281 0,0 -1.314362,-2.999502 -2.723375,-2.493791 -1.409014,0.505711 -3.368157,1.224437 -3.368157,1.224437 0,0 2.248254,-4.937135 5.448398,-4.342299 4.843204,4.110639 3.311859,10.903108 7.707024,11.88676 z"
       id="path2306-6"
       sodipodi:nodetypes="cscsccc" />
    <path
       style="font-variation-settings:normal;display:inline;opacity:1;vector-effect:none;fill:#191814;fill-opacity:1;stroke:none;stroke-width:0.264583px;stroke-linecap:butt;stroke-linejoin:miter;stroke-miterlimit:4;stroke-dasharray:none;stroke-dashoffset:0;stroke-opacity:1;-inkscape-stroke:none;stop-color:#000000;stop-opacity:1"
       d="m 44.185416,30.228649 c 0,0 -0.330729,0.79375 1.190625,1.587499 1.521354,0.79375 6.085417,-1.984374 6.085417,-1.984374 0,0 2.315104,-1.190625 2.84427,-0.198438 0.529167,0.992188 1.256771,2.38125 1.256771,2.38125 0,0 1.322917,-4.101042 -0.79375,-5.291667 -4.888041,0.155211 -7.588777,5.039349 -10.583333,3.50573 z"
       id="path2306"
       sodipodi:nodetypes="cscsccc" />
  </g>
  <g
     inkscape:groupmode="layer"
     id="layer9"
     inkscape:label="Eyes - Woman"
     style="display:none"
     sodipodi:insensitive="true">
    <path
       style="font-variation-settings:normal;display:inline;opacity:1;vector-effect:none;fill:#191814;fill-opacity:1;stroke:none;stroke-width:0.264583px;stroke-linecap:butt;stroke-linejoin:miter;stroke-miterlimit:4;stroke-dasharray:none;stroke-dashoffset:0;stroke-opacity:1;-inkscape-stroke:none;stop-color:#000000;stop-opacity:1"
       d="m 45.243749,34.461982 c 0,0 3.175,-1.190625 5.55625,0.396875 0,0 0.661459,0.79375 -0.793749,2.645834 0,0 3.439583,-1.12448 3.108854,-3.571875 0,0 -3.04271,-2.513543 -7.871355,0.529166 z"
       id="path2238" />
    <ellipse
       style="display:inline;opacity:1;fill:#191814;fill-opacity:1;stroke:none;stroke-width:0.17"
       id="path2593"
       cx="40.965694"
       cy="1.2411109"
       rx="0.93544334"
       ry="2.6192415"
       transform="rotate(41.823056)" />
    <ellipse
       style="display:inline;opacity:1;fill:#191814;fill-opacity:1;stroke:none;stroke-width:0.17"
       id="path2593-9"
       cx="58.470345"
       cy="-4.5869784"
       rx="0.79956108"
       ry="2.2387712"
       transform="rotate(41.823056)" />
    <path
       style="font-variation-settings:normal;display:inline;opacity:1;vector-effect:none;fill:#191814;fill-opacity:1;stroke:none;stroke-width:0.264583px;stroke-linecap:butt;stroke-linejoin:miter;stroke-miterlimit:4;stroke-dasharray:none;stroke-dashoffset:0;stroke-opacity:1;-inkscape-stroke:none;stop-color:#000000;stop-opacity:1"
       d="m 27.039609,28.076629 c 0,0 -0.03465,-2.355889 0,-2.508869 0.03465,-0.15298 3.360551,-1.162647 7.171483,4.069264 -0.230944,-0.849806 -3.126508,-8.521556 -8.002958,-6.639325 -0.411208,1.692977 0.04756,3.385953 0.831475,5.07893 z"
       id="path2042"
       sodipodi:nodetypes="csccc" />
  </g>
  <g
     inkscape:groupmode="layer"
     id="layer7"
     inkscape:label="Dress - Wizard"
     style="display:none"
     sodipodi:insensitive="true">
    <path
       style="font-variation-settings:normal;opacity:1;fill:#781609;fill-opacity:1;stroke:#000000;stroke-width:0.9;stroke-linecap:butt;stroke-linejoin:miter;stroke-miterlimit:4;stroke-dasharray:none;stroke-dashoffset:0;stroke-opacity:1;stop-color:#000000;stop-opacity:1"
       d="m 44.846874,86.518752 c -0.747581,-5.402762 0.169377,-10.646997 -2.910416,-16.271875 0,0 -7.484224,-6.796965 -14.409863,-9.194848 -0.521093,-0.180419 -1.737694,7.288724 -2.242772,7.16459 -0.491898,-0.120894 -2.143671,-8.070501 -2.613145,-8.128856 -7.358321,-0.914638 -26.242553,-5.054427 -26.242553,-5.054427 l -0.7937499,33.998958 z"
       id="path8061"
       sodipodi:nodetypes="ccsssccc" />
    <path
       style="font-variation-settings:normal;opacity:1;fill:#781609;fill-opacity:1;stroke:#191814;stroke-width:0.9;stroke-linecap:butt;stroke-linejoin:miter;stroke-miterlimit:4;stroke-dasharray:none;stroke-dashoffset:0;stroke-opacity:1;stop-color:#000000;stop-opacity:1"
       d="m 24.74519,67.685187 c 0,0 -11.648315,-10.93206 -25.00977333,-12.916435 L -1.190625,41.142711 c 0,0 17.4625,1.322917 22.886458,9.260416 z"
       id="path7543"
       sodipodi:nodetypes="ccccc" />
    <path
       style="font-variation-settings:normal;opacity:1;fill:#781609;fill-opacity:1;stroke:#000000;stroke-width:0.9;stroke-linecap:butt;stroke-linejoin:miter;stroke-miterlimit:4;stroke-dasharray:none;stroke-dashoffset:0;stroke-opacity:1;stop-color:#000000;stop-opacity:1"
       d="M 42.597916,56.488544 29.236458,68.527086 H 25.4 C 19.305001,61.001911 41.594645,49.577439 42.597916,56.488544 Z"
       id="path7545"
       sodipodi:nodetypes="cccc" />
  </g>
  <g
     inkscape:groupmode="layer"
     id="layer8"
     inkscape:label="Item - Amulet"
     style="display:none"
     sodipodi:insensitive="true">
    <circle
       style="opacity:1;fill:#6a6454;fill-opacity:1;stroke:#000000;stroke-width:0.899999;stroke-miterlimit:4;stroke-dasharray:none;stroke-opacity:1"
       id="path9059"
       cx="24.227982"
       cy="72.114426"
       r="8.0448132" />
    <ellipse
       style="opacity:1;fill:#781609;fill-opacity:1;stroke:#000000;stroke-width:0.899999;stroke-miterlimit:4;stroke-dasharray:none;stroke-opacity:1"
       id="path9105"
       cx="25.121048"
       cy="71.69986"
       rx="4.1583271"
       ry="5.3035288" />
    <path
       style="font-variation-settings:normal;opacity:1;fill:none;fill-opacity:1;stroke:#000000;stroke-width:0.9;stroke-linecap:butt;stroke-linejoin:miter;stroke-miterlimit:4;stroke-dasharray:none;stroke-dashoffset:0;stroke-opacity:1;stop-color:#000000;stop-opacity:1"
       d="m 19.363677,66.127585 c 0,0 -10.8006333,-10.693858 -22.7923465,-11.630806"
       id="path9278"
       sodipodi:nodetypes="cc" />
    <path
       style="font-variation-settings:normal;opacity:1;fill:none;fill-opacity:1;stroke:#000000;stroke-width:0.9;stroke-linecap:butt;stroke-linejoin:miter;stroke-miterlimit:4;stroke-dasharray:none;stroke-dashoffset:0;stroke-opacity:1;stop-color:#000000;stop-opacity:1"
       d="m 30.776087,67.156573 c 0,0 1.771536,-1.278429 3.999243,-2.431153"
       id="path9280"
       sodipodi:nodetypes="cc" />
    <ellipse
       style="opacity:1;fill:#6a6454;fill-opacity:1;stroke:none;stroke-width:0.899999;stroke-miterlimit:4;stroke-dasharray:none;stroke-opacity:1"
       id="path9861"
       cx="26.259895"
       cy="69.849998"
       rx="1.5213542"
       ry="1.4552085" />
  </g>
  <g
     inkscape:groupmode="layer"
     id="layer6"
     inkscape:label="Hair - Long"
     style="display:none"
     sodipodi:insensitive="true">
    <path
       style="font-variation-settings:normal;opacity:1;fill:#781609;fill-opacity:1;stroke:#191814;stroke-width:0.9;stroke-linecap:butt;stroke-linejoin:miter;stroke-miterlimit:4;stroke-dasharray:none;stroke-dashoffset:0;stroke-opacity:1;stop-color:#000000;stop-opacity:1"
       d="M 76.799899,17.2039 C 69.877618,9.5332614 61.832804,9.9074385 61.832804,9.9074385 c 0,0 7.390003,9.3544365 5.238484,26.3795045 C 66.135845,26.93251 63.610148,22.442382 63.610148,22.442382 63.423059,51.721759 43.778749,61.356825 43.778749,61.356825 56.232576,49.09227 68.695277,9.5208526 43.685205,7.4752859 46.765235,6.8592798 53.290301,17.771159 40.972419,26.371244 49.484951,8.597818 36.575835,6.7269313 36.575835,6.7269313 c 0,0 -12.815574,2.0579754 -13.563929,10.2898797 0,0 2.15152,15.060638 -7.483546,23.386084 4.022407,-7.764181 3.086962,-11.786587 3.086962,-11.786587 0,0 -10.2898762,10.664054 -10.1963319,13.37684 C 4.2667633,40.750371 -0.09109098,40.946986 -4.4901281,41.431882 L -4.9578498,-0.37693086 63.703692,-1.2188297 c 0,0 8.606077,5.4200649 13.096205,18.4227297"
       id="path5500"
       sodipodi:nodetypes="cccccccccccccccc" />
  </g>
  <g
     inkscape:groupmode="layer"
     id="layer5"
     inkscape:label="Ear - normal"
     style="display:none">
    <g
       id="g13156"
       style="opacity:1"
       transform="translate(0,4.7625002)">
      <path
         style="font-variation-settings:normal;opacity:1;fill:#6a6454;fill-opacity:1;stroke:#191814;stroke-width:0.9;stroke-linecap:butt;stroke-linejoin:miter;stroke-miterlimit:4;stroke-dasharray:none;stroke-dashoffset:0;stroke-opacity:1;stop-color:#000000;stop-opacity:1"
         d="M 10.102788,29.37292 17.118613,16.83798 C 19.545701,15.127009 9.007591,6.9162043 5.1449382,18.054056 4.6060967,19.60779 5.6224803,21.443933 5.775537,22.4212 c 1.0554869,6.739286 4.386678,7.011147 4.327251,6.95172 z"
         id="path6208"
         sodipodi:nodetypes="ccssc" />
      <path
         style="font-variation-settings:normal;opacity:1;vector-effect:none;fill:#000000;fill-opacity:1;stroke:none;stroke-width:0.264583px;stroke-linecap:butt;stroke-linejoin:miter;stroke-miterlimit:4;stroke-dasharray:none;stroke-dashoffset:0;stroke-opacity:1;-inkscape-stroke:none;stop-color:#000000;stop-opacity:1"
         d="m 9.1281249,25.069271 c 0,0 2.8442711,-1.521355 2.2158851,-2.348178 -0.628385,-0.826822 -2.248958,-1.951302 -2.248958,-1.951302 -0.4668452,-2.320089 1.914906,-4.170461 3.40651,-3.175 1.058334,0.760678 2.579688,1.819011 2.579688,1.819011 -3.592377,-6.049184 -7.4522197,-1.837075 -7.3091147,1.157552 0,0 0.3307292,1.289844 2.0835937,1.81901 1.752865,0.529167 -0.7276041,2.678907 -0.7276041,2.678907 z"
         id="path7064"
         sodipodi:nodetypes="csccccsc" />
    </g>
  </g>
</svg>
