<?xml version="1.0" encoding="UTF-8" standalone="no"?>
<svg
   version="1.0"
   width="721.000000pt"
   height="1280.000000pt"
   viewBox="0 0 721.000000 1280.000000"
   preserveAspectRatio="xMidYMid meet"
   id="svg8"
   sodipodi:docname="background.svg"
   inkscape:version="1.1.1 (3bf5ae0d25, 2021-09-20)"
   xmlns:inkscape="http://www.inkscape.org/namespaces/inkscape"
   xmlns:sodipodi="http://sodipodi.sourceforge.net/DTD/sodipodi-0.dtd"
   xmlns:xlink="http://www.w3.org/1999/xlink"
   xmlns="http://www.w3.org/2000/svg"
   xmlns:svg="http://www.w3.org/2000/svg">
  <defs
     id="defs12">
    <linearGradient
       inkscape:collect="always"
       id="linearGradient839">
      <stop
         style="stop-color:#000000;stop-opacity:0.76712328"
         offset="0"
         id="stop835" />
      <stop
         style="stop-color:#000000;stop-opacity:0;"
         offset="1"
         id="stop837" />
    </linearGradient>
    <linearGradient
       inkscape:collect="always"
       xlink:href="#linearGradient839"
       id="linearGradient841"
       x1="718.49353"
       y1="561.65686"
       x2="158.57591"
       y2="556.81366"
       gradientUnits="userSpaceOnUse" />
  </defs>
  <sodipodi:namedview
     id="namedview10"
     pagecolor="#ffffff"
     bordercolor="#666666"
     borderopacity="1.0"
     inkscape:pageshadow="2"
     inkscape:pageopacity="0.0"
     inkscape:pagecheckerboard="0"
     inkscape:document-units="pt"
     showgrid="false"
     inkscape:zoom="0.50273438"
     inkscape:cx="481.36752"
     inkscape:cy="534.07925"
     inkscape:window-width="1920"
     inkscape:window-height="1017"
     inkscape:window-x="1912"
     inkscape:window-y="-8"
     inkscape:window-maximized="1"
     inkscape:current-layer="svg8" />
  <metadata
     id="metadata2">
Created by potrace 1.15, written by Peter Selinger 2001-2017
</metadata>
  <path
     d="m 0,640 v 640 H 360.5 721 V 640 0 H 360.5 0 Z M 388,197.1 c 4.9,4 9.5,5.3 31.1,9.5 18.9,3.5 19.2,3.6 23.7,1.8 4.3,-1.6 4.6,-1.6 5.9,0.2 0.7,1 1.1,2.4 0.9,3 -0.3,0.7 1.2,3.2 3.4,5.6 3.1,3.6 5.7,5.2 14.6,8.8 14.8,5.9 38.5,17.7 47.3,23.3 3.9,2.6 7.7,4.7 8.4,4.7 0.7,0 1.9,-1.3 2.8,-2.9 1.4,-2.4 2.3,-2.9 5.1,-2.8 3.2,0.1 3.6,0.4 4.4,4.1 0.8,3.5 1.5,4.4 5.1,6.1 3,1.3 4.4,2.7 4.8,4.6 0.6,2.8 4.7,7 10.5,11 1.9,1.3 4.1,3.1 4.7,4 0.7,0.9 2.4,2 3.9,2.3 2.6,0.7 2.7,1.4 1,5.7 -0.6,1.4 0.5,1.7 7.5,2.2 5.5,0.5 8.7,0.3 9.6,-0.5 0.7,-0.6 1.5,-0.9 1.6,-0.7 1.6,2.1 4.7,8.3 5.7,11.5 0.7,2.3 3.3,6 6.2,8.9 2.7,2.7 8.9,10.5 13.6,17.2 4.8,6.7 13.7,18.8 19.7,26.9 6.1,8 12.4,16.5 14,18.8 2.3,3.1 3.9,4.2 6.3,4.4 2.6,0.3 3.6,1.1 5.2,4.2 1.1,2.2 2,4.4 2,5 0,3 12,33.7 18.1,46.4 2.1,4.5 3.9,8.6 3.9,9.3 0,1.7 19.9,53.5 21.1,54.9 1.5,1.8 0.2,5.4 -3.4,9.1 l -3,3.2 2.2,16.3 c 2,13.8 3.9,23.4 5.8,28.4 0.6,1.5 -14,2.4 -41.1,2.5 -20.8,0 -21.9,-0.1 -23.8,-2 -1,-1.2 -2.3,-2.1 -2.8,-2.1 -1.9,0 -4,1.3 -4,2.5 0,0.7 -1.5,1.6 -3.4,1.9 -3,0.6 -3.5,1.1 -4.1,4.4 -0.7,4.5 0.8,9.2 3,9.2 1.3,0 1.5,1.1 1.3,5.7 l -0.3,5.8 h -13 -13 l -5.4,-3.4 -5.3,-3.4 0.6,-10.6 c 0.4,-5.8 0.9,-13.7 1.2,-17.5 0.5,-5.5 0.4,-6.8 -0.7,-6.4 -1.9,0.6 -2.8,5.2 -3.5,18 -0.5,10 -0.7,10.6 -2.8,11 -1.6,0.3 -5.9,-1.7 -13.3,-6.1 -6.1,-3.6 -14,-8.3 -17.6,-10.3 l -6.5,-3.7 0.5,-18.8 c 0.4,-18.4 -0.2,-23.2 -2.6,-20.8 -0.6,0.6 -1.3,7.3 -1.6,15 -0.3,7.7 -0.8,15.8 -1.1,18.1 l -0.5,4.1 -13.2,-6.9 c -7.3,-3.8 -15.1,-7.8 -17.4,-9 -2.3,-1.2 -4.4,-3.1 -4.7,-4.2 -0.3,-1.2 -0.6,-10.4 -0.6,-20.6 0,-10.4 -0.5,-19.2 -1,-20 -2.2,-3.3 -3,1.8 -3,19.7 0,11.9 -0.4,18.4 -1.1,18.8 -0.6,0.4 -8.2,-2.6 -16.8,-6.6 l -15.8,-7.4 -0.6,-14.9 c -0.4,-8.2 -0.7,-19 -0.7,-24 0,-8.8 -1,-12.9 -2.7,-11.2 -0.4,0.4 -0.9,10.9 -1,23.3 -0.1,12.4 -0.6,23 -1.1,23.5 -1,1 -31.2,-10.6 -32.5,-12.5 -0.4,-0.7 -0.6,-13.4 -0.5,-28.2 0.3,-26.3 -0.1,-31 -2.6,-28.5 -0.7,0.7 -1.2,9.5 -1.4,27.6 -0.4,31.2 0.7,29.3 -14.7,24.1 l -9.9,-3.4 0.3,-4.5 c 0.1,-2.5 -0.2,-4.9 -0.8,-5.3 -0.8,-0.4 -1.1,-8.3 -1,-23.8 0.1,-23.8 -0.6,-30.2 -3.1,-30.2 -2.2,0 -2.9,5.7 -3.6,30.4 -0.7,20.4 -0.9,22.4 -2.5,22.8 -1.4,0.4 -1.9,1.7 -2.1,6.1 l -0.3,5.6 -9.5,2.4 c -12,3 -12.1,3 -13,1.2 -0.5,-0.8 -1.2,-11 -1.7,-22.5 -0.5,-11.6 -1.2,-21.6 -1.6,-22.3 -2.1,-3.3 -2.7,1.5 -2.7,23.6 0,13 -0.4,24.3 -0.9,25.1 -1,1.5 -31.2,12.3 -32.1,11.5 -0.2,-0.3 -0.7,-9.5 -1,-20.4 -0.3,-10.9 -0.8,-20.2 -1.2,-20.5 -0.4,-0.4 -1.4,-0.5 -2.3,-0.1 -1.4,0.5 -1.6,3.3 -1.4,21.6 0.1,19.4 0,21.3 -1.8,22.6 -1.8,1.5 -20.5,10.9 -27.5,13.7 -2.4,1 -4,1.2 -4.4,0.6 -0.3,-0.6 -1.2,-8.1 -1.9,-16.7 -0.7,-8.6 -1.7,-16.8 -2.3,-18.2 -1,-2.4 -1,-2.4 -1.7,1.3 -0.4,2 -0.2,10.5 0.5,18.9 0.9,11.6 0.9,15.6 0,17.2 -1,1.7 -30.8,17.6 -33.1,17.6 -0.4,0 -1,-7.2 -1.4,-16 -0.4,-8.9 -1,-17.3 -1.5,-18.8 l -0.7,-2.7 -1.2,2.8 c -0.7,1.9 -0.9,8.2 -0.5,20 l 0.6,17.2 -6.8,4.1 c -3.8,2.3 -10.6,6 -15,8.3 l -8.2,4 -0.6,-3.2 c -0.3,-1.8 -0.8,-6.8 -1.1,-11.2 -0.8,-10.4 -1.3,-12.7 -2.8,-12.2 -0.9,0.3 -1.2,4.6 -1.2,15.8 v 15.4 l -6.7,3.3 c -7.6,3.7 -22,6.1 -24.5,4.1 -1.8,-1.5 -1.7,-7.9 0.2,-9.3 0.8,-0.6 1.7,-2.5 1.9,-4.1 0.3,-1.7 0.8,-4 1.1,-5.3 0.5,-1.5 0.3,-2.2 -0.7,-2.2 -0.8,0 -1.8,-1.5 -2.3,-3.3 -1.7,-5.5 -8.5,-4.6 -8.5,1.1 v 2.5 l -12.7,-0.6 c -7.1,-0.4 -18.9,-0.7 -26.4,-0.7 -18.2,0 -17.7,0.5 -15.6,-13.6 2.5,-15.9 2.3,-22.3 -0.9,-28.7 -3.6,-7.1 -9.6,-17.1 -10.6,-17.5 -1.7,-0.7 -0.6,-6.6 4.7,-25.9 8,-29.5 14.8,-47.8 25.2,-68.3 3.2,-6.3 8.2,-18.5 11.1,-27 l 5.3,-15.5 6.7,-2.9 c 9.1,-4 12.2,-7 12.2,-11.7 0,-3.9 1.1,-4.9 5.5,-4.9 1.8,0 2.9,-1.2 4.9,-5.2 1.4,-2.9 2.6,-5.7 2.6,-6.2 0,-0.6 0.9,-2.2 2,-3.6 1.1,-1.4 2,-3.5 2,-4.7 0,-1.3 0.8,-2.4 2,-2.8 1.6,-0.5 1.9,-1.5 1.8,-5.8 -0.1,-2.9 0.4,-6.9 1.1,-9 1.2,-3.6 1.4,-3.7 3.1,-2.2 1,0.9 2.3,1.4 2.9,1.1 0.6,-0.4 3.9,-0.8 7.4,-1 8,-0.3 10.1,-1.7 27.1,-18.3 14.3,-14 17.6,-19 17.6,-26.8 0,-4.2 0.2,-4.5 2.5,-4.5 1.4,0 3.7,0.7 5,1.6 5.5,3.6 9.9,2.4 32.1,-8.5 31.1,-15.2 35.1,-17.9 42.6,-27.9 l 3.9,-5.2 6.8,0.6 c 6.3,0.6 7.3,0.4 11.8,-2.1 6.1,-3.5 29.3,-11.4 31.3,-10.7 0.8,0.3 3.1,1.8 5,3.3 z m -0.4,300.1 c -0.3,4.6 -0.8,57.1 -1.1,116.8 -0.3,59.7 -0.7,128.5 -0.8,153 l -0.3,44.5 h -3.5 -3.4 v -22 c 0,-21.7 -0.5,-25.9 -2.9,-23.5 -0.7,0.7 -1.3,8.6 -1.6,22.8 l -0.5,21.7 -4.4,0.3 c -9.2,0.7 -8.6,2.5 -8.4,-24.5 0.7,-87.2 3.7,-289.9 4.3,-290.6 0.7,-0.8 19.3,-6.4 21.9,-6.6 1.1,-0.1 1.3,1.4 0.7,8.1 z m 26.3,-4.1 11.4,3.4 -0.8,28.5 c -0.4,15.7 -0.5,67.2 -0.4,114.5 0.2,47.3 0.4,106.2 0.4,131 v 45 l -4.2,0.3 c -2.2,0.2 -5.6,-0.1 -7.5,-0.6 l -3.3,-0.8 v -21.1 c 0,-11.6 -0.3,-21.4 -0.7,-21.8 -1.9,-1.9 -2.8,1.3 -2.8,10.1 0,5.2 -0.4,9.4 -0.9,9.4 -1.6,0 -3.4,-6.1 -3.6,-12.1 -0.1,-3.8 -0.7,-6.5 -1.8,-7.6 -1.4,-1.6 -1.5,-9.8 -0.7,-87.3 0.5,-47 0.9,-110.2 1,-140.4 0,-43.4 0.3,-54.7 1.3,-54.4 0.6,0.3 6.3,2 12.6,3.9 z m -53.3,14.6 c -1.2,20.1 -2.6,96.5 -3.7,199.3 -0.5,56.3 -1.2,102.6 -1.4,102.8 -0.2,0.2 -3.3,0.1 -6.8,-0.3 l -6.5,-0.7 -0.4,-21.4 c -0.2,-15.2 -0.7,-21.7 -1.5,-22.5 -0.7,-0.7 -1.6,-0.9 -2,-0.5 -0.5,0.4 -0.9,10.6 -1.1,22.7 l -0.3,21.9 h -6.5 -6.4 v -81.8 c 0,-45 0.3,-112.3 0.7,-149.5 l 0.6,-67.7 11.6,-4.5 c 13,-5 22.2,-8.3 23.5,-8.4 0.4,-0.1 0.5,4.7 0.2,10.6 z m 83.2,-4.6 c 7.5,2.9 14.9,5.8 16.5,6.6 l 2.7,1.4 v 150.2 c 0,82.6 -0.3,151.2 -0.6,152.5 -0.6,2.1 -1.1,2.3 -7.3,2 l -6.6,-0.3 v -22.2 c 0,-16.3 -0.3,-22.5 -1.2,-23.4 -0.7,-0.7 -1.6,-0.9 -2,-0.5 -0.4,0.4 -1,10.7 -1.4,22.9 -0.4,12.2 -0.8,22.3 -0.8,22.4 -0.1,0.2 -3.2,0.3 -6.9,0.3 h -6.9 l -0.6,-101.3 c -1,-150.6 -0.9,-215.7 0.4,-215.7 0.6,0 7.2,2.3 14.7,5.1 z m -123.3,90.6 c -0.9,151.7 -1.5,213.6 -1.9,214 -0.2,0.3 -3.3,0.2 -6.9,-0.2 l -6.4,-0.7 -0.7,-20.2 c -0.7,-18.7 -1.4,-23.1 -3.3,-21.2 -0.5,0.4 -0.9,10 -1.1,21.3 l -0.3,20.5 -3.1,-0.6 c -1.7,-0.3 -4.4,-0.6 -6.1,-0.6 h -3 l 0.7,-41.8 c 0.4,-22.9 0.1,-85.3 -0.5,-138.5 -0.9,-72.4 -0.9,-97.1 -0.1,-97.9 1.2,-1.2 31.2,-15.8 32.4,-15.8 0.4,0 0.5,36.8 0.3,81.7 z m 164,-73.4 16,7.2 0.2,144.2 0.3,144.3 h -8 -8 v -21.8 c 0,-21.2 -0.7,-26.6 -3,-23.2 -0.5,0.8 -1,7.3 -1.1,14.5 0,7.1 -0.4,16.8 -0.7,21.4 l -0.7,8.4 -6.2,0.2 -6.3,0.1 V 664.3 c 0,-83.2 0.3,-151.3 0.8,-151.2 0.4,0 7.9,3.3 16.7,7.2 z m -200.6,164.1 0.1,120.9 -7.6,-0.6 c -4.2,-0.3 -7.9,-0.9 -8.2,-1.2 -0.4,-0.4 -0.9,-10.5 -1.2,-22.5 -0.3,-12 -0.8,-22.1 -1.2,-22.5 -2.3,-2.3 -2.8,1.9 -2.8,23.2 v 22.5 l -2.2,-0.6 c -1.3,-0.3 -4.2,-0.6 -6.6,-0.6 H 250 v -76.8 c 0,-42.2 -0.6,-99.6 -1.2,-127.5 -1.1,-43.4 -1.1,-51 0.1,-52 0.8,-0.7 8.6,-4.9 17.5,-9.4 l 16.1,-8.1 0.6,17.1 c 0.4,9.5 0.7,71.6 0.8,138.1 z m 257.8,-84.6 c -0.4,27.9 -1,87.9 -1.4,133.4 l -0.6,82.8 -5.9,0.2 c -3.2,0.1 -6.8,0.2 -8,0.2 -2.3,0.1 -2.3,0.1 -2.8,-20.9 -0.5,-20.7 -1.1,-24.8 -3.3,-22.6 -0.7,0.7 -1.1,7.8 -1,20.8 0.1,11.6 -0.3,20.3 -0.8,21 -1.3,1.5 -8.2,2.7 -10.9,1.8 l -2,-0.6 V 674.1 c 0,-78 0.3,-142 0.6,-142.4 0.4,-0.3 8.7,3.5 18.7,8.4 l 18,9.1 z m -296.1,89.9 0.7,113.2 -5.9,-0.5 c -3.2,-0.3 -6.4,-0.7 -7,-0.9 -0.7,-0.2 -1.3,-7.5 -1.6,-22 -0.4,-13.5 -1,-22.1 -1.7,-22.8 -1.9,-1.9 -2.3,1.7 -2.4,23 l -0.2,20.8 -5.9,-0.3 c -3.3,-0.1 -6.1,-0.4 -6.2,-0.5 -0.1,-0.1 -0.3,-52.6 -0.5,-116.6 l -0.4,-116.3 14.5,-8.9 14.5,-8.9 0.7,13.7 c 0.3,7.6 1,64.7 1.4,127 z m 322.1,-125.6 17.2,10.1 -0.5,7.6 c -1.4,21.5 -3.5,96.7 -4.5,161.2 -0.6,39.9 -1.2,72.6 -1.3,72.7 -0.1,0.1 -3.8,0.3 -8.1,0.5 l -8,0.3 -0.5,-23 c -0.3,-12.7 -0.7,-23.1 -0.8,-23.3 -1.1,-1.3 -2.2,0.9 -3.2,6.5 -0.8,4.6 -0.9,12 -0.4,22.9 l 0.7,16.1 -6.4,0.6 c -3.5,0.3 -6.6,0.3 -6.9,-0.1 -0.8,-1 0.7,-240.1 1.5,-253 0.6,-9 0.9,-10.3 2.3,-9.7 0.9,0.3 9.4,5.1 18.9,10.6 z m -422.7,-0.5 21.5,0.6 v 41.7 41.6 l -7,-0.2 c -21.2,-0.8 -55.4,-0.5 -59,0.5 -5.7,1.6 -6.4,0.1 -2.3,-5 6.6,-8.3 8.1,-11.8 10.4,-24.3 2.1,-11.9 1.8,-16.8 -2.1,-31 -1.9,-7 -3.4,-12.9 -3.3,-12.9 0.2,-0.1 2,-0.9 4.1,-1.9 3.5,-1.6 3.7,-1.9 3.7,-6.2 v -4.6 l 6.3,0.6 c 3.4,0.2 15.9,0.8 27.7,1.1 z M 707.6,575 c 2,4.7 4,9.7 4.5,11.2 0.6,1.5 1.9,3 2.8,3.3 1.6,0.5 1.5,1.5 -1.5,12.8 -1.8,6.7 -4.8,17.8 -6.8,24.5 -3,10.2 -3.6,14 -3.6,21.6 0,5.8 0.4,9.6 1.2,10.4 0.9,0.9 0.9,1.5 0,2.4 -0.7,0.7 -1.2,3.1 -1.2,5.3 v 4.2 l -16.2,0.9 c -9,0.4 -21,0.7 -26.8,0.5 -11.7,-0.3 -16,0.8 -16,3.9 0,1.1 -0.9,4 -2.1,6.5 -1.4,3.1 -2,5.7 -1.6,8.2 3.3,26.2 3.4,29.1 0.2,27.9 -0.9,-0.3 -2.8,0.8 -4.8,3 l -3.2,3.5 0.6,-14.6 c 0.4,-8 1.2,-38.3 1.9,-67.3 0.7,-32.6 1.5,-53.5 2.2,-54.9 0.7,-1.5 0.8,-4.9 0.1,-11 -0.6,-4.8 -0.8,-9 -0.6,-9.3 0.6,-0.7 31.7,-1.7 51.1,-1.6 l 16.4,0.1 z M 209,586.2 c 0.1,9 0.5,57.7 1,108.3 0.5,50.6 0.6,95 0.3,98.7 l -0.6,6.8 h -5.8 -5.9 l -0.2,-21.3 c -0.3,-18.1 -0.5,-21.2 -1.8,-21.2 -1.3,0 -1.5,3.1 -1.8,20.6 l -0.2,20.7 -5.8,0.5 c -3.1,0.2 -6.4,0.1 -7.3,-0.4 -1.5,-0.8 -1.7,-10.4 -2.2,-105.6 -0.3,-57.6 -0.9,-105.9 -1.2,-107.3 -0.5,-2.3 0,-2.8 6.7,-5.9 13,-5.9 22.3,-9.9 23.6,-10 0.9,-0.1 1.2,3.8 1.2,16.1 z m 396.5,-3.5 c 3.2,0.2 7.6,1.7 12.4,4.1 l 7.3,3.7 -0.5,31 c -0.4,17 -1.1,51.5 -1.8,76.5 l -1.1,45.5 -2.7,4.5 c -2.5,4.3 -2.6,5.2 -2.6,18 0.1,7.4 0.7,15.8 1.3,18.5 1.1,4.4 1.8,19.7 1.3,30.3 l -0.1,3.3 -7.2,-0.3 -7.3,-0.3 -0.7,-5.5 c -0.3,-3 -0.6,-11.8 -0.7,-19.5 -0.1,-14.3 -1.3,-22.1 -3.3,-20.9 -0.7,0.5 -1,7.6 -0.7,22.8 l 0.4,22.1 -7.4,0.3 c -4.1,0.2 -7.8,-0.1 -8.4,-0.7 -1.5,-1.5 2,-165.2 4.9,-225.8 l 0.6,-13.1 5.6,2.6 c 3.1,1.4 7.9,2.7 10.7,2.9 z m -411.7,313 c 0.1,50.2 -0.1,91.3 -0.6,91.3 -1.6,0 -4,-5.7 -5.7,-13.5 -0.9,-4.4 -2.8,-11.4 -4,-15.5 -4,-13 -6.1,-42.1 -3.6,-50 3.3,-10.4 4.4,-44.7 1.7,-50.2 -1.4,-2.8 -1.7,-6.9 -1.7,-25.8 v -22.5 l 3.8,-2.7 c 2.5,-1.8 4.8,-2.7 6.8,-2.5 l 3,0.2 z m 12.3,-90.1 3.6,0.6 0.6,53.7 c 0.3,29.5 0.3,77.6 -0.1,107 l -0.5,53.3 -5.3,-0.5 c -3,-0.3 -5.8,-0.8 -6.4,-1.2 -1.2,-0.7 -1.4,-99.6 -0.3,-169.3 0.6,-43.9 0.6,-44.2 2.7,-44.2 1.2,0 3.7,0.3 5.7,0.6 z m 20.9,2.1 c 0.3,0.3 0.7,48.4 0.8,106.9 l 0.4,106.4 H 221.6 215 V 913.4 805.9 l 5.8,0.7 c 3.1,0.3 5.9,0.9 6.2,1.1 z m 18.5,107.8 v 107 l -5.4,-0.2 c -3,-0.2 -5.8,-0.6 -6.2,-1 -0.4,-0.5 -1,-48.6 -1.4,-107.1 l -0.8,-106.3 6.9,0.3 6.9,0.3 z m 17.8,-65.8 c 0.4,22.4 0.7,70.7 0.7,107.5 v 66.9 l -6.7,-0.7 c -3.8,-0.4 -7,-0.8 -7.2,-1 -0.5,-0.5 -0.3,-212.2 0.2,-213.1 0.3,-0.5 3.2,-0.7 6.4,-0.5 l 6,0.4 z M 406,811.2 c 0,3.4 -1.5,5 -4.1,4.6 -1.9,-0.2 -2.5,-1 -2.7,-3.6 -0.3,-3.1 -0.2,-3.2 3.2,-3.2 3.1,0 3.6,0.3 3.6,2.2 z m -127.6,-0.6 4.6,0.7 v 87.2 c 0,47.9 -0.3,96 -0.7,106.8 l -0.6,19.7 h -6.4 c -4.2,0 -6.5,-0.4 -6.8,-1.3 -0.2,-0.6 -0.6,-49 -1,-107.5 L 266.9,810 h 3.4 c 1.9,0 5.5,0.3 8.1,0.6 z M 301,920.1 c 0,90.1 -0.2,108 -1.3,107.6 -0.8,-0.3 -4,-0.8 -7.2,-1.2 l -5.8,-0.8 0.6,-78 c 0.4,-42.9 0.7,-91 0.7,-106.9 V 812 h 6.5 6.5 z M 314.2,813 h 5.1 l -0.7,100.7 c -0.3,55.5 -0.9,104.2 -1.2,108.3 l -0.6,7.5 -5.7,-0.5 -5.6,-0.5 -0.3,-106 c -0.1,-58.3 0,-107.1 0.3,-108.3 0.4,-1.6 1.1,-2.2 2.1,-1.8 0.9,0.3 3.8,0.6 6.6,0.6 z m 19.5,2 h 3.5 l -0.4,107.9 c -0.1,59.4 -0.6,108.2 -0.9,108.6 -0.4,0.3 -3.7,0.3 -7.4,-0.1 l -6.8,-0.7 0.6,-81.6 c 0.4,-44.9 1,-93.7 1.4,-108.4 l 0.6,-26.9 3,0.6 c 1.6,0.3 4.5,0.6 6.4,0.6 z m 20.2,1.7 2.4,0.6 -0.8,108.1 c -0.4,59.5 -0.8,108.2 -0.9,108.2 0,0.1 -3,-0.1 -6.6,-0.5 l -6.5,-0.6 L 341.2,924.2 341,816 h 5.2 c 2.9,0 6.4,0.3 7.7,0.7 z m 19.9,110 0.2,108.3 h -3.9 c -2.1,0 -5.3,-0.3 -7,-0.6 l -3.1,-0.7 V 954 c 0,-43.8 0.3,-92.5 0.7,-108.1 l 0.6,-28.4 6.1,0.5 6.1,0.5 z m 10.8,-104 c 0,1.8 0.3,3.6 0.7,4 0.4,0.4 0.5,39 0.1,85.8 -0.5,72.8 -0.8,85.3 -2.1,87.4 -1.8,2.8 -1.9,13.7 -0.2,15.7 0.8,1 0.9,4.3 0.4,10.9 -0.7,9.2 -0.8,9.5 -3.1,9.5 H 378 v -72.3 c 0,-39.8 0.3,-88.7 0.7,-108.6 l 0.6,-36.2 2.6,0.3 c 2.2,0.3 2.6,0.8 2.7,3.5 z m 36.7,-1.7 h 3.7 v 73.7 c 0,40.6 -0.3,89.7 -0.7,109.1 l -0.6,35.3 -7.1,-0.3 -7.1,-0.3 -0.3,-68 c -0.2,-37.4 0,-86.6 0.4,-109.4 l 0.6,-41.3 3.7,0.6 c 2,0.3 5.3,0.6 7.4,0.6 z M 405,930 v 109 h -3.5 -3.5 v -66.8 c 0,-36.8 0.3,-85.8 0.7,-109 l 0.6,-42.2 h 2.9 2.8 z m 34.9,-108.4 3.1,0.6 V 929.6 1037 h -7.5 -7.5 l 0.1,-25.3 c 0.2,-68.4 1.6,-188.4 2.3,-189.5 0.8,-1.3 4.6,-1.5 9.5,-0.6 z m 22.5,104.1 c -0.3,57.1 -0.7,105.7 -1,108 -0.5,4.2 -0.6,4.3 -4.3,4.3 -2.1,0 -5.3,-0.3 -7,-0.6 l -3.1,-0.7 v -43.6 c 0,-24 0.3,-72.3 0.7,-107.4 l 0.6,-63.7 h 7.3 7.2 z m 18,-66.5 c 0.3,20.5 0.7,68.9 0.9,107.4 l 0.2,70.2 -7.5,0.5 c -4.1,0.2 -7.6,0.4 -7.8,0.2 -0.1,-0.1 0.1,-48.6 0.5,-107.8 L 467.3,822 h 6.2 6.3 z M 500,929.5 V 1037 H 492.5 485 V 934.7 c 0,-56.2 0.3,-104.6 0.6,-107.5 l 0.7,-5.2 h 6.8 6.9 z m 18.4,-69.8 c 0.3,20.8 0.7,69.3 0.8,107.8 l 0.3,70 -6.9,0.3 c -3.8,0.2 -7.3,-0.1 -7.8,-0.6 -0.4,-0.4 -0.5,-47.9 -0.1,-107.5 l 0.6,-106.6 2.1,-0.4 c 1.2,-0.2 4,-0.5 6.2,-0.6 l 4.2,-0.1 z m 20.6,69.5 c 0,59.4 -0.4,107.9 -0.9,108.7 -0.6,1 -2.5,1.2 -7,0.9 -3.3,-0.2 -6.4,-0.8 -6.8,-1.2 -1.1,-1 -1.7,-152 -0.8,-187.4 l 0.7,-28.2 h 7.4 7.4 z m 18.4,-32 c 0.4,41.4 0.6,90.1 0.4,108.3 l -0.3,33 -6.3,0.5 c -3.4,0.3 -6.7,0.3 -7.3,0.1 -0.7,-0.2 -0.8,-32.9 -0.4,-107.5 0.4,-58.9 0.8,-107.7 1,-108.4 0.3,-0.8 2.5,-1.2 6.3,-1.2 h 6 z m 21.1,-7 c -1.1,139.7 -1.3,148 -2.3,149 -0.6,0.6 -3.9,1.1 -7.4,1.2 l -6.3,0.1 L 562.2,931.7 562,823 h 8.5 8.5 z m 20.1,-32 c -0.4,19.4 -1.1,62.5 -1.6,95.8 -0.5,33.3 -1.3,66.5 -1.6,73.8 -0.8,15.1 -0.8,15.1 -10.1,13.7 l -4.6,-0.7 0.7,-58.6 c 0.3,-32.3 0.9,-81.3 1.2,-109 l 0.7,-50.2 h 8 7.9 z m 9,-34.4 c 0.5,0.5 3.7,1.7 7.1,2.8 6.1,1.8 6.3,2 5.8,4.9 -0.2,1.6 -0.7,29.1 -1,61 -0.4,44.1 -1,61.1 -2.2,70.9 -1.3,10.4 -1.3,13.6 -0.4,16.3 0.9,2.4 1,8.8 0.5,23.9 -0.7,19.5 -0.8,20.7 -2.9,22.8 -2.2,2.2 -3.7,9 -3.2,14.3 0.1,1.2 -0.2,2.3 -0.8,2.4 -2.8,0.3 -10.4,-1.3 -10.7,-2.4 -0.2,-0.6 -0.1,-16.7 0.3,-35.7 0.4,-19 1.2,-60.8 1.8,-93 1.7,-89.2 1.8,-91.5 5.7,-88.2 z m -214.4,58.4 c -0.2,29.1 -0.8,52.8 -1.1,52.8 -0.8,0 -0.3,-91.2 0.5,-99.8 0.3,-3.5 0.7,-6.2 0.9,-6 0.1,0.2 0,24 -0.3,53 z M 635,843.7 c 0,0.7 0.5,1.3 1,1.3 0.6,0 1,2.4 1,5.2 0,6 3.4,23.6 5.6,28.6 1.8,4.1 7.4,32.5 7.4,37.4 v 3.6 l -8.3,0.7 c -13.2,1.1 -11.8,4.7 -11.8,-31.5 0.1,-17.3 0.4,-35.4 0.7,-40.2 0.6,-8.1 0.8,-8.6 2.5,-7.5 1.1,0.7 1.9,1.7 1.9,2.4 z M 393,970 c 0,19.3 -0.4,30 -1,30 -0.6,0 -1,-6.9 -1,-18.8 0,-18 0.9,-41.2 1.7,-41.2 0.1,0 0.3,13.5 0.3,30 z m 240.9,16.2 c 0.5,1.3 1.2,5.2 1.6,8.8 0.4,3.6 1.3,7.5 2.1,8.7 1.8,2.8 0.6,6.2 -3.2,9.2 -4.8,3.8 -5,3.2 -5.8,-12.4 -0.4,-8 -0.4,-15 -0.1,-15.5 1.1,-1.8 4.5,-1 5.4,1.2 z m -241.4,43.1 c 0,20.9 0.1,22.2 1.9,22.5 2.2,0.5 3.6,-1.3 3.6,-4.7 v -2.4 l 68.3,0.6 c 37.5,0.4 81.9,1.1 98.6,1.7 l 30.3,1 8.4,4.2 8.4,4.1 v 6.3 6.3 l -23.2,-0.4 c -12.8,-0.2 -41.7,-1.8 -64.3,-3.4 -48.5,-3.6 -109.3,-7.8 -125.7,-8.7 -7.6,-0.5 -11.8,-1.1 -11.8,-1.8 0.1,-0.6 0.7,-2.2 1.5,-3.6 1,-1.8 1.4,-5.9 1.5,-14 0,-14.2 1.1,-31.2 1.9,-30.4 0.3,0.3 0.6,10.5 0.6,22.7 z m -149.8,0.7 c 59.7,5 128.2,11.9 130.5,13.1 1,0.5 3.4,0.9 5.3,0.9 h 3.5 v 5.7 5.6 l -15.5,-0.7 c -8.5,-0.3 -25.9,-1.3 -38.7,-2.2 -12.8,-0.8 -26.7,-1.2 -30.8,-0.9 -5.1,0.4 -10.5,0.1 -17,-1 -6.7,-1.2 -16.7,-1.8 -33.5,-2 -21.6,-0.2 -44.6,-1.3 -65.3,-3.1 l -7.3,-0.6 1.7,-2.6 c 1,-1.5 4.2,-5.7 7.3,-9.5 4.7,-5.8 5.9,-6.7 8.8,-6.7 1.8,0 24.7,1.8 51,4 z"
     id="path4"
     style="fill:url(#linearGradient841);stroke:none;stroke-width:0.1;fill-opacity:1" />
</svg>
