<?xml version="1.0" encoding="UTF-8" standalone="no"?>
<!-- Created with Inkscape (http://www.inkscape.org/) -->

<svg
   width="10mm"
   height="10mm"
   viewBox="0 0 10 10"
   version="1.1"
   id="svg8626"
   inkscape:version="1.1.1 (3bf5ae0d25, 2021-09-20)"
   sodipodi:docname="evil.svg"
   xmlns:inkscape="http://www.inkscape.org/namespaces/inkscape"
   xmlns:sodipodi="http://sodipodi.sourceforge.net/DTD/sodipodi-0.dtd"
   xmlns:xlink="http://www.w3.org/1999/xlink"
   xmlns="http://www.w3.org/2000/svg"
   xmlns:svg="http://www.w3.org/2000/svg">
  <sodipodi:namedview
     id="namedview8628"
     pagecolor="#ffffff"
     bordercolor="#666666"
     borderopacity="1.0"
     inkscape:pageshadow="2"
     inkscape:pageopacity="0.0"
     inkscape:pagecheckerboard="0"
     inkscape:document-units="mm"
     showgrid="false"
     inkscape:zoom="17.295309"
     inkscape:cx="7.1117552"
     inkscape:cy="12.517845"
     inkscape:window-width="1920"
     inkscape:window-height="1017"
     inkscape:window-x="1912"
     inkscape:window-y="-8"
     inkscape:window-maximized="1"
     inkscape:current-layer="pearlSymbol" />
  <defs
     id="defs8623">
    <linearGradient
       inkscape:collect="always"
       id="linearGradient6477">
      <stop
         style="stop-color:#9e2413;stop-opacity:1"
         offset="0"
         id="stop6473" />
      <stop
         style="stop-color:#640f04;stop-opacity:1"
         offset="1"
         id="stop6475" />
    </linearGradient>
    <radialGradient
       inkscape:collect="always"
       xlink:href="#linearGradient6477"
       id="radialGradient6751"
       cx="-3.8561082"
       cy="134.43045"
       fx="-3.8561082"
       fy="134.43045"
       r="4.3036056"
       gradientUnits="userSpaceOnUse"
       gradientTransform="matrix(0.40412892,0,0,0.40377385,-1.9388059,80.513992)" />
  </defs>
  <g
     inkscape:label="Livello 1"
     inkscape:groupmode="layer"
     id="layer1">
    <g
       id="pearlSymbol"
       transform="matrix(1.1666667,0,0,1.1666667,8.049274,-153.5663)"
       style="display:inline;stroke-width:0.857143">
      <path
         id="path63686"
         style="display:inline;fill:url(#radialGradient6751);fill-opacity:1;stroke:#ff9718;stroke-width:0.428571;stroke-linecap:round;stroke-miterlimit:4;stroke-dasharray:none;stroke-opacity:1;paint-order:normal"
         d="m -2.5580328,132.82563 a 3.0911041,3.0883883 0 0 0 -1.3627405,0.31845 h -2.7535055 -8.365e-4 c -4.74e-5,0.85374 0.446408,1.60306 1.1184678,2.02853 a 3.0911041,3.0883883 0 0 0 -0.092439,0.74136 3.0911041,3.0883883 0 0 0 3.0910535,3.08833 3.0911041,3.0883883 0 0 0 3.09105369,-3.08833 3.0911041,3.0883883 0 0 0 -0.10707844,-0.8053 C 1.0439974,134.6744 1.4478336,133.95636 1.4477885,133.14408 h -2.6393164 a 3.0911041,3.0883883 0 0 0 -1.3665049,-0.31845 z" />
    </g>
  </g>
</svg>
