<?xml version="1.0" encoding="UTF-8" standalone="no"?>
<!-- Created with Inkscape (http://www.inkscape.org/) -->

<svg
   width="10mm"
   height="10mm"
   viewBox="0 0 10 10"
   version="1.1"
   id="svg7953"
   inkscape:version="1.1.1 (3bf5ae0d25, 2021-09-20)"
   sodipodi:docname="magic.svg"
   xmlns:inkscape="http://www.inkscape.org/namespaces/inkscape"
   xmlns:sodipodi="http://sodipodi.sourceforge.net/DTD/sodipodi-0.dtd"
   xmlns:xlink="http://www.w3.org/1999/xlink"
   xmlns="http://www.w3.org/2000/svg"
   xmlns:svg="http://www.w3.org/2000/svg">
  <sodipodi:namedview
     id="namedview7955"
     pagecolor="#ffffff"
     bordercolor="#666666"
     borderopacity="1.0"
     inkscape:pageshadow="2"
     inkscape:pageopacity="0.0"
     inkscape:pagecheckerboard="0"
     inkscape:document-units="mm"
     showgrid="false"
     inkscape:zoom="12.22963"
     inkscape:cx="13.491823"
     inkscape:cy="22.322835"
     inkscape:window-width="1426"
     inkscape:window-height="1040"
     inkscape:window-x="1929"
     inkscape:window-y="0"
     inkscape:window-maximized="0"
     inkscape:current-layer="layer1" />
  <defs
     id="defs7950">
    <linearGradient
       inkscape:collect="always"
       id="linearGradient1758">
      <stop
         style="stop-color:#ff9718;stop-opacity:1"
         offset="0"
         id="stop1754" />
      <stop
         style="stop-color:#ff97b9;stop-opacity:1"
         offset="1"
         id="stop1756" />
    </linearGradient>
    <linearGradient
       inkscape:collect="always"
       xlink:href="#linearGradient1758"
       id="linearGradient1760"
       x1="-0.10342141"
       y1="4.9566775"
       x2="9.9750249"
       y2="4.9566775"
       gradientUnits="userSpaceOnUse" />
  </defs>
  <g
     inkscape:label="Livello 1"
     inkscape:groupmode="layer"
     id="layer1">
    <path
       id="path4917"
       style="fill:url(#linearGradient1760);fill-opacity:1;stroke:#640f04;stroke-width:0.499999;stroke-miterlimit:4;stroke-dasharray:none;stroke-opacity:1"
       d="M 6.443841,0.41873253 C 6.2023658,0.42195625 6.0642998,0.67638688 6.0572658,0.89175477 5.8980196,1.6371885 5.766741,2.3874003 5.5844387,3.125566 5.4223293,3.6453232 5.0295362,4.1208664 4.4891222,4.2669394 4.1222787,4.4006777 3.7328897,4.4867462 3.3744681,4.6492975 3.1083773,4.8226917 3.1856355,5.2994586 3.4992316,5.3705296 3.9527637,5.5416701 4.4307925,5.656138 4.8624714,5.8799763 5.3514598,6.1815614 5.6039102,6.7459347 5.6909989,7.2948265 5.8387768,7.9783725 5.9604879,8.6690519 6.1306604,9.3467638 6.2454233,9.6378172 6.7397824,9.6138856 6.8161409,9.3061793 7.0012631,8.5126644 7.1375255,7.7080231 7.3272239,6.9156878 7.4727338,6.4254832 7.7961559,5.9508435 8.2940809,5.7702975 8.6976825,5.5985575 9.1308097,5.503253 9.5299485,5.3217256 9.7886358,5.1846357 9.7721837,4.7764866 9.5302728,4.6309721 9.3737118,4.5505804 9.1956067,4.5185932 9.0304383,4.4575019 8.6943523,4.3464539 8.3421274,4.2622789 8.033192,4.0804727 7.5655367,3.7722355 7.3222159,3.2243574 7.2404101,2.6867622 7.0946858,2.0074983 6.970908,1.3228092 6.8122187,0.64588204 6.756168,0.49966132 6.5984121,0.40772624 6.443841,0.41873253 Z M 3.4654378,0.2542554 C 3.2271127,0.26911018 3.1206899,0.52530755 3.1078259,0.73120209 3.0151645,1.0462176 2.9892982,1.3832234 2.8622354,1.6860148 2.6956287,1.7980793 2.481486,1.7913287 2.2973491,1.8600032 2.0853252,1.881722 1.829354,2.0243328 1.8557469,2.2687056 1.872004,2.5086888 2.1337243,2.5967832 2.3300396,2.6523442 2.512226,2.7278992 2.7286492,2.745458 2.8798079,2.8781373 2.9666116,3.0686538 2.9727241,3.288434 3.0436476,3.4778743 3.1059653,3.6920849 3.1158855,3.9419453 3.2660438,4.116618 3.4753114,4.3026776 3.847825,4.1239896 3.847163,3.8490201 3.9437774,3.5193831 3.9924667,3.1784557 4.1242268,2.861377 4.2798986,2.7410375 4.4912865,2.7354356 4.6655653,2.6506704 4.8672152,2.6038223 5.1249138,2.5075546 5.1398447,2.266564 5.1550978,2.0270893 4.9084242,1.8845534 4.6979391,1.8614924 4.5080556,1.800307 4.2929062,1.791304 4.1267371,1.675317 4.0254563,1.4776077 4.0254464,1.2472314 3.9513446,1.0393581 3.8891352,0.81759424 3.868884,0.5733263 3.7508954,0.37362207 3.680032,0.29510057 3.5719915,0.2466462 3.4654378,0.2542554 Z M 2.6775819,4.286861 C 2.445996,4.2855636 2.2620247,4.4993609 2.2628937,4.723817 2.1499389,5.1636811 2.1453961,5.6580096 1.8611687,6.0335783 1.6549665,6.2958357 1.3175388,6.3700948 1.0292388,6.5045652 0.85249378,6.5853598 0.64780096,6.6457142 0.51778857,6.795139 0.35871387,7.0229009 0.52067706,7.3757469 0.79380653,7.4135475 1.168307,7.5722059 1.6342556,7.6170474 1.8881839,7.9712993 2.1984379,8.4183879 2.1482162,8.9958742 2.3544549,9.4832054 2.5727147,9.7672414 3.0740052,9.6164921 3.1368364,9.2767815 3.3013285,8.8494761 3.0254781,8.3963654 3.2339425,7.9864026 3.4661223,7.6983271 4.1617218,7.6254687 4.4898171,7.5041124 4.6992791,7.4470627 4.8907911,7.327283 5.011369,7.1444869 L 4.9306999,6.7975922 C 4.8114318,6.6125917 4.5667868,6.6020292 4.3837563,6.5128959 4.0605308,6.3936054 3.6602104,6.303997 3.4929786,5.967763 3.3302811,5.6297187 3.3134366,5.2455427 3.190313,4.8937214 3.1281696,4.6614229 3.0485065,4.354278 2.7789757,4.2910665 c -0.033714,-0.006 -0.067478,-0.00147 -0.101394,-0.0042 z"
       sodipodi:nodetypes="cccccccccccccccccccccccccccccccccccccccccccccccccccccccc" />
  </g>
</svg>
