<?xml version="1.0" encoding="UTF-8" standalone="no"?>
<!-- Created with Inkscape (http://www.inkscape.org/) -->

<svg
   width="10mm"
   height="10mm"
   viewBox="0 0 10 10"
   version="1.1"
   id="svg7276"
   inkscape:version="1.1.1 (3bf5ae0d25, 2021-09-20)"
   sodipodi:docname="strength.svg"
   xmlns:inkscape="http://www.inkscape.org/namespaces/inkscape"
   xmlns:sodipodi="http://sodipodi.sourceforge.net/DTD/sodipodi-0.dtd"
   xmlns:xlink="http://www.w3.org/1999/xlink"
   xmlns="http://www.w3.org/2000/svg"
   xmlns:svg="http://www.w3.org/2000/svg">
  <sodipodi:namedview
     id="namedview7278"
     pagecolor="#ffffff"
     bordercolor="#666666"
     borderopacity="1.0"
     inkscape:pageshadow="2"
     inkscape:pageopacity="0.0"
     inkscape:pagecheckerboard="0"
     inkscape:document-units="mm"
     showgrid="false"
     inkscape:zoom="17.295308"
     inkscape:cx="22.318192"
     inkscape:cy="17.779389"
     inkscape:window-width="1920"
     inkscape:window-height="1017"
     inkscape:window-x="1912"
     inkscape:window-y="-8"
     inkscape:window-maximized="1"
     inkscape:current-layer="layer1" />
  <defs
     id="defs7273">
    <linearGradient
       inkscape:collect="always"
       id="linearGradient1080">
      <stop
         style="stop-color:#ff9718;stop-opacity:1"
         offset="0"
         id="stop1076" />
      <stop
         style="stop-color:#ff97b9;stop-opacity:1"
         offset="1"
         id="stop1078" />
    </linearGradient>
    <linearGradient
       inkscape:collect="always"
       xlink:href="#linearGradient1080"
       id="linearGradient1082"
       x1="1.1588166"
       y1="4.9986662"
       x2="8.8407199"
       y2="4.9986662"
       gradientUnits="userSpaceOnUse" />
  </defs>
  <g
     inkscape:label="Livello 1"
     inkscape:groupmode="layer"
     id="layer1">
    <path
       id="path4471"
       style="fill:url(#linearGradient1082);stroke:#640f04;stroke-width:0.5;stroke-miterlimit:4;stroke-dasharray:none;stroke-opacity:1;fill-opacity:1"
       d="m 4.7640262,0.45580961 c 6.905e-4,1.08595489 -0.00261,2.70132629 0.00367,3.78711479 0.022893,0.1104465 0.192868,0.1584546 0.3271512,0.1384744 0.3468923,-0.00277 0.6953567,0.00833 1.0412356,-0.00833 C 6.2830469,4.3389358 6.3160735,4.2121166 6.2961824,4.1130479 V 0.56458615 C 6.1919209,0.49493762 6.1053387,0.40585895 5.988019,0.35063573 5.6701379,0.30346011 5.3409225,0.27404472 5.0222419,0.2646096 4.9361851,0.32815793 4.8500906,0.39170626 4.7640337,0.4552546 Z M 4.4408132,0.29458 C 4.064988,0.3328755 3.679306,0.4019739 3.3754448,0.58989937 c -0.040463,0.0355205 -0.1156658,0.0499506 -0.1429795,0.0912986 0.011956,0.37529593 0.00154,0.75256223 0.00472,1.12863503 0.00184,0.6362326 -0.00302,1.8021314 0.00508,2.4380865 0.028255,0.1071165 0.1865213,0.1526271 0.3145038,0.1340342 0.3343914,-0.00277 0.6702643,0.00833 1.0036886,-0.00833 0.141351,-0.034136 0.172432,-0.1617884 0.1531966,-0.260302 V 0.45544013 c -0.07829,-0.0518932 -0.1457766,-0.12709667 -0.230579,-0.16483716 -0.014127,0.001138 -0.028254,0.002581 -0.04231,0.002775 z m 2.0054134,0.31418961 c 0,0.17288476 0,0.34554751 0,0.51834899 C 6.5703614,1.0960382 6.704561,1.039705 6.8285265,1.1021433 7.0790417,1.1801219 7.328456,1.2619855 7.5783557,1.342184 7.5697602,1.2805782 7.6058056,1.1989921 7.5362103,1.1648592 7.2307898,0.90289571 6.8643666,0.72182459 6.4861261,0.59067637 c -0.013309,0.00555 -0.026618,0.0111002 -0.039899,0.0166502 z M 3.2218971,0.69479576 C 2.6912673,0.88904827 2.200276,1.1639434 1.8561985,1.5544187 c 0.00403,0.723785 -0.00838,1.9774582 0.00671,2.7007714 0.032868,0.1090589 0.1845269,0.1440243 0.3040232,0.1270965 0.3054649,-0.00277 0.6123085,0.00833 0.916888,-0.00833 C 3.2146521,4.3395456 3.2428576,4.2121721 3.2251495,4.1136583 V 0.69395823 Z m 3.2243295,0.84394404 -5.4e-6,1.0166346 C 6.6282503,2.7784874 6.8737053,2.9343889 7.0901271,3.1207048 6.5276831,3.5561863 6.9482657,4.4834728 6.2359132,4.1244909 6.0882659,4.2518651 5.8836946,4.2640752 5.6981664,4.2524201 5.4565239,4.24687 5.2131374,4.2662952 4.9726678,4.2413199 4.87895,4.2218947 4.7905832,4.1783266 4.7179936,4.1161657 4.5755867,4.2452049 4.3734471,4.2674052 4.1896519,4.2532525 3.9402734,4.2477024 3.689104,4.2671277 3.4409179,4.2393775 3.34781,4.2199521 3.2601366,4.1766615 3.1882677,4.1147782 3.0459995,4.2438174 2.8439459,4.2657403 2.6603337,4.2515876 2.4072675,4.2460375 2.1521996,4.2654626 1.900481,4.2377124 1.6248451,4.179714 1.4286197,3.8951897 1.4584152,3.6169922 V 2.1223854 c -0.072922,0.070486 -0.04123,0.1737172 -0.047635,0.263906 v 2.7373235 c 0.5451222,0.5704643 1.0945199,1.1369047 1.6351863,1.7113094 0.077858,0.1201591 0.00333,0.2614085 -0.00193,0.3903089 -0.1247724,0.8366457 -0.2495726,1.6732914 -0.374342,2.5099376 h 4.663697 C 7.19536,8.8062546 7.0520381,7.8775886 6.9190946,6.948229 6.9251945,6.8047597 7.0684609,6.7320538 7.1471507,6.6294052 7.6283396,6.1274011 8.1095284,5.625397 8.5907199,5.123393 V 2.4285552 C 8.510311,2.2886934 8.4298744,2.1485818 8.3494655,2.0086089 7.7963275,1.831284 7.2431922,1.6542368 6.6900541,1.4770229 6.6087584,1.4964485 6.5274619,1.5175388 6.4461657,1.5377963 Z m 0,2.1626413 c -0.00444,0.1221017 0.1314547,0.1973051 0.2406444,0.1687222 0.048301,0.00833 0.089753,0.0111 0.080104,-0.05439 C 6.816274,3.5226133 6.865573,3.2294862 6.9148717,2.9363868 6.7586567,2.8092902 6.6024362,2.682471 6.4462212,2.5553744 c 0,0.3820392 0,0.7640785 0,1.1461177 z" />
  </g>
</svg>
