<?xml version="1.0" encoding="UTF-8" standalone="no"?>
<!-- Created with Inkscape (http://www.inkscape.org/) -->

<svg
   width="10mm"
   height="10mm"
   viewBox="0 0 10 10"
   version="1.1"
   id="svg8626"
   inkscape:version="1.1.1 (3bf5ae0d25, 2021-09-20)"
   sodipodi:docname="wound.svg"
   xmlns:inkscape="http://www.inkscape.org/namespaces/inkscape"
   xmlns:sodipodi="http://sodipodi.sourceforge.net/DTD/sodipodi-0.dtd"
   xmlns="http://www.w3.org/2000/svg"
   xmlns:svg="http://www.w3.org/2000/svg">
  <sodipodi:namedview
     id="namedview8628"
     pagecolor="#ffffff"
     bordercolor="#666666"
     borderopacity="1.0"
     inkscape:pageshadow="2"
     inkscape:pageopacity="0.0"
     inkscape:pagecheckerboard="0"
     inkscape:document-units="mm"
     showgrid="false"
     inkscape:zoom="8.6476543"
     inkscape:cx="-13.414042"
     inkscape:cy="26.885904"
     inkscape:window-width="1920"
     inkscape:window-height="1017"
     inkscape:window-x="1912"
     inkscape:window-y="-8"
     inkscape:window-maximized="1"
     inkscape:current-layer="layer1" />
  <defs
     id="defs8623" />
  <g
     inkscape:label="Livello 1"
     inkscape:groupmode="layer"
     id="layer1">
    <path
       d="M 4.9217697,0.53788195 C 4.5042958,1.4082598 3.9378776,2.3258225 3.2704927,3.2128966 3.1301412,3.4001841 2.8709207,3.7297518 2.7434588,3.8843726 2.638195,4.0114087 2.2615378,4.52536 2.1935103,4.634248 2.0581717,4.8512979 1.8920414,5.1641697 1.8462122,5.287576 1.7831973,5.4574412 1.7294916,5.6715874 1.6850948,5.930015 l -0.022914,0.1306657 0.00358,0.27222 c 0.00358,0.2714941 0.00859,0.3397305 0.037953,0.5103217 0.1382031,0.8094006 0.6122471,1.5904909 1.2832127,2.1175086 0.3809539,0.2976271 0.8234903,0.5059666 1.266743,0.5945284 0.038667,0.00799 0.08378,0.019601 0.1009669,0.025407 0.044396,0.01597 0.1288941,0.031213 0.2721098,0.04791 0.1790198,0.021052 0.5685664,0.021052 0.7475859,0 0.1424963,-0.016695 0.2277098,-0.03194 0.2721065,-0.04791 0.017186,-0.0058 0.06946,-0.018874 0.117437,-0.028311 C 6.4198087,9.4173336 7.0592668,9.0209813 7.5469162,8.4475047 7.9149805,8.0148561 8.1806458,7.4602531 8.2723036,6.9354129 c 0.00859,-0.045733 0.020051,-0.1132434 0.026495,-0.1488135 0.00573,-0.036296 0.014321,-0.096547 0.017902,-0.1342953 0.00358,-0.037748 0.010029,-0.095096 0.01432,-0.1270359 0.00501,-0.03557 0.00645,-0.1444582 0.00501,-0.2794791 C 8.3324504,5.9931701 8.3224249,5.9154967 8.2615572,5.6650542 8.201409,5.4160639 8.1419746,5.2679762 8.0030555,5.0189855 7.8834704,4.805565 7.7209204,4.5485894 7.6464484,4.4563975 7.5941747,4.3910647 7.5025166,4.2691102 7.4130068,4.1428001 7.3958208,4.118119 7.3263612,4.0317344 7.2590499,3.9504313 6.330296,2.828159 5.6901218,1.8271153 5.2798089,0.85583468 5.2525978,0.79195355 5.1910151,0.65330305 5.141606,0.5473187 5.0227368,0.29034312 5.0399224,0.29106928 4.9217697,0.53788195 Z"
       id="path2079"
       style="fill:#191814;fill-opacity:1;stroke:#ff9718;stroke-width:0.5;stroke-miterlimit:4;stroke-dasharray:none;stroke-opacity:1" />
  </g>
</svg>
